<mxfile host="app.diagrams.net" modified="2024-01-16T07:56:19.080Z" agent="Mozilla/5.0 (Windows NT 10.0; Win64; x64) AppleWebKit/537.36 (KHTML, like Gecko) Chrome/120.0.0.0 Safari/537.36" version="22.1.18" etag="RV6ceQdiR6HygTgkZVpj" type="device" pages="3">
  <diagram id="HxNQTMV6lBlT4e_Nw5go" name="機能設計">
    <mxGraphModel dx="794" dy="412" grid="0" gridSize="10" guides="1" tooltips="1" connect="1" arrows="1" fold="1" page="1" pageScale="1" pageWidth="827" pageHeight="1169" math="0" shadow="0">
      <root>
        <mxCell id="0" />
        <mxCell id="1" parent="0" />
        <mxCell id="oYj9W8fX7MH2I0G9VKwg-125" value="" style="rounded=1;whiteSpace=wrap;html=1;fontFamily=Helvetica;fontSize=11;fillColor=none;dashed=1;strokeColor=#6c8ebf;strokeWidth=2;" vertex="1" parent="1">
          <mxGeometry x="21" y="41" width="122" height="159" as="geometry" />
        </mxCell>
        <mxCell id="oYj9W8fX7MH2I0G9VKwg-126" value="" style="rounded=1;whiteSpace=wrap;html=1;fontFamily=Helvetica;fontSize=11;fillColor=none;dashed=1;strokeColor=#6c8ebf;strokeWidth=2;" vertex="1" parent="1">
          <mxGeometry x="170" y="185" width="546" height="125" as="geometry" />
        </mxCell>
        <mxCell id="oYj9W8fX7MH2I0G9VKwg-1" value="&lt;b&gt;■画面遷移図&lt;/b&gt;" style="text;html=1;align=center;verticalAlign=middle;resizable=0;points=[];autosize=1;strokeColor=none;fillColor=none;fontSize=14;" vertex="1" parent="1">
          <mxGeometry x="13.5" y="5" width="96" height="29" as="geometry" />
        </mxCell>
        <mxCell id="oYj9W8fX7MH2I0G9VKwg-112" style="edgeStyle=orthogonalEdgeStyle;rounded=0;orthogonalLoop=1;jettySize=auto;html=1;strokeColor=#FF3333;" edge="1" parent="1" source="oYj9W8fX7MH2I0G9VKwg-105">
          <mxGeometry relative="1" as="geometry">
            <mxPoint x="174.66668701171875" y="157.5" as="targetPoint" />
          </mxGeometry>
        </mxCell>
        <mxCell id="oYj9W8fX7MH2I0G9VKwg-119" style="edgeStyle=orthogonalEdgeStyle;shape=connector;rounded=0;orthogonalLoop=1;jettySize=auto;html=1;entryX=0;entryY=0.5;entryDx=0;entryDy=0;labelBackgroundColor=default;strokeColor=#FF3333;align=center;verticalAlign=middle;fontFamily=Helvetica;fontSize=11;fontColor=default;endArrow=classic;" edge="1" parent="1" source="oYj9W8fX7MH2I0G9VKwg-105" target="oYj9W8fX7MH2I0G9VKwg-115">
          <mxGeometry relative="1" as="geometry">
            <Array as="points">
              <mxPoint x="154" y="158" />
              <mxPoint x="154" y="217" />
            </Array>
          </mxGeometry>
        </mxCell>
        <mxCell id="oYj9W8fX7MH2I0G9VKwg-124" style="edgeStyle=orthogonalEdgeStyle;shape=connector;rounded=0;orthogonalLoop=1;jettySize=auto;html=1;entryX=0;entryY=0.5;entryDx=0;entryDy=0;labelBackgroundColor=default;strokeColor=#FF3333;align=center;verticalAlign=middle;fontFamily=Helvetica;fontSize=11;fontColor=default;endArrow=classic;" edge="1" parent="1" source="oYj9W8fX7MH2I0G9VKwg-105" target="oYj9W8fX7MH2I0G9VKwg-123">
          <mxGeometry relative="1" as="geometry">
            <Array as="points">
              <mxPoint x="154" y="158" />
              <mxPoint x="154" y="78" />
            </Array>
          </mxGeometry>
        </mxCell>
        <mxCell id="oYj9W8fX7MH2I0G9VKwg-268" style="edgeStyle=orthogonalEdgeStyle;shape=connector;rounded=0;orthogonalLoop=1;jettySize=auto;html=1;entryX=0;entryY=0.5;entryDx=0;entryDy=0;labelBackgroundColor=default;strokeColor=#FF3333;align=center;verticalAlign=middle;fontFamily=Helvetica;fontSize=11;fontColor=default;endArrow=classic;" edge="1" parent="1" source="oYj9W8fX7MH2I0G9VKwg-105" target="oYj9W8fX7MH2I0G9VKwg-266">
          <mxGeometry relative="1" as="geometry">
            <Array as="points">
              <mxPoint x="154" y="158" />
              <mxPoint x="154" y="274" />
            </Array>
          </mxGeometry>
        </mxCell>
        <mxCell id="oYj9W8fX7MH2I0G9VKwg-105" value="&lt;font style=&quot;font-size: 14px;&quot;&gt;TOPページ&lt;/font&gt;" style="rounded=1;whiteSpace=wrap;html=1;fillColor=#dae8fc;strokeColor=#6c8ebf;" vertex="1" parent="1">
          <mxGeometry x="29" y="133" width="104" height="49" as="geometry" />
        </mxCell>
        <mxCell id="oYj9W8fX7MH2I0G9VKwg-110" style="edgeStyle=orthogonalEdgeStyle;rounded=0;orthogonalLoop=1;jettySize=auto;html=1;entryX=0.5;entryY=0;entryDx=0;entryDy=0;strokeColor=#FF3333;" edge="1" parent="1" source="oYj9W8fX7MH2I0G9VKwg-106" target="oYj9W8fX7MH2I0G9VKwg-105">
          <mxGeometry relative="1" as="geometry" />
        </mxCell>
        <mxCell id="oYj9W8fX7MH2I0G9VKwg-106" value="&lt;span style=&quot;font-size: 14px;&quot;&gt;ログイン&lt;/span&gt;" style="rounded=1;whiteSpace=wrap;html=1;fillColor=#dae8fc;strokeColor=#6c8ebf;" vertex="1" parent="1">
          <mxGeometry x="29" y="50" width="104" height="49" as="geometry" />
        </mxCell>
        <mxCell id="oYj9W8fX7MH2I0G9VKwg-113" style="edgeStyle=orthogonalEdgeStyle;rounded=0;orthogonalLoop=1;jettySize=auto;html=1;strokeColor=#FF3333;" edge="1" parent="1" source="oYj9W8fX7MH2I0G9VKwg-107" target="oYj9W8fX7MH2I0G9VKwg-108">
          <mxGeometry relative="1" as="geometry" />
        </mxCell>
        <mxCell id="oYj9W8fX7MH2I0G9VKwg-107" value="&lt;font style=&quot;font-size: 14px;&quot;&gt;プロジェクト&lt;br&gt;作成ページ&lt;br&gt;&lt;/font&gt;" style="rounded=1;whiteSpace=wrap;html=1;fillColor=#dae8fc;strokeColor=#6c8ebf;" vertex="1" parent="1">
          <mxGeometry x="176" y="126" width="104" height="49" as="geometry" />
        </mxCell>
        <mxCell id="oYj9W8fX7MH2I0G9VKwg-114" style="edgeStyle=orthogonalEdgeStyle;shape=connector;rounded=0;orthogonalLoop=1;jettySize=auto;html=1;entryX=0;entryY=0.5;entryDx=0;entryDy=0;labelBackgroundColor=default;strokeColor=#FF3333;align=center;verticalAlign=middle;fontFamily=Helvetica;fontSize=11;fontColor=default;endArrow=classic;" edge="1" parent="1" source="oYj9W8fX7MH2I0G9VKwg-108" target="oYj9W8fX7MH2I0G9VKwg-109">
          <mxGeometry relative="1" as="geometry" />
        </mxCell>
        <mxCell id="oYj9W8fX7MH2I0G9VKwg-108" value="&lt;font style=&quot;font-size: 14px;&quot;&gt;マイルストーン&lt;br&gt;作成ページ&lt;br&gt;&lt;/font&gt;" style="rounded=1;whiteSpace=wrap;html=1;fillColor=#dae8fc;strokeColor=#6c8ebf;" vertex="1" parent="1">
          <mxGeometry x="318" y="126" width="104" height="49" as="geometry" />
        </mxCell>
        <mxCell id="oYj9W8fX7MH2I0G9VKwg-109" value="&lt;font style=&quot;font-size: 14px;&quot;&gt;タスク&lt;br&gt;作成ページ&lt;br&gt;&lt;/font&gt;" style="rounded=1;whiteSpace=wrap;html=1;fillColor=#dae8fc;strokeColor=#6c8ebf;" vertex="1" parent="1">
          <mxGeometry x="459" y="126" width="104" height="49" as="geometry" />
        </mxCell>
        <mxCell id="oYj9W8fX7MH2I0G9VKwg-120" style="edgeStyle=orthogonalEdgeStyle;shape=connector;rounded=0;orthogonalLoop=1;jettySize=auto;html=1;entryX=0;entryY=0.5;entryDx=0;entryDy=0;labelBackgroundColor=default;strokeColor=#FF3333;align=center;verticalAlign=middle;fontFamily=Helvetica;fontSize=11;fontColor=default;endArrow=classic;" edge="1" parent="1" source="oYj9W8fX7MH2I0G9VKwg-115" target="oYj9W8fX7MH2I0G9VKwg-116">
          <mxGeometry relative="1" as="geometry" />
        </mxCell>
        <mxCell id="oYj9W8fX7MH2I0G9VKwg-115" value="&lt;font style=&quot;font-size: 14px;&quot;&gt;タスク一覧&lt;br&gt;ページ&lt;br&gt;&lt;/font&gt;" style="rounded=1;whiteSpace=wrap;html=1;fillColor=#dae8fc;strokeColor=#6c8ebf;" vertex="1" parent="1">
          <mxGeometry x="178" y="192.5" width="104" height="49" as="geometry" />
        </mxCell>
        <mxCell id="oYj9W8fX7MH2I0G9VKwg-121" style="edgeStyle=orthogonalEdgeStyle;shape=connector;rounded=0;orthogonalLoop=1;jettySize=auto;html=1;entryX=0;entryY=0.5;entryDx=0;entryDy=0;labelBackgroundColor=default;strokeColor=#FF3333;align=center;verticalAlign=middle;fontFamily=Helvetica;fontSize=11;fontColor=default;endArrow=classic;" edge="1" parent="1" source="oYj9W8fX7MH2I0G9VKwg-116" target="oYj9W8fX7MH2I0G9VKwg-117">
          <mxGeometry relative="1" as="geometry" />
        </mxCell>
        <mxCell id="oYj9W8fX7MH2I0G9VKwg-116" value="&lt;font style=&quot;font-size: 14px;&quot;&gt;タスク詳細&lt;br&gt;ページ&lt;br&gt;&lt;/font&gt;" style="rounded=1;whiteSpace=wrap;html=1;fillColor=#dae8fc;strokeColor=#6c8ebf;" vertex="1" parent="1">
          <mxGeometry x="320" y="192.5" width="104" height="49" as="geometry" />
        </mxCell>
        <mxCell id="oYj9W8fX7MH2I0G9VKwg-122" style="edgeStyle=orthogonalEdgeStyle;shape=connector;rounded=0;orthogonalLoop=1;jettySize=auto;html=1;entryX=0;entryY=0.5;entryDx=0;entryDy=0;labelBackgroundColor=default;strokeColor=#FF3333;align=center;verticalAlign=middle;fontFamily=Helvetica;fontSize=11;fontColor=default;endArrow=classic;" edge="1" parent="1" source="oYj9W8fX7MH2I0G9VKwg-117" target="oYj9W8fX7MH2I0G9VKwg-118">
          <mxGeometry relative="1" as="geometry" />
        </mxCell>
        <mxCell id="oYj9W8fX7MH2I0G9VKwg-117" value="&lt;font style=&quot;font-size: 14px;&quot;&gt;スレッド作成&lt;br&gt;ページ&lt;br&gt;&lt;/font&gt;" style="rounded=1;whiteSpace=wrap;html=1;fillColor=#dae8fc;strokeColor=#6c8ebf;" vertex="1" parent="1">
          <mxGeometry x="464" y="192.5" width="104" height="49" as="geometry" />
        </mxCell>
        <mxCell id="oYj9W8fX7MH2I0G9VKwg-118" value="&lt;font style=&quot;font-size: 14px;&quot;&gt;スレッド&lt;br&gt;&lt;/font&gt;" style="rounded=1;whiteSpace=wrap;html=1;fillColor=#dae8fc;strokeColor=#6c8ebf;" vertex="1" parent="1">
          <mxGeometry x="593" y="192.5" width="104" height="49" as="geometry" />
        </mxCell>
        <mxCell id="oYj9W8fX7MH2I0G9VKwg-123" value="&lt;font style=&quot;font-size: 14px;&quot;&gt;進捗確認&lt;br&gt;ページ&lt;br&gt;&lt;/font&gt;" style="rounded=1;whiteSpace=wrap;html=1;fillColor=#dae8fc;strokeColor=#6c8ebf;" vertex="1" parent="1">
          <mxGeometry x="176" y="53" width="104" height="49" as="geometry" />
        </mxCell>
        <mxCell id="oYj9W8fX7MH2I0G9VKwg-127" value="&lt;div style=&quot;text-align: left; font-size: 13px;&quot;&gt;&lt;span style=&quot;background-color: initial;&quot;&gt;&lt;font style=&quot;font-size: 13px;&quot; color=&quot;#ea6b66&quot;&gt;&lt;b&gt;青色が論点豊富なので、&lt;/b&gt;&lt;/font&gt;&lt;/span&gt;&lt;/div&gt;&lt;font style=&quot;font-size: 13px;&quot; color=&quot;#ea6b66&quot;&gt;&lt;b&gt;ピックアップして画面詳細を考えます。&lt;/b&gt;&lt;/font&gt;" style="text;html=1;align=center;verticalAlign=middle;resizable=0;points=[];autosize=1;strokeColor=none;fillColor=none;fontSize=11;fontFamily=Helvetica;fontColor=default;" vertex="1" parent="1">
          <mxGeometry x="11" y="265" width="252" height="43" as="geometry" />
        </mxCell>
        <mxCell id="oYj9W8fX7MH2I0G9VKwg-128" value="&lt;b&gt;■各画面の詳細（白黒のワイヤーフレームで「必要な項目」に集中）&lt;/b&gt;" style="text;html=1;align=left;verticalAlign=middle;resizable=0;points=[];autosize=1;strokeColor=none;fillColor=none;fontSize=14;" vertex="1" parent="1">
          <mxGeometry x="13.5" y="334" width="446" height="29" as="geometry" />
        </mxCell>
        <mxCell id="oYj9W8fX7MH2I0G9VKwg-129" value="&lt;b&gt;（１）ログイン&lt;/b&gt;" style="text;html=1;align=left;verticalAlign=middle;resizable=0;points=[];autosize=1;strokeColor=none;fillColor=none;fontSize=14;fontFamily=Helvetica;fontColor=default;" vertex="1" parent="1">
          <mxGeometry x="21" y="379" width="116" height="29" as="geometry" />
        </mxCell>
        <mxCell id="oYj9W8fX7MH2I0G9VKwg-130" value="" style="rounded=1;whiteSpace=wrap;html=1;fontFamily=Helvetica;fontSize=11;fontColor=#333333;fillColor=#f5f5f5;strokeColor=none;" vertex="1" parent="1">
          <mxGeometry x="29" y="419" width="459" height="273" as="geometry" />
        </mxCell>
        <mxCell id="oYj9W8fX7MH2I0G9VKwg-131" value="&lt;font style=&quot;font-size: 16px;&quot;&gt;Email&lt;/font&gt;" style="rounded=1;whiteSpace=wrap;html=1;fontFamily=Helvetica;fontSize=11;fontColor=default;fillColor=default;strokeColor=none;fontStyle=1" vertex="1" parent="1">
          <mxGeometry x="122.5" y="480" width="272.5" height="43" as="geometry" />
        </mxCell>
        <mxCell id="oYj9W8fX7MH2I0G9VKwg-132" value="&lt;font style=&quot;font-size: 16px;&quot;&gt;Pass&lt;/font&gt;" style="rounded=1;whiteSpace=wrap;html=1;fontFamily=Helvetica;fontSize=11;fontColor=default;fillColor=default;strokeColor=none;fontStyle=1" vertex="1" parent="1">
          <mxGeometry x="121" y="541.85" width="275" height="43" as="geometry" />
        </mxCell>
        <mxCell id="oYj9W8fX7MH2I0G9VKwg-133" value="&lt;span style=&quot;font-size: 16px;&quot;&gt;ログイン&lt;/span&gt;" style="rounded=1;whiteSpace=wrap;html=1;fontFamily=Helvetica;fontSize=11;fillColor=#ffe6cc;strokeColor=#d79b00;arcSize=43;fontStyle=1" vertex="1" parent="1">
          <mxGeometry x="261.5" y="599" width="131.5" height="43" as="geometry" />
        </mxCell>
        <mxCell id="oYj9W8fX7MH2I0G9VKwg-136" value="&lt;b&gt;（２）TOPページ&lt;br&gt;（「社員」に関連のある情報をドメインモデルから拾う）&lt;br&gt;&lt;/b&gt;" style="text;html=1;align=left;verticalAlign=middle;resizable=0;points=[];autosize=1;strokeColor=none;fillColor=none;fontSize=14;fontFamily=Helvetica;fontColor=default;" vertex="1" parent="1">
          <mxGeometry x="24" y="713" width="382" height="46" as="geometry" />
        </mxCell>
        <mxCell id="oYj9W8fX7MH2I0G9VKwg-137" value="" style="rounded=1;whiteSpace=wrap;html=1;fontFamily=Helvetica;fontSize=11;fontColor=#333333;fillColor=#f5f5f5;strokeColor=none;" vertex="1" parent="1">
          <mxGeometry x="29" y="767" width="459" height="317" as="geometry" />
        </mxCell>
        <mxCell id="oYj9W8fX7MH2I0G9VKwg-144" value="" style="rounded=1;whiteSpace=wrap;html=1;fontFamily=Helvetica;fontSize=11;fontColor=default;" vertex="1" parent="1">
          <mxGeometry x="55" y="780" width="377" height="76" as="geometry" />
        </mxCell>
        <mxCell id="oYj9W8fX7MH2I0G9VKwg-141" value="&lt;b&gt;▶参加プロジェクト：&lt;/b&gt;" style="text;html=1;strokeColor=none;fillColor=none;align=left;verticalAlign=middle;whiteSpace=wrap;rounded=0;fontSize=15;fontFamily=Helvetica;fontColor=default;fontStyle=4" vertex="1" parent="1">
          <mxGeometry x="63" y="788" width="163" height="30" as="geometry" />
        </mxCell>
        <mxCell id="oYj9W8fX7MH2I0G9VKwg-145" value="・～～PJ&lt;br style=&quot;font-size: 13px;&quot;&gt;・●●PJ" style="text;html=1;strokeColor=none;fillColor=none;align=left;verticalAlign=middle;whiteSpace=wrap;rounded=0;fontSize=13;fontFamily=Helvetica;fontColor=default;" vertex="1" parent="1">
          <mxGeometry x="72" y="818" width="68" height="30" as="geometry" />
        </mxCell>
        <mxCell id="oYj9W8fX7MH2I0G9VKwg-146" value="" style="rounded=1;whiteSpace=wrap;html=1;fontFamily=Helvetica;fontSize=11;fontColor=default;" vertex="1" parent="1">
          <mxGeometry x="55" y="871" width="377" height="76" as="geometry" />
        </mxCell>
        <mxCell id="oYj9W8fX7MH2I0G9VKwg-147" value="&lt;b&gt;▶あなたのタスク：&lt;/b&gt;" style="text;html=1;strokeColor=none;fillColor=none;align=left;verticalAlign=middle;whiteSpace=wrap;rounded=0;fontSize=15;fontFamily=Helvetica;fontColor=default;fontStyle=4" vertex="1" parent="1">
          <mxGeometry x="63" y="879" width="163" height="30" as="geometry" />
        </mxCell>
        <mxCell id="oYj9W8fX7MH2I0G9VKwg-148" value="&lt;font style=&quot;font-size: 13px;&quot;&gt;・～～調査（作業中）&lt;br&gt;・●●開発（未着手）&lt;/font&gt;" style="text;html=1;strokeColor=none;fillColor=none;align=left;verticalAlign=middle;whiteSpace=wrap;rounded=0;fontSize=15;fontFamily=Helvetica;fontColor=default;" vertex="1" parent="1">
          <mxGeometry x="72" y="909" width="163" height="30" as="geometry" />
        </mxCell>
        <mxCell id="oYj9W8fX7MH2I0G9VKwg-142" value="&lt;font color=&quot;#ea6b66&quot; style=&quot;font-size: 12px;&quot;&gt;&lt;b&gt;進行中のマイルストーン&lt;br&gt;から抽出&lt;/b&gt;&lt;/font&gt;" style="text;html=1;strokeColor=none;fillColor=none;align=left;verticalAlign=middle;whiteSpace=wrap;rounded=0;fontSize=15;fontFamily=Helvetica;fontColor=default;" vertex="1" parent="1">
          <mxGeometry x="280" y="879" width="143" height="30" as="geometry" />
        </mxCell>
        <mxCell id="oYj9W8fX7MH2I0G9VKwg-150" value="&lt;font style=&quot;font-size: 13px;&quot;&gt;&lt;b&gt;＜すべて見る＞&lt;/b&gt;&lt;/font&gt;" style="text;html=1;strokeColor=none;fillColor=none;align=left;verticalAlign=middle;whiteSpace=wrap;rounded=0;fontSize=15;fontFamily=Helvetica;fontColor=default;" vertex="1" parent="1">
          <mxGeometry x="325" y="917" width="94" height="30" as="geometry" />
        </mxCell>
        <mxCell id="oYj9W8fX7MH2I0G9VKwg-167" value="" style="rounded=1;whiteSpace=wrap;html=1;fontFamily=Helvetica;fontSize=11;fontColor=default;" vertex="1" parent="1">
          <mxGeometry x="55" y="966" width="377" height="76" as="geometry" />
        </mxCell>
        <mxCell id="oYj9W8fX7MH2I0G9VKwg-168" value="&lt;b&gt;▶進行中のスレッド：&lt;/b&gt;" style="text;html=1;strokeColor=none;fillColor=none;align=left;verticalAlign=middle;whiteSpace=wrap;rounded=0;fontSize=15;fontFamily=Helvetica;fontColor=default;fontStyle=4" vertex="1" parent="1">
          <mxGeometry x="63" y="974" width="163" height="30" as="geometry" />
        </mxCell>
        <mxCell id="oYj9W8fX7MH2I0G9VKwg-169" value="&lt;font style=&quot;font-size: 13px;&quot;&gt;・～～について質問&lt;br&gt;・●●の詳細確認＜未読あり＞&lt;/font&gt;" style="text;html=1;strokeColor=none;fillColor=none;align=left;verticalAlign=middle;whiteSpace=wrap;rounded=0;fontSize=15;fontFamily=Helvetica;fontColor=default;" vertex="1" parent="1">
          <mxGeometry x="72" y="1004" width="179" height="30" as="geometry" />
        </mxCell>
        <mxCell id="oYj9W8fX7MH2I0G9VKwg-171" value="&lt;font style=&quot;font-size: 13px;&quot;&gt;&lt;b&gt;＜すべて見る＞&lt;/b&gt;&lt;/font&gt;" style="text;html=1;strokeColor=none;fillColor=none;align=left;verticalAlign=middle;whiteSpace=wrap;rounded=0;fontSize=15;fontFamily=Helvetica;fontColor=default;" vertex="1" parent="1">
          <mxGeometry x="325" y="1012" width="94" height="30" as="geometry" />
        </mxCell>
        <mxCell id="oYj9W8fX7MH2I0G9VKwg-172" value="&lt;b&gt;（３）タスク一覧ページ/詳細&lt;br&gt;&lt;/b&gt;" style="text;html=1;align=left;verticalAlign=middle;resizable=0;points=[];autosize=1;strokeColor=none;fillColor=none;fontSize=14;fontFamily=Helvetica;fontColor=default;" vertex="1" parent="1">
          <mxGeometry x="541" y="379" width="204" height="29" as="geometry" />
        </mxCell>
        <mxCell id="oYj9W8fX7MH2I0G9VKwg-173" value="" style="rounded=1;whiteSpace=wrap;html=1;fontFamily=Helvetica;fontSize=11;fontColor=#333333;fillColor=#f5f5f5;strokeColor=none;" vertex="1" parent="1">
          <mxGeometry x="541" y="419" width="455" height="399" as="geometry" />
        </mxCell>
        <mxCell id="oYj9W8fX7MH2I0G9VKwg-179" value="&lt;font style=&quot;font-size: 15px;&quot;&gt;&lt;b&gt;&lt;u&gt;▶作業中：&lt;/u&gt;&lt;br&gt;・～～調査&lt;br&gt;・～～機能開発&lt;br&gt;&lt;br&gt;▶レビュー中：&lt;br&gt;・～～ブラッシュアップ&lt;br&gt;・～～～～～&lt;br&gt;・～～～～～&lt;br&gt;&lt;/b&gt;&lt;br&gt;&lt;/font&gt;" style="text;html=1;strokeColor=none;fillColor=none;align=left;verticalAlign=middle;whiteSpace=wrap;rounded=0;fontSize=15;fontFamily=Helvetica;fontColor=default;" vertex="1" parent="1">
          <mxGeometry x="590" y="480" width="178" height="189.85" as="geometry" />
        </mxCell>
        <mxCell id="oYj9W8fX7MH2I0G9VKwg-188" value="&lt;font style=&quot;font-size: 15px;&quot;&gt;全てのタスク&lt;/font&gt;" style="rounded=1;whiteSpace=wrap;html=1;fontFamily=Helvetica;fontSize=11;fillColor=#ffe6cc;strokeColor=#d79b00;arcSize=36;" vertex="1" parent="1">
          <mxGeometry x="590" y="441" width="120" height="30" as="geometry" />
        </mxCell>
        <mxCell id="oYj9W8fX7MH2I0G9VKwg-189" value="&lt;font style=&quot;font-size: 15px;&quot;&gt;～～PJ&lt;/font&gt;" style="rounded=1;whiteSpace=wrap;html=1;fontFamily=Helvetica;fontSize=11;arcSize=36;" vertex="1" parent="1">
          <mxGeometry x="719" y="441" width="91" height="30" as="geometry" />
        </mxCell>
        <mxCell id="oYj9W8fX7MH2I0G9VKwg-190" value="&lt;font style=&quot;font-size: 15px;&quot;&gt;●●PJ&lt;/font&gt;" style="rounded=1;whiteSpace=wrap;html=1;fontFamily=Helvetica;fontSize=11;arcSize=36;" vertex="1" parent="1">
          <mxGeometry x="819" y="441" width="86" height="30" as="geometry" />
        </mxCell>
        <mxCell id="oYj9W8fX7MH2I0G9VKwg-191" style="edgeStyle=orthogonalEdgeStyle;shape=connector;rounded=0;orthogonalLoop=1;jettySize=auto;html=1;entryX=0;entryY=0.5;entryDx=0;entryDy=0;labelBackgroundColor=default;strokeColor=#FF3333;align=center;verticalAlign=middle;fontFamily=Helvetica;fontSize=11;fontColor=default;endArrow=classic;" edge="1" parent="1" source="oYj9W8fX7MH2I0G9VKwg-150" target="oYj9W8fX7MH2I0G9VKwg-188">
          <mxGeometry relative="1" as="geometry">
            <Array as="points">
              <mxPoint x="522" y="932" />
              <mxPoint x="522" y="456" />
            </Array>
          </mxGeometry>
        </mxCell>
        <mxCell id="oYj9W8fX7MH2I0G9VKwg-192" style="edgeStyle=orthogonalEdgeStyle;shape=connector;rounded=0;orthogonalLoop=1;jettySize=auto;html=1;labelBackgroundColor=default;strokeColor=#FF3333;align=center;verticalAlign=middle;fontFamily=Helvetica;fontSize=11;fontColor=default;endArrow=classic;entryX=0.5;entryY=0;entryDx=0;entryDy=0;" edge="1" parent="1" source="oYj9W8fX7MH2I0G9VKwg-145" target="oYj9W8fX7MH2I0G9VKwg-189">
          <mxGeometry relative="1" as="geometry">
            <Array as="points">
              <mxPoint x="501" y="833" />
              <mxPoint x="501" y="411" />
              <mxPoint x="764" y="411" />
            </Array>
          </mxGeometry>
        </mxCell>
        <mxCell id="oYj9W8fX7MH2I0G9VKwg-193" value="" style="rounded=1;whiteSpace=wrap;html=1;fontFamily=Helvetica;fontSize=11;fontColor=default;" vertex="1" parent="1">
          <mxGeometry x="786" y="494" width="188" height="300" as="geometry" />
        </mxCell>
        <mxCell id="oYj9W8fX7MH2I0G9VKwg-194" value="&lt;font style=&quot;font-size: 13px;&quot;&gt;&lt;b style=&quot;&quot;&gt;&lt;u style=&quot;&quot;&gt;&lt;font style=&quot;font-size: 15px;&quot;&gt;【～～調査】&lt;/font&gt;&lt;/u&gt;&lt;br&gt;&lt;br&gt;～～～～～～～～&lt;br&gt;～～～詳細～～～&lt;br&gt;&lt;/b&gt;&lt;b style=&quot;border-color: var(--border-color);&quot;&gt;～～～～～～～～&lt;br style=&quot;border-color: var(--border-color);&quot;&gt;&lt;/b&gt;&lt;/font&gt;" style="text;html=1;strokeColor=none;fillColor=none;align=center;verticalAlign=middle;whiteSpace=wrap;rounded=0;fontSize=15;fontFamily=Helvetica;fontColor=default;" vertex="1" parent="1">
          <mxGeometry x="809" y="494" width="143" height="114.85" as="geometry" />
        </mxCell>
        <mxCell id="oYj9W8fX7MH2I0G9VKwg-195" value="" style="rounded=1;whiteSpace=wrap;html=1;fontFamily=Helvetica;fontSize=11;fontColor=default;fillColor=none;" vertex="1" parent="1">
          <mxGeometry x="812" y="533.85" width="137" height="77.15" as="geometry" />
        </mxCell>
        <mxCell id="oYj9W8fX7MH2I0G9VKwg-196" value="&lt;font style=&quot;font-size: 13px;&quot;&gt;・～～PJ&lt;br&gt;・Phase１&lt;br&gt;・作業中 ▼&lt;br&gt;・htpps://~~&lt;br&gt;&lt;/font&gt;" style="text;html=1;align=left;verticalAlign=middle;resizable=0;points=[];autosize=1;strokeColor=none;fillColor=none;fontSize=11;fontFamily=Helvetica;fontColor=default;" vertex="1" parent="1">
          <mxGeometry x="814" y="614" width="89" height="74" as="geometry" />
        </mxCell>
        <mxCell id="oYj9W8fX7MH2I0G9VKwg-197" value="&lt;font style=&quot;font-size: 15px;&quot;&gt;&lt;b&gt;&lt;u&gt;▶進行中のスレッド：&lt;/u&gt;&lt;br&gt;・～～&lt;br&gt;・～～&lt;br&gt;&lt;/b&gt;&lt;br&gt;&lt;/font&gt;" style="text;html=1;strokeColor=none;fillColor=none;align=left;verticalAlign=middle;whiteSpace=wrap;rounded=0;fontSize=15;fontFamily=Helvetica;fontColor=default;" vertex="1" parent="1">
          <mxGeometry x="800" y="688" width="161" height="88.85" as="geometry" />
        </mxCell>
        <mxCell id="oYj9W8fX7MH2I0G9VKwg-201" style="edgeStyle=orthogonalEdgeStyle;shape=connector;rounded=0;orthogonalLoop=1;jettySize=auto;html=1;labelBackgroundColor=default;strokeColor=#FF3333;align=center;verticalAlign=middle;fontFamily=Helvetica;fontSize=11;fontColor=default;endArrow=classic;exitX=0.5;exitY=1;exitDx=0;exitDy=0;" edge="1" parent="1" source="oYj9W8fX7MH2I0G9VKwg-198" target="oYj9W8fX7MH2I0G9VKwg-200">
          <mxGeometry relative="1" as="geometry">
            <Array as="points">
              <mxPoint x="881" y="835" />
              <mxPoint x="635" y="835" />
            </Array>
          </mxGeometry>
        </mxCell>
        <mxCell id="oYj9W8fX7MH2I0G9VKwg-198" value="&lt;font style=&quot;font-size: 15px;&quot;&gt;スレッド作成&lt;/font&gt;" style="rounded=1;whiteSpace=wrap;html=1;fontFamily=Helvetica;fontSize=11;fillColor=#ffe6cc;strokeColor=#d79b00;arcSize=36;" vertex="1" parent="1">
          <mxGeometry x="820.5" y="759" width="120" height="25" as="geometry" />
        </mxCell>
        <mxCell id="oYj9W8fX7MH2I0G9VKwg-200" value="&lt;b&gt;（４）スレッド作成&lt;br&gt;&lt;/b&gt;" style="text;html=1;align=left;verticalAlign=middle;resizable=0;points=[];autosize=1;strokeColor=none;fillColor=none;fontSize=14;fontFamily=Helvetica;fontColor=default;" vertex="1" parent="1">
          <mxGeometry x="541" y="865" width="144" height="29" as="geometry" />
        </mxCell>
        <mxCell id="oYj9W8fX7MH2I0G9VKwg-202" value="" style="rounded=1;whiteSpace=wrap;html=1;fontFamily=Helvetica;fontSize=11;fontColor=#333333;fillColor=#f5f5f5;strokeColor=none;" vertex="1" parent="1">
          <mxGeometry x="535" y="897" width="459" height="398" as="geometry" />
        </mxCell>
        <mxCell id="oYj9W8fX7MH2I0G9VKwg-204" value="&lt;b&gt;タイトル&lt;/b&gt;" style="text;html=1;strokeColor=none;fillColor=none;align=left;verticalAlign=middle;whiteSpace=wrap;rounded=0;fontSize=15;fontFamily=Helvetica;fontColor=default;fontStyle=4" vertex="1" parent="1">
          <mxGeometry x="565" y="909" width="163" height="30" as="geometry" />
        </mxCell>
        <mxCell id="oYj9W8fX7MH2I0G9VKwg-206" value="" style="rounded=1;whiteSpace=wrap;html=1;fontFamily=Helvetica;fontSize=11;fontColor=default;arcSize=10;" vertex="1" parent="1">
          <mxGeometry x="565" y="939" width="377" height="39" as="geometry" />
        </mxCell>
        <mxCell id="oYj9W8fX7MH2I0G9VKwg-207" value="&lt;b&gt;宛先&lt;/b&gt;" style="text;html=1;strokeColor=none;fillColor=none;align=left;verticalAlign=middle;whiteSpace=wrap;rounded=0;fontSize=15;fontFamily=Helvetica;fontColor=default;fontStyle=4" vertex="1" parent="1">
          <mxGeometry x="563" y="989" width="163" height="30" as="geometry" />
        </mxCell>
        <mxCell id="oYj9W8fX7MH2I0G9VKwg-211" value="" style="rounded=1;whiteSpace=wrap;html=1;fontFamily=Helvetica;fontSize=11;fontColor=default;" vertex="1" parent="1">
          <mxGeometry x="565" y="1122" width="377" height="76" as="geometry" />
        </mxCell>
        <mxCell id="oYj9W8fX7MH2I0G9VKwg-212" value="&lt;b&gt;本文&lt;/b&gt;" style="text;html=1;strokeColor=none;fillColor=none;align=left;verticalAlign=middle;whiteSpace=wrap;rounded=0;fontSize=15;fontFamily=Helvetica;fontColor=default;fontStyle=4" vertex="1" parent="1">
          <mxGeometry x="563" y="1094" width="163" height="30" as="geometry" />
        </mxCell>
        <mxCell id="oYj9W8fX7MH2I0G9VKwg-217" value="&lt;b&gt;タスク&lt;/b&gt;" style="text;html=1;strokeColor=none;fillColor=none;align=left;verticalAlign=middle;whiteSpace=wrap;rounded=0;fontSize=15;fontFamily=Helvetica;fontColor=default;fontStyle=4" vertex="1" parent="1">
          <mxGeometry x="719" y="989" width="163" height="30" as="geometry" />
        </mxCell>
        <mxCell id="oYj9W8fX7MH2I0G9VKwg-219" value="" style="rounded=1;whiteSpace=wrap;html=1;fontFamily=Helvetica;fontSize=11;fontColor=default;arcSize=10;" vertex="1" parent="1">
          <mxGeometry x="565" y="1022" width="122" height="39" as="geometry" />
        </mxCell>
        <mxCell id="oYj9W8fX7MH2I0G9VKwg-220" value="" style="rounded=1;whiteSpace=wrap;html=1;fontFamily=Helvetica;fontSize=11;fontColor=default;arcSize=10;" vertex="1" parent="1">
          <mxGeometry x="716" y="1022" width="131" height="39" as="geometry" />
        </mxCell>
        <mxCell id="oYj9W8fX7MH2I0G9VKwg-221" value="&lt;font style=&quot;font-size: 14px;&quot;&gt;&lt;b style=&quot;font-size: 14px;&quot;&gt;&lt;font style=&quot;font-size: 14px;&quot;&gt;～～調査 ▼&lt;/font&gt;&lt;/b&gt;&lt;b style=&quot;border-color: var(--border-color); font-size: 14px;&quot;&gt;&lt;br style=&quot;border-color: var(--border-color); font-size: 14px;&quot;&gt;&lt;/b&gt;&lt;/font&gt;" style="text;html=1;strokeColor=none;fillColor=none;align=center;verticalAlign=middle;whiteSpace=wrap;rounded=0;fontSize=14;fontFamily=Helvetica;fontColor=default;" vertex="1" parent="1">
          <mxGeometry x="725" y="1026.0700000000002" width="113" height="30.85" as="geometry" />
        </mxCell>
        <mxCell id="oYj9W8fX7MH2I0G9VKwg-222" value="&lt;font color=&quot;#ea6b66&quot; style=&quot;font-size: 12px;&quot;&gt;&lt;span&gt;タスク選択からリンクしたら自動選択&lt;br&gt;&lt;/span&gt;&lt;/font&gt;&lt;div style=&quot;font-size: 12px;&quot;&gt;&lt;span style=&quot;background-color: initial;&quot;&gt;&lt;font color=&quot;#ea6b66&quot; style=&quot;font-size: 12px;&quot;&gt;&lt;span&gt;（他のタスク選択可能）&lt;/span&gt;&lt;/font&gt;&lt;/span&gt;&lt;/div&gt;" style="text;html=1;align=left;verticalAlign=middle;resizable=0;points=[];autosize=1;strokeColor=none;fillColor=none;fontSize=11;fontFamily=Helvetica;fontColor=default;fontStyle=1" vertex="1" parent="1">
          <mxGeometry x="771" y="981" width="222" height="41" as="geometry" />
        </mxCell>
        <mxCell id="oYj9W8fX7MH2I0G9VKwg-225" value="&lt;font style=&quot;font-size: 14px;&quot;&gt;&lt;b style=&quot;font-size: 14px;&quot;&gt;&lt;font style=&quot;font-size: 14px;&quot;&gt;鈴木さん ▼&lt;/font&gt;&lt;/b&gt;&lt;b style=&quot;border-color: var(--border-color); font-size: 14px;&quot;&gt;&lt;br style=&quot;border-color: var(--border-color); font-size: 14px;&quot;&gt;&lt;/b&gt;&lt;/font&gt;" style="text;html=1;strokeColor=none;fillColor=none;align=center;verticalAlign=middle;whiteSpace=wrap;rounded=0;fontSize=14;fontFamily=Helvetica;fontColor=default;" vertex="1" parent="1">
          <mxGeometry x="569.5" y="1026.0700000000002" width="113" height="30.85" as="geometry" />
        </mxCell>
        <mxCell id="oYj9W8fX7MH2I0G9VKwg-226" value="&lt;font color=&quot;#ea6b66&quot;&gt;&lt;span style=&quot;font-size: 12px;&quot;&gt;プロジェクトに参加している&lt;br&gt;SEからプルダウン選択できる&lt;/span&gt;&lt;/font&gt;" style="text;html=1;align=left;verticalAlign=middle;resizable=0;points=[];autosize=1;strokeColor=none;fillColor=none;fontSize=11;fontFamily=Helvetica;fontColor=default;fontStyle=1" vertex="1" parent="1">
          <mxGeometry x="627.5" y="1061" width="178" height="41" as="geometry" />
        </mxCell>
        <mxCell id="oYj9W8fX7MH2I0G9VKwg-227" value="&lt;font style=&quot;font-size: 15px;&quot;&gt;スレッド作成&lt;/font&gt;" style="rounded=1;whiteSpace=wrap;html=1;fontFamily=Helvetica;fontSize=11;fillColor=#ffe6cc;strokeColor=#d79b00;arcSize=36;" vertex="1" parent="1">
          <mxGeometry x="822" y="1222" width="120" height="25" as="geometry" />
        </mxCell>
        <mxCell id="oYj9W8fX7MH2I0G9VKwg-228" value="&lt;b&gt;（５）スレッド作成&lt;br&gt;&lt;/b&gt;" style="text;html=1;align=left;verticalAlign=middle;resizable=0;points=[];autosize=1;strokeColor=none;fillColor=none;fontSize=14;fontFamily=Helvetica;fontColor=default;" vertex="1" parent="1">
          <mxGeometry x="1095" y="379" width="144" height="29" as="geometry" />
        </mxCell>
        <mxCell id="oYj9W8fX7MH2I0G9VKwg-229" value="" style="rounded=1;whiteSpace=wrap;html=1;fontFamily=Helvetica;fontSize=11;fontColor=#333333;fillColor=#f5f5f5;strokeColor=none;strokeWidth=1;" vertex="1" parent="1">
          <mxGeometry x="1089" y="411" width="459" height="670" as="geometry" />
        </mxCell>
        <mxCell id="oYj9W8fX7MH2I0G9VKwg-231" value="" style="rounded=1;whiteSpace=wrap;html=1;fontFamily=Helvetica;fontSize=11;fontColor=default;arcSize=32;" vertex="1" parent="1">
          <mxGeometry x="1117" y="1003.25" width="313" height="47.5" as="geometry" />
        </mxCell>
        <mxCell id="oYj9W8fX7MH2I0G9VKwg-233" value="" style="rounded=1;whiteSpace=wrap;html=1;fontFamily=Helvetica;fontSize=11;fontColor=default;" vertex="1" parent="1">
          <mxGeometry x="1117" y="480" width="418" height="105" as="geometry" />
        </mxCell>
        <mxCell id="oYj9W8fX7MH2I0G9VKwg-234" value="田中 太郎　to鈴木 30minutes age" style="text;html=1;strokeColor=none;fillColor=none;align=left;verticalAlign=middle;whiteSpace=wrap;rounded=0;fontSize=15;fontFamily=Helvetica;fontColor=default;fontStyle=0" vertex="1" parent="1">
          <mxGeometry x="1124" y="480" width="280" height="30" as="geometry" />
        </mxCell>
        <mxCell id="oYj9W8fX7MH2I0G9VKwg-235" value="&lt;b&gt;～～について確認（タスク：～～調査）&lt;/b&gt;" style="text;html=1;strokeColor=none;fillColor=none;align=left;verticalAlign=middle;whiteSpace=wrap;rounded=0;fontSize=15;fontFamily=Helvetica;fontColor=default;fontStyle=4" vertex="1" parent="1">
          <mxGeometry x="1120" y="439" width="276" height="30" as="geometry" />
        </mxCell>
        <mxCell id="oYj9W8fX7MH2I0G9VKwg-244" value="&lt;b&gt;～～について確認&lt;/b&gt;" style="text;html=1;strokeColor=none;fillColor=none;align=left;verticalAlign=middle;whiteSpace=wrap;rounded=0;fontSize=15;fontFamily=Helvetica;fontColor=default;fontStyle=0" vertex="1" parent="1">
          <mxGeometry x="578.5" y="944" width="276" height="30" as="geometry" />
        </mxCell>
        <mxCell id="oYj9W8fX7MH2I0G9VKwg-245" value="&lt;span&gt;～～は●●の理解でよろしいでしょうか？&lt;/span&gt;" style="text;html=1;strokeColor=none;fillColor=none;align=left;verticalAlign=middle;whiteSpace=wrap;rounded=0;fontSize=15;fontFamily=Helvetica;fontColor=default;fontStyle=0" vertex="1" parent="1">
          <mxGeometry x="611" y="1145" width="280" height="30" as="geometry" />
        </mxCell>
        <mxCell id="oYj9W8fX7MH2I0G9VKwg-246" value="" style="endArrow=none;html=1;rounded=0;labelBackgroundColor=default;strokeColor=#000000;align=center;verticalAlign=middle;fontFamily=Helvetica;fontSize=11;fontColor=default;shape=connector;edgeStyle=orthogonalEdgeStyle;entryX=1;entryY=0.25;entryDx=0;entryDy=0;exitX=0;exitY=0.25;exitDx=0;exitDy=0;strokeWidth=1;" edge="1" parent="1" source="oYj9W8fX7MH2I0G9VKwg-233" target="oYj9W8fX7MH2I0G9VKwg-233">
          <mxGeometry width="50" height="50" relative="1" as="geometry">
            <mxPoint x="1134" y="629" as="sourcePoint" />
            <mxPoint x="1184" y="579" as="targetPoint" />
          </mxGeometry>
        </mxCell>
        <mxCell id="oYj9W8fX7MH2I0G9VKwg-247" value="&lt;span&gt;～～は●●の理解でよろしいでしょうか？&lt;/span&gt;" style="text;html=1;strokeColor=none;fillColor=none;align=left;verticalAlign=middle;whiteSpace=wrap;rounded=0;fontSize=15;fontFamily=Helvetica;fontColor=default;fontStyle=0" vertex="1" parent="1">
          <mxGeometry x="1121.5" y="526" width="280" height="30" as="geometry" />
        </mxCell>
        <mxCell id="oYj9W8fX7MH2I0G9VKwg-253" value="" style="rounded=1;whiteSpace=wrap;html=1;fontFamily=Helvetica;fontSize=11;fontColor=default;" vertex="1" parent="1">
          <mxGeometry x="1279" y="626" width="254" height="107.5" as="geometry" />
        </mxCell>
        <mxCell id="oYj9W8fX7MH2I0G9VKwg-254" value="鈴木 三郎　to田中 20minutes age" style="text;html=1;strokeColor=none;fillColor=none;align=left;verticalAlign=middle;whiteSpace=wrap;rounded=0;fontSize=15;fontFamily=Helvetica;fontColor=default;fontStyle=0" vertex="1" parent="1">
          <mxGeometry x="1286" y="626" width="280" height="30" as="geometry" />
        </mxCell>
        <mxCell id="oYj9W8fX7MH2I0G9VKwg-255" value="" style="endArrow=none;html=1;rounded=0;labelBackgroundColor=default;strokeColor=#000000;align=center;verticalAlign=middle;fontFamily=Helvetica;fontSize=11;fontColor=default;shape=connector;edgeStyle=orthogonalEdgeStyle;entryX=1;entryY=0.25;entryDx=0;entryDy=0;exitX=0;exitY=0.25;exitDx=0;exitDy=0;strokeWidth=1;" edge="1" source="oYj9W8fX7MH2I0G9VKwg-253" target="oYj9W8fX7MH2I0G9VKwg-253" parent="1">
          <mxGeometry width="50" height="50" relative="1" as="geometry">
            <mxPoint x="1296" y="775" as="sourcePoint" />
            <mxPoint x="1346" y="725" as="targetPoint" />
          </mxGeometry>
        </mxCell>
        <mxCell id="oYj9W8fX7MH2I0G9VKwg-256" value="&lt;span&gt;●●は検討しましたか？&lt;/span&gt;" style="text;html=1;strokeColor=none;fillColor=none;align=left;verticalAlign=middle;whiteSpace=wrap;rounded=0;fontSize=15;fontFamily=Helvetica;fontColor=default;fontStyle=0" vertex="1" parent="1">
          <mxGeometry x="1284" y="676.25" width="280" height="30" as="geometry" />
        </mxCell>
        <mxCell id="oYj9W8fX7MH2I0G9VKwg-258" value="" style="rounded=1;whiteSpace=wrap;html=1;fontFamily=Helvetica;fontSize=11;fontColor=default;" vertex="1" parent="1">
          <mxGeometry x="1120" y="752" width="254" height="107.5" as="geometry" />
        </mxCell>
        <mxCell id="oYj9W8fX7MH2I0G9VKwg-259" value="田中 太郎　to鈴木 5minutes age" style="text;html=1;strokeColor=none;fillColor=none;align=left;verticalAlign=middle;whiteSpace=wrap;rounded=0;fontSize=15;fontFamily=Helvetica;fontColor=default;fontStyle=0" vertex="1" parent="1">
          <mxGeometry x="1127" y="752" width="280" height="30" as="geometry" />
        </mxCell>
        <mxCell id="oYj9W8fX7MH2I0G9VKwg-260" value="" style="endArrow=none;html=1;rounded=0;labelBackgroundColor=default;strokeColor=#000000;align=center;verticalAlign=middle;fontFamily=Helvetica;fontSize=11;fontColor=default;shape=connector;edgeStyle=orthogonalEdgeStyle;entryX=1;entryY=0.25;entryDx=0;entryDy=0;exitX=0;exitY=0.25;exitDx=0;exitDy=0;strokeWidth=1;" edge="1" source="oYj9W8fX7MH2I0G9VKwg-258" target="oYj9W8fX7MH2I0G9VKwg-258" parent="1">
          <mxGeometry width="50" height="50" relative="1" as="geometry">
            <mxPoint x="1137" y="901" as="sourcePoint" />
            <mxPoint x="1187" y="851" as="targetPoint" />
          </mxGeometry>
        </mxCell>
        <mxCell id="oYj9W8fX7MH2I0G9VKwg-261" value="&lt;span&gt;●●で考えています&lt;/span&gt;" style="text;html=1;strokeColor=none;fillColor=none;align=left;verticalAlign=middle;whiteSpace=wrap;rounded=0;fontSize=15;fontFamily=Helvetica;fontColor=default;fontStyle=0" vertex="1" parent="1">
          <mxGeometry x="1124.5" y="798" width="280" height="30" as="geometry" />
        </mxCell>
        <mxCell id="oYj9W8fX7MH2I0G9VKwg-263" value="&lt;span style=&quot;font-size: 15px;&quot;&gt;送信&lt;/span&gt;" style="rounded=1;whiteSpace=wrap;html=1;fontFamily=Helvetica;fontSize=11;fillColor=#ffe6cc;strokeColor=#d79b00;arcSize=36;" vertex="1" parent="1">
          <mxGeometry x="1440" y="1021.5" width="81" height="25" as="geometry" />
        </mxCell>
        <mxCell id="oYj9W8fX7MH2I0G9VKwg-265" value="&lt;span style=&quot;font-size: 15px;&quot;&gt;解決にする&lt;/span&gt;" style="rounded=1;whiteSpace=wrap;html=1;fontFamily=Helvetica;fontSize=11;fillColor=#ffe6cc;strokeColor=#d79b00;arcSize=36;" vertex="1" parent="1">
          <mxGeometry x="1421" y="443.5" width="81" height="25" as="geometry" />
        </mxCell>
        <mxCell id="oYj9W8fX7MH2I0G9VKwg-267" style="edgeStyle=orthogonalEdgeStyle;shape=connector;rounded=0;orthogonalLoop=1;jettySize=auto;html=1;entryX=0.5;entryY=1;entryDx=0;entryDy=0;labelBackgroundColor=default;strokeColor=#FF3333;align=center;verticalAlign=middle;fontFamily=Helvetica;fontSize=11;fontColor=default;endArrow=classic;" edge="1" parent="1" source="oYj9W8fX7MH2I0G9VKwg-266" target="oYj9W8fX7MH2I0G9VKwg-118">
          <mxGeometry relative="1" as="geometry" />
        </mxCell>
        <mxCell id="oYj9W8fX7MH2I0G9VKwg-266" value="&lt;font style=&quot;font-size: 14px;&quot;&gt;スレッド一覧&lt;br&gt;ページ&lt;br&gt;&lt;/font&gt;" style="rounded=1;whiteSpace=wrap;html=1;fillColor=#dae8fc;strokeColor=#6c8ebf;" vertex="1" parent="1">
          <mxGeometry x="464" y="249" width="104" height="49" as="geometry" />
        </mxCell>
        <mxCell id="oYj9W8fX7MH2I0G9VKwg-271" value="&lt;font color=&quot;#ea6b66&quot;&gt;&lt;span style=&quot;font-size: 12px;&quot;&gt;&lt;b&gt;プルダウンで&lt;br&gt;ステータス変更できる&lt;/b&gt;&lt;/span&gt;&lt;/font&gt;" style="text;html=1;strokeColor=none;fillColor=none;align=left;verticalAlign=middle;whiteSpace=wrap;rounded=0;fontSize=15;fontFamily=Helvetica;fontColor=default;" vertex="1" parent="1">
          <mxGeometry x="895" y="634.5" width="143" height="39" as="geometry" />
        </mxCell>
        <mxCell id="oYj9W8fX7MH2I0G9VKwg-272" value="" style="endArrow=none;html=1;rounded=0;labelBackgroundColor=default;strokeColor=#000000;align=center;verticalAlign=middle;fontFamily=Helvetica;fontSize=11;fontColor=default;shape=connector;edgeStyle=orthogonalEdgeStyle;exitX=0.001;exitY=0.295;exitDx=0;exitDy=0;exitPerimeter=0;entryX=1.002;entryY=0.295;entryDx=0;entryDy=0;entryPerimeter=0;" edge="1" parent="1" source="oYj9W8fX7MH2I0G9VKwg-229" target="oYj9W8fX7MH2I0G9VKwg-229">
          <mxGeometry width="50" height="50" relative="1" as="geometry">
            <mxPoint x="1141" y="776" as="sourcePoint" />
            <mxPoint x="1191" y="726" as="targetPoint" />
          </mxGeometry>
        </mxCell>
        <mxCell id="oYj9W8fX7MH2I0G9VKwg-274" value="&lt;font color=&quot;#ea6b66&quot;&gt;&lt;span style=&quot;font-size: 12px;&quot;&gt;&lt;b&gt;スクロール時は&lt;br&gt;ここから下だけ動く&lt;/b&gt;&lt;/span&gt;&lt;/font&gt;" style="text;html=1;strokeColor=none;fillColor=none;align=left;verticalAlign=middle;whiteSpace=wrap;rounded=0;fontSize=15;fontFamily=Helvetica;fontColor=default;" vertex="1" parent="1">
          <mxGeometry x="1537" y="617" width="143" height="39" as="geometry" />
        </mxCell>
        <mxCell id="oYj9W8fX7MH2I0G9VKwg-275" value="" style="rounded=1;whiteSpace=wrap;html=1;fontFamily=Helvetica;fontSize=11;fontColor=#333333;fillColor=#f5f5f5;strokeColor=none;" vertex="1" parent="1">
          <mxGeometry x="1089" y="1161" width="459" height="274" as="geometry" />
        </mxCell>
        <mxCell id="oYj9W8fX7MH2I0G9VKwg-276" value="&lt;b&gt;▶未読あり&lt;/b&gt;" style="text;html=1;strokeColor=none;fillColor=none;align=left;verticalAlign=middle;whiteSpace=wrap;rounded=0;fontSize=15;fontFamily=Helvetica;fontColor=default;fontStyle=4" vertex="1" parent="1">
          <mxGeometry x="1121.5" y="1232" width="163" height="30" as="geometry" />
        </mxCell>
        <mxCell id="oYj9W8fX7MH2I0G9VKwg-289" value="&lt;b style=&quot;font-size: 13px;&quot;&gt;・～～について質問&lt;br&gt;・●●の詳細確認&lt;br&gt;&lt;/b&gt;" style="text;html=1;strokeColor=none;fillColor=none;align=left;verticalAlign=middle;whiteSpace=wrap;rounded=0;fontSize=15;fontFamily=Helvetica;fontColor=default;fontStyle=0" vertex="1" parent="1">
          <mxGeometry x="1149.5" y="1262" width="276" height="61" as="geometry" />
        </mxCell>
        <mxCell id="oYj9W8fX7MH2I0G9VKwg-291" value="&lt;b&gt;（６）スレッド一覧&lt;br&gt;&lt;/b&gt;" style="text;html=1;align=left;verticalAlign=middle;resizable=0;points=[];autosize=1;strokeColor=none;fillColor=none;fontSize=14;fontFamily=Helvetica;fontColor=default;" vertex="1" parent="1">
          <mxGeometry x="1121.5" y="1119" width="144" height="29" as="geometry" />
        </mxCell>
        <mxCell id="oYj9W8fX7MH2I0G9VKwg-293" value="&lt;b&gt;▶未読なし&lt;/b&gt;" style="text;html=1;strokeColor=none;fillColor=none;align=left;verticalAlign=middle;whiteSpace=wrap;rounded=0;fontSize=15;fontFamily=Helvetica;fontColor=default;fontStyle=4" vertex="1" parent="1">
          <mxGeometry x="1117" y="1338" width="163" height="30" as="geometry" />
        </mxCell>
        <mxCell id="oYj9W8fX7MH2I0G9VKwg-294" value="&lt;b style=&quot;font-size: 13px;&quot;&gt;・～～について質問&lt;br&gt;・●●の詳細確認&lt;br&gt;&lt;/b&gt;" style="text;html=1;strokeColor=none;fillColor=none;align=left;verticalAlign=middle;whiteSpace=wrap;rounded=0;fontSize=15;fontFamily=Helvetica;fontColor=default;fontStyle=0" vertex="1" parent="1">
          <mxGeometry x="1134" y="1372" width="276" height="61" as="geometry" />
        </mxCell>
        <mxCell id="oYj9W8fX7MH2I0G9VKwg-295" value="" style="rounded=1;whiteSpace=wrap;html=1;fontFamily=Helvetica;fontSize=11;fontColor=default;arcSize=32;" vertex="1" parent="1">
          <mxGeometry x="1130" y="1178" width="272" height="30" as="geometry" />
        </mxCell>
        <mxCell id="oYj9W8fX7MH2I0G9VKwg-296" value="&lt;span style=&quot;font-size: 15px;&quot;&gt;検索&lt;/span&gt;" style="rounded=1;whiteSpace=wrap;html=1;fontFamily=Helvetica;fontSize=11;fillColor=#ffe6cc;strokeColor=#d79b00;arcSize=36;" vertex="1" parent="1">
          <mxGeometry x="1407" y="1180.5" width="81" height="25" as="geometry" />
        </mxCell>
        <mxCell id="oYj9W8fX7MH2I0G9VKwg-297" value="&lt;b style=&quot;font-size: 13px;&quot;&gt;解決済みを含む&lt;br&gt;&lt;/b&gt;" style="text;html=1;strokeColor=none;fillColor=none;align=left;verticalAlign=middle;whiteSpace=wrap;rounded=0;fontSize=15;fontFamily=Helvetica;fontColor=default;fontStyle=0" vertex="1" parent="1">
          <mxGeometry x="1364" y="1223.5" width="104" height="20" as="geometry" />
        </mxCell>
        <mxCell id="oYj9W8fX7MH2I0G9VKwg-298" value="" style="rounded=1;whiteSpace=wrap;html=1;fontFamily=Helvetica;fontSize=11;fontColor=default;arcSize=32;" vertex="1" parent="1">
          <mxGeometry x="1340" y="1222" width="24" height="19" as="geometry" />
        </mxCell>
        <mxCell id="oYj9W8fX7MH2I0G9VKwg-299" value="&lt;b style=&quot;font-size: 13px;&quot;&gt;✓&lt;br&gt;&lt;/b&gt;" style="text;html=1;strokeColor=none;fillColor=none;align=left;verticalAlign=middle;whiteSpace=wrap;rounded=0;fontSize=15;fontFamily=Helvetica;fontColor=default;fontStyle=0" vertex="1" parent="1">
          <mxGeometry x="1344" y="1221" width="23" height="20" as="geometry" />
        </mxCell>
        <mxCell id="oYj9W8fX7MH2I0G9VKwg-302" value="&lt;font color=&quot;#ea6b66&quot;&gt;&lt;span style=&quot;font-size: 12px;&quot;&gt;デフォルトでは&lt;br&gt;「未解決」のスレッドを表示&lt;/span&gt;&lt;/font&gt;" style="text;html=1;align=left;verticalAlign=middle;resizable=0;points=[];autosize=1;strokeColor=none;fillColor=none;fontSize=11;fontFamily=Helvetica;fontColor=default;fontStyle=1" vertex="1" parent="1">
          <mxGeometry x="1367" y="1282" width="174" height="41" as="geometry" />
        </mxCell>
        <mxCell id="oYj9W8fX7MH2I0G9VKwg-304" value="&lt;font color=&quot;#ea6b66&quot;&gt;&lt;span style=&quot;font-size: 12px;&quot;&gt;&lt;b&gt;クリックすると、&lt;br&gt;詳細が表示される&lt;/b&gt;&lt;/span&gt;&lt;/font&gt;" style="text;html=1;strokeColor=none;fillColor=none;align=left;verticalAlign=middle;whiteSpace=wrap;rounded=0;fontSize=15;fontFamily=Helvetica;fontColor=default;" vertex="1" parent="1">
          <mxGeometry x="706" y="494.85" width="143" height="39" as="geometry" />
        </mxCell>
        <mxCell id="oYj9W8fX7MH2I0G9VKwg-307" value="" style="endArrow=classic;html=1;rounded=0;labelBackgroundColor=default;strokeColor=#EA6B66;align=center;verticalAlign=middle;fontFamily=Helvetica;fontSize=11;fontColor=default;shape=connector;exitX=0.68;exitY=0.316;exitDx=0;exitDy=0;exitPerimeter=0;entryX=0.088;entryY=0.469;entryDx=0;entryDy=0;entryPerimeter=0;strokeWidth=2;" edge="1" parent="1" source="oYj9W8fX7MH2I0G9VKwg-179" target="oYj9W8fX7MH2I0G9VKwg-195">
          <mxGeometry width="50" height="50" relative="1" as="geometry">
            <mxPoint x="738" y="618" as="sourcePoint" />
            <mxPoint x="788" y="568" as="targetPoint" />
          </mxGeometry>
        </mxCell>
      </root>
    </mxGraphModel>
  </diagram>
  <diagram id="cZnkh8yF2SJBPJB--Aib" name="ER図">
    <mxGraphModel dx="1006" dy="412" grid="0" gridSize="10" guides="1" tooltips="1" connect="1" arrows="1" fold="1" page="1" pageScale="1" pageWidth="827" pageHeight="1169" math="0" shadow="0">
      <root>
        <mxCell id="0" />
        <mxCell id="1" parent="0" />
        <mxCell id="N2mJ7zz6eSVapSQhVs42-85" style="edgeStyle=orthogonalEdgeStyle;shape=connector;rounded=0;orthogonalLoop=1;jettySize=auto;html=1;entryX=0.5;entryY=0;entryDx=0;entryDy=0;labelBackgroundColor=default;strokeColor=#FF3333;align=center;verticalAlign=middle;fontFamily=Helvetica;fontSize=11;fontColor=default;endArrow=ERmany;endFill=0;strokeWidth=2;" edge="1" parent="1" source="N2mJ7zz6eSVapSQhVs42-59" target="N2mJ7zz6eSVapSQhVs42-72">
          <mxGeometry relative="1" as="geometry" />
        </mxCell>
        <mxCell id="N2mJ7zz6eSVapSQhVs42-161" style="edgeStyle=orthogonalEdgeStyle;shape=connector;rounded=0;orthogonalLoop=1;jettySize=auto;html=1;entryX=0;entryY=0.5;entryDx=0;entryDy=0;labelBackgroundColor=default;strokeColor=#FF3333;strokeWidth=2;align=center;verticalAlign=middle;fontFamily=Helvetica;fontSize=11;fontColor=default;endArrow=ERmany;endFill=0;" edge="1" parent="1" source="N2mJ7zz6eSVapSQhVs42-59" target="N2mJ7zz6eSVapSQhVs42-149">
          <mxGeometry relative="1" as="geometry" />
        </mxCell>
        <mxCell id="N2mJ7zz6eSVapSQhVs42-59" value="プロジェクト Mst" style="shape=table;startSize=30;container=1;collapsible=1;childLayout=tableLayout;fixedRows=1;rowLines=0;fontStyle=1;align=center;resizeLast=1;html=1;fontFamily=Helvetica;fontSize=15;fontColor=#333333;fillColor=#f5f5f5;strokeColor=#666666;" vertex="1" parent="1">
          <mxGeometry x="30" y="446" width="237" height="150" as="geometry" />
        </mxCell>
        <mxCell id="N2mJ7zz6eSVapSQhVs42-60" value="" style="shape=tableRow;horizontal=0;startSize=0;swimlaneHead=0;swimlaneBody=0;fillColor=none;collapsible=0;dropTarget=0;points=[[0,0.5],[1,0.5]];portConstraint=eastwest;top=0;left=0;right=0;bottom=1;fontFamily=Helvetica;fontSize=15;fontColor=default;" vertex="1" parent="N2mJ7zz6eSVapSQhVs42-59">
          <mxGeometry y="30" width="237" height="30" as="geometry" />
        </mxCell>
        <mxCell id="N2mJ7zz6eSVapSQhVs42-61" value="PK" style="shape=partialRectangle;connectable=0;fillColor=none;top=0;left=0;bottom=0;right=0;fontStyle=1;overflow=hidden;whiteSpace=wrap;html=1;fontFamily=Helvetica;fontSize=15;fontColor=default;" vertex="1" parent="N2mJ7zz6eSVapSQhVs42-60">
          <mxGeometry width="30" height="30" as="geometry">
            <mxRectangle width="30" height="30" as="alternateBounds" />
          </mxGeometry>
        </mxCell>
        <mxCell id="N2mJ7zz6eSVapSQhVs42-62" value="プロジェクトID" style="shape=partialRectangle;connectable=0;fillColor=none;top=0;left=0;bottom=0;right=0;align=left;spacingLeft=6;fontStyle=5;overflow=hidden;whiteSpace=wrap;html=1;fontFamily=Helvetica;fontSize=15;fontColor=default;" vertex="1" parent="N2mJ7zz6eSVapSQhVs42-60">
          <mxGeometry x="30" width="207" height="30" as="geometry">
            <mxRectangle width="207" height="30" as="alternateBounds" />
          </mxGeometry>
        </mxCell>
        <mxCell id="N2mJ7zz6eSVapSQhVs42-63" value="" style="shape=tableRow;horizontal=0;startSize=0;swimlaneHead=0;swimlaneBody=0;fillColor=none;collapsible=0;dropTarget=0;points=[[0,0.5],[1,0.5]];portConstraint=eastwest;top=0;left=0;right=0;bottom=0;fontFamily=Helvetica;fontSize=15;fontColor=default;" vertex="1" parent="N2mJ7zz6eSVapSQhVs42-59">
          <mxGeometry y="60" width="237" height="30" as="geometry" />
        </mxCell>
        <mxCell id="N2mJ7zz6eSVapSQhVs42-64" value="" style="shape=partialRectangle;connectable=0;fillColor=none;top=0;left=0;bottom=0;right=0;editable=1;overflow=hidden;whiteSpace=wrap;html=1;fontFamily=Helvetica;fontSize=15;fontColor=default;" vertex="1" parent="N2mJ7zz6eSVapSQhVs42-63">
          <mxGeometry width="30" height="30" as="geometry">
            <mxRectangle width="30" height="30" as="alternateBounds" />
          </mxGeometry>
        </mxCell>
        <mxCell id="N2mJ7zz6eSVapSQhVs42-65" value="プロジェクト名 char" style="shape=partialRectangle;connectable=0;fillColor=none;top=0;left=0;bottom=0;right=0;align=left;spacingLeft=6;overflow=hidden;whiteSpace=wrap;html=1;fontFamily=Helvetica;fontSize=15;fontColor=default;" vertex="1" parent="N2mJ7zz6eSVapSQhVs42-63">
          <mxGeometry x="30" width="207" height="30" as="geometry">
            <mxRectangle width="207" height="30" as="alternateBounds" />
          </mxGeometry>
        </mxCell>
        <mxCell id="N2mJ7zz6eSVapSQhVs42-66" value="" style="shape=tableRow;horizontal=0;startSize=0;swimlaneHead=0;swimlaneBody=0;fillColor=none;collapsible=0;dropTarget=0;points=[[0,0.5],[1,0.5]];portConstraint=eastwest;top=0;left=0;right=0;bottom=0;fontFamily=Helvetica;fontSize=15;fontColor=default;" vertex="1" parent="N2mJ7zz6eSVapSQhVs42-59">
          <mxGeometry y="90" width="237" height="30" as="geometry" />
        </mxCell>
        <mxCell id="N2mJ7zz6eSVapSQhVs42-67" value="" style="shape=partialRectangle;connectable=0;fillColor=none;top=0;left=0;bottom=0;right=0;editable=1;overflow=hidden;whiteSpace=wrap;html=1;fontFamily=Helvetica;fontSize=15;fontColor=default;" vertex="1" parent="N2mJ7zz6eSVapSQhVs42-66">
          <mxGeometry width="30" height="30" as="geometry">
            <mxRectangle width="30" height="30" as="alternateBounds" />
          </mxGeometry>
        </mxCell>
        <mxCell id="N2mJ7zz6eSVapSQhVs42-68" value="開始日 (yyyy/mm/dd)" style="shape=partialRectangle;connectable=0;fillColor=none;top=0;left=0;bottom=0;right=0;align=left;spacingLeft=6;overflow=hidden;whiteSpace=wrap;html=1;fontFamily=Helvetica;fontSize=15;fontColor=default;" vertex="1" parent="N2mJ7zz6eSVapSQhVs42-66">
          <mxGeometry x="30" width="207" height="30" as="geometry">
            <mxRectangle width="207" height="30" as="alternateBounds" />
          </mxGeometry>
        </mxCell>
        <mxCell id="N2mJ7zz6eSVapSQhVs42-69" value="" style="shape=tableRow;horizontal=0;startSize=0;swimlaneHead=0;swimlaneBody=0;fillColor=none;collapsible=0;dropTarget=0;points=[[0,0.5],[1,0.5]];portConstraint=eastwest;top=0;left=0;right=0;bottom=0;fontFamily=Helvetica;fontSize=15;fontColor=default;" vertex="1" parent="N2mJ7zz6eSVapSQhVs42-59">
          <mxGeometry y="120" width="237" height="30" as="geometry" />
        </mxCell>
        <mxCell id="N2mJ7zz6eSVapSQhVs42-70" value="" style="shape=partialRectangle;connectable=0;fillColor=none;top=0;left=0;bottom=0;right=0;editable=1;overflow=hidden;whiteSpace=wrap;html=1;fontFamily=Helvetica;fontSize=15;fontColor=default;" vertex="1" parent="N2mJ7zz6eSVapSQhVs42-69">
          <mxGeometry width="30" height="30" as="geometry">
            <mxRectangle width="30" height="30" as="alternateBounds" />
          </mxGeometry>
        </mxCell>
        <mxCell id="N2mJ7zz6eSVapSQhVs42-71" value="完了予定日 (yyyy/mm/dd)" style="shape=partialRectangle;connectable=0;fillColor=none;top=0;left=0;bottom=0;right=0;align=left;spacingLeft=6;overflow=hidden;whiteSpace=wrap;html=1;fontFamily=Helvetica;fontSize=15;fontColor=default;" vertex="1" parent="N2mJ7zz6eSVapSQhVs42-69">
          <mxGeometry x="30" width="207" height="30" as="geometry">
            <mxRectangle width="207" height="30" as="alternateBounds" />
          </mxGeometry>
        </mxCell>
        <mxCell id="N2mJ7zz6eSVapSQhVs42-72" value="マイルストーン Tbl" style="shape=table;startSize=30;container=1;collapsible=1;childLayout=tableLayout;fixedRows=1;rowLines=0;fontStyle=1;align=center;resizeLast=1;html=1;fontFamily=Helvetica;fontSize=15;fontColor=#333333;fillColor=#f5f5f5;strokeColor=#666666;" vertex="1" parent="1">
          <mxGeometry x="30" y="722" width="237" height="181" as="geometry" />
        </mxCell>
        <mxCell id="N2mJ7zz6eSVapSQhVs42-73" value="" style="shape=tableRow;horizontal=0;startSize=0;swimlaneHead=0;swimlaneBody=0;fillColor=none;collapsible=0;dropTarget=0;points=[[0,0.5],[1,0.5]];portConstraint=eastwest;top=0;left=0;right=0;bottom=1;fontFamily=Helvetica;fontSize=15;fontColor=default;" vertex="1" parent="N2mJ7zz6eSVapSQhVs42-72">
          <mxGeometry y="30" width="237" height="30" as="geometry" />
        </mxCell>
        <mxCell id="N2mJ7zz6eSVapSQhVs42-74" value="PK" style="shape=partialRectangle;connectable=0;fillColor=none;top=0;left=0;bottom=0;right=0;fontStyle=1;overflow=hidden;whiteSpace=wrap;html=1;fontFamily=Helvetica;fontSize=15;fontColor=default;" vertex="1" parent="N2mJ7zz6eSVapSQhVs42-73">
          <mxGeometry width="30" height="30" as="geometry">
            <mxRectangle width="30" height="30" as="alternateBounds" />
          </mxGeometry>
        </mxCell>
        <mxCell id="N2mJ7zz6eSVapSQhVs42-75" value="マイルストーンID" style="shape=partialRectangle;connectable=0;fillColor=none;top=0;left=0;bottom=0;right=0;align=left;spacingLeft=6;fontStyle=5;overflow=hidden;whiteSpace=wrap;html=1;fontFamily=Helvetica;fontSize=15;fontColor=default;" vertex="1" parent="N2mJ7zz6eSVapSQhVs42-73">
          <mxGeometry x="30" width="207" height="30" as="geometry">
            <mxRectangle width="207" height="30" as="alternateBounds" />
          </mxGeometry>
        </mxCell>
        <mxCell id="N2mJ7zz6eSVapSQhVs42-76" value="" style="shape=tableRow;horizontal=0;startSize=0;swimlaneHead=0;swimlaneBody=0;fillColor=none;collapsible=0;dropTarget=0;points=[[0,0.5],[1,0.5]];portConstraint=eastwest;top=0;left=0;right=0;bottom=0;fontFamily=Helvetica;fontSize=15;fontColor=default;" vertex="1" parent="N2mJ7zz6eSVapSQhVs42-72">
          <mxGeometry y="60" width="237" height="30" as="geometry" />
        </mxCell>
        <mxCell id="N2mJ7zz6eSVapSQhVs42-77" value="" style="shape=partialRectangle;connectable=0;fillColor=none;top=0;left=0;bottom=0;right=0;editable=1;overflow=hidden;whiteSpace=wrap;html=1;fontFamily=Helvetica;fontSize=15;fontColor=default;" vertex="1" parent="N2mJ7zz6eSVapSQhVs42-76">
          <mxGeometry width="30" height="30" as="geometry">
            <mxRectangle width="30" height="30" as="alternateBounds" />
          </mxGeometry>
        </mxCell>
        <mxCell id="N2mJ7zz6eSVapSQhVs42-78" value="プロジェクトID (FK)" style="shape=partialRectangle;connectable=0;fillColor=none;top=0;left=0;bottom=0;right=0;align=left;spacingLeft=6;overflow=hidden;whiteSpace=wrap;html=1;fontFamily=Helvetica;fontSize=15;fontColor=default;" vertex="1" parent="N2mJ7zz6eSVapSQhVs42-76">
          <mxGeometry x="30" width="207" height="30" as="geometry">
            <mxRectangle width="207" height="30" as="alternateBounds" />
          </mxGeometry>
        </mxCell>
        <mxCell id="N2mJ7zz6eSVapSQhVs42-79" value="" style="shape=tableRow;horizontal=0;startSize=0;swimlaneHead=0;swimlaneBody=0;fillColor=none;collapsible=0;dropTarget=0;points=[[0,0.5],[1,0.5]];portConstraint=eastwest;top=0;left=0;right=0;bottom=0;fontFamily=Helvetica;fontSize=15;fontColor=default;" vertex="1" parent="N2mJ7zz6eSVapSQhVs42-72">
          <mxGeometry y="90" width="237" height="30" as="geometry" />
        </mxCell>
        <mxCell id="N2mJ7zz6eSVapSQhVs42-80" value="" style="shape=partialRectangle;connectable=0;fillColor=none;top=0;left=0;bottom=0;right=0;editable=1;overflow=hidden;whiteSpace=wrap;html=1;fontFamily=Helvetica;fontSize=15;fontColor=default;" vertex="1" parent="N2mJ7zz6eSVapSQhVs42-79">
          <mxGeometry width="30" height="30" as="geometry">
            <mxRectangle width="30" height="30" as="alternateBounds" />
          </mxGeometry>
        </mxCell>
        <mxCell id="N2mJ7zz6eSVapSQhVs42-81" value="マイルストーン名 char" style="shape=partialRectangle;connectable=0;fillColor=none;top=0;left=0;bottom=0;right=0;align=left;spacingLeft=6;overflow=hidden;whiteSpace=wrap;html=1;fontFamily=Helvetica;fontSize=15;fontColor=default;" vertex="1" parent="N2mJ7zz6eSVapSQhVs42-79">
          <mxGeometry x="30" width="207" height="30" as="geometry">
            <mxRectangle width="207" height="30" as="alternateBounds" />
          </mxGeometry>
        </mxCell>
        <mxCell id="N2mJ7zz6eSVapSQhVs42-82" value="" style="shape=tableRow;horizontal=0;startSize=0;swimlaneHead=0;swimlaneBody=0;fillColor=none;collapsible=0;dropTarget=0;points=[[0,0.5],[1,0.5]];portConstraint=eastwest;top=0;left=0;right=0;bottom=0;fontFamily=Helvetica;fontSize=15;fontColor=default;" vertex="1" parent="N2mJ7zz6eSVapSQhVs42-72">
          <mxGeometry y="120" width="237" height="30" as="geometry" />
        </mxCell>
        <mxCell id="N2mJ7zz6eSVapSQhVs42-83" value="" style="shape=partialRectangle;connectable=0;fillColor=none;top=0;left=0;bottom=0;right=0;editable=1;overflow=hidden;whiteSpace=wrap;html=1;fontFamily=Helvetica;fontSize=15;fontColor=default;" vertex="1" parent="N2mJ7zz6eSVapSQhVs42-82">
          <mxGeometry width="30" height="30" as="geometry">
            <mxRectangle width="30" height="30" as="alternateBounds" />
          </mxGeometry>
        </mxCell>
        <mxCell id="N2mJ7zz6eSVapSQhVs42-84" value="開始日 (yyyy/mm/dd)" style="shape=partialRectangle;connectable=0;fillColor=none;top=0;left=0;bottom=0;right=0;align=left;spacingLeft=6;overflow=hidden;whiteSpace=wrap;html=1;fontFamily=Helvetica;fontSize=15;fontColor=default;" vertex="1" parent="N2mJ7zz6eSVapSQhVs42-82">
          <mxGeometry x="30" width="207" height="30" as="geometry">
            <mxRectangle width="207" height="30" as="alternateBounds" />
          </mxGeometry>
        </mxCell>
        <mxCell id="N2mJ7zz6eSVapSQhVs42-86" value="" style="shape=tableRow;horizontal=0;startSize=0;swimlaneHead=0;swimlaneBody=0;fillColor=none;collapsible=0;dropTarget=0;points=[[0,0.5],[1,0.5]];portConstraint=eastwest;top=0;left=0;right=0;bottom=0;fontFamily=Helvetica;fontSize=15;fontColor=default;" vertex="1" parent="N2mJ7zz6eSVapSQhVs42-72">
          <mxGeometry y="150" width="237" height="30" as="geometry" />
        </mxCell>
        <mxCell id="N2mJ7zz6eSVapSQhVs42-87" value="" style="shape=partialRectangle;connectable=0;fillColor=none;top=0;left=0;bottom=0;right=0;editable=1;overflow=hidden;whiteSpace=wrap;html=1;fontFamily=Helvetica;fontSize=15;fontColor=default;" vertex="1" parent="N2mJ7zz6eSVapSQhVs42-86">
          <mxGeometry width="30" height="30" as="geometry">
            <mxRectangle width="30" height="30" as="alternateBounds" />
          </mxGeometry>
        </mxCell>
        <mxCell id="N2mJ7zz6eSVapSQhVs42-88" value="完了予定日 (yyyy/mm/dd)" style="shape=partialRectangle;connectable=0;fillColor=none;top=0;left=0;bottom=0;right=0;align=left;spacingLeft=6;overflow=hidden;whiteSpace=wrap;html=1;fontFamily=Helvetica;fontSize=15;fontColor=default;" vertex="1" parent="N2mJ7zz6eSVapSQhVs42-86">
          <mxGeometry x="30" width="207" height="30" as="geometry">
            <mxRectangle width="207" height="30" as="alternateBounds" />
          </mxGeometry>
        </mxCell>
        <mxCell id="N2mJ7zz6eSVapSQhVs42-111" value="タスク Tbl" style="shape=table;startSize=30;container=1;collapsible=1;childLayout=tableLayout;fixedRows=1;rowLines=0;fontStyle=1;align=center;resizeLast=1;html=1;fontFamily=Helvetica;fontSize=15;fontColor=#333333;fillColor=#f5f5f5;strokeColor=#666666;" vertex="1" parent="1">
          <mxGeometry x="325" y="722" width="240" height="240" as="geometry" />
        </mxCell>
        <mxCell id="N2mJ7zz6eSVapSQhVs42-112" value="" style="shape=tableRow;horizontal=0;startSize=0;swimlaneHead=0;swimlaneBody=0;fillColor=none;collapsible=0;dropTarget=0;points=[[0,0.5],[1,0.5]];portConstraint=eastwest;top=0;left=0;right=0;bottom=1;fontFamily=Helvetica;fontSize=15;fontColor=default;" vertex="1" parent="N2mJ7zz6eSVapSQhVs42-111">
          <mxGeometry y="30" width="240" height="30" as="geometry" />
        </mxCell>
        <mxCell id="N2mJ7zz6eSVapSQhVs42-113" value="PK" style="shape=partialRectangle;connectable=0;fillColor=none;top=0;left=0;bottom=0;right=0;fontStyle=1;overflow=hidden;whiteSpace=wrap;html=1;fontFamily=Helvetica;fontSize=15;fontColor=default;" vertex="1" parent="N2mJ7zz6eSVapSQhVs42-112">
          <mxGeometry width="30" height="30" as="geometry">
            <mxRectangle width="30" height="30" as="alternateBounds" />
          </mxGeometry>
        </mxCell>
        <mxCell id="N2mJ7zz6eSVapSQhVs42-114" value="タスクID" style="shape=partialRectangle;connectable=0;fillColor=none;top=0;left=0;bottom=0;right=0;align=left;spacingLeft=6;fontStyle=5;overflow=hidden;whiteSpace=wrap;html=1;fontFamily=Helvetica;fontSize=15;fontColor=default;" vertex="1" parent="N2mJ7zz6eSVapSQhVs42-112">
          <mxGeometry x="30" width="210" height="30" as="geometry">
            <mxRectangle width="210" height="30" as="alternateBounds" />
          </mxGeometry>
        </mxCell>
        <mxCell id="Xo3ME_fFmS7z7HPaHjls-7" value="" style="shape=tableRow;horizontal=0;startSize=0;swimlaneHead=0;swimlaneBody=0;fillColor=none;collapsible=0;dropTarget=0;points=[[0,0.5],[1,0.5]];portConstraint=eastwest;top=0;left=0;right=0;bottom=0;fontFamily=Helvetica;fontSize=15;fontColor=default;" vertex="1" parent="N2mJ7zz6eSVapSQhVs42-111">
          <mxGeometry y="60" width="240" height="30" as="geometry" />
        </mxCell>
        <mxCell id="Xo3ME_fFmS7z7HPaHjls-8" value="" style="shape=partialRectangle;connectable=0;fillColor=none;top=0;left=0;bottom=0;right=0;editable=1;overflow=hidden;whiteSpace=wrap;html=1;fontFamily=Helvetica;fontSize=15;fontColor=default;" vertex="1" parent="Xo3ME_fFmS7z7HPaHjls-7">
          <mxGeometry width="30" height="30" as="geometry">
            <mxRectangle width="30" height="30" as="alternateBounds" />
          </mxGeometry>
        </mxCell>
        <mxCell id="Xo3ME_fFmS7z7HPaHjls-9" value="プロジェクトID (FK)" style="shape=partialRectangle;connectable=0;fillColor=none;top=0;left=0;bottom=0;right=0;align=left;spacingLeft=6;overflow=hidden;whiteSpace=wrap;html=1;fontFamily=Helvetica;fontSize=15;fontColor=default;" vertex="1" parent="Xo3ME_fFmS7z7HPaHjls-7">
          <mxGeometry x="30" width="210" height="30" as="geometry">
            <mxRectangle width="210" height="30" as="alternateBounds" />
          </mxGeometry>
        </mxCell>
        <mxCell id="Xo3ME_fFmS7z7HPaHjls-10" value="" style="shape=tableRow;horizontal=0;startSize=0;swimlaneHead=0;swimlaneBody=0;fillColor=none;collapsible=0;dropTarget=0;points=[[0,0.5],[1,0.5]];portConstraint=eastwest;top=0;left=0;right=0;bottom=0;fontFamily=Helvetica;fontSize=15;fontColor=default;" vertex="1" parent="N2mJ7zz6eSVapSQhVs42-111">
          <mxGeometry y="90" width="240" height="30" as="geometry" />
        </mxCell>
        <mxCell id="Xo3ME_fFmS7z7HPaHjls-11" value="" style="shape=partialRectangle;connectable=0;fillColor=none;top=0;left=0;bottom=0;right=0;editable=1;overflow=hidden;whiteSpace=wrap;html=1;fontFamily=Helvetica;fontSize=15;fontColor=default;" vertex="1" parent="Xo3ME_fFmS7z7HPaHjls-10">
          <mxGeometry width="30" height="30" as="geometry">
            <mxRectangle width="30" height="30" as="alternateBounds" />
          </mxGeometry>
        </mxCell>
        <mxCell id="Xo3ME_fFmS7z7HPaHjls-12" value="マイルストーンID (FK)" style="shape=partialRectangle;connectable=0;fillColor=none;top=0;left=0;bottom=0;right=0;align=left;spacingLeft=6;overflow=hidden;whiteSpace=wrap;html=1;fontFamily=Helvetica;fontSize=15;fontColor=default;" vertex="1" parent="Xo3ME_fFmS7z7HPaHjls-10">
          <mxGeometry x="30" width="210" height="30" as="geometry">
            <mxRectangle width="210" height="30" as="alternateBounds" />
          </mxGeometry>
        </mxCell>
        <mxCell id="N2mJ7zz6eSVapSQhVs42-115" value="" style="shape=tableRow;horizontal=0;startSize=0;swimlaneHead=0;swimlaneBody=0;fillColor=none;collapsible=0;dropTarget=0;points=[[0,0.5],[1,0.5]];portConstraint=eastwest;top=0;left=0;right=0;bottom=0;fontFamily=Helvetica;fontSize=15;fontColor=default;" vertex="1" parent="N2mJ7zz6eSVapSQhVs42-111">
          <mxGeometry y="120" width="240" height="30" as="geometry" />
        </mxCell>
        <mxCell id="N2mJ7zz6eSVapSQhVs42-116" value="" style="shape=partialRectangle;connectable=0;fillColor=none;top=0;left=0;bottom=0;right=0;editable=1;overflow=hidden;whiteSpace=wrap;html=1;fontFamily=Helvetica;fontSize=15;fontColor=default;" vertex="1" parent="N2mJ7zz6eSVapSQhVs42-115">
          <mxGeometry width="30" height="30" as="geometry">
            <mxRectangle width="30" height="30" as="alternateBounds" />
          </mxGeometry>
        </mxCell>
        <mxCell id="N2mJ7zz6eSVapSQhVs42-117" value="タスク名 char" style="shape=partialRectangle;connectable=0;fillColor=none;top=0;left=0;bottom=0;right=0;align=left;spacingLeft=6;overflow=hidden;whiteSpace=wrap;html=1;fontFamily=Helvetica;fontSize=15;fontColor=default;" vertex="1" parent="N2mJ7zz6eSVapSQhVs42-115">
          <mxGeometry x="30" width="210" height="30" as="geometry">
            <mxRectangle width="210" height="30" as="alternateBounds" />
          </mxGeometry>
        </mxCell>
        <mxCell id="N2mJ7zz6eSVapSQhVs42-118" value="" style="shape=tableRow;horizontal=0;startSize=0;swimlaneHead=0;swimlaneBody=0;fillColor=none;collapsible=0;dropTarget=0;points=[[0,0.5],[1,0.5]];portConstraint=eastwest;top=0;left=0;right=0;bottom=0;fontFamily=Helvetica;fontSize=15;fontColor=default;" vertex="1" parent="N2mJ7zz6eSVapSQhVs42-111">
          <mxGeometry y="150" width="240" height="30" as="geometry" />
        </mxCell>
        <mxCell id="N2mJ7zz6eSVapSQhVs42-119" value="" style="shape=partialRectangle;connectable=0;fillColor=none;top=0;left=0;bottom=0;right=0;editable=1;overflow=hidden;whiteSpace=wrap;html=1;fontFamily=Helvetica;fontSize=15;fontColor=default;" vertex="1" parent="N2mJ7zz6eSVapSQhVs42-118">
          <mxGeometry width="30" height="30" as="geometry">
            <mxRectangle width="30" height="30" as="alternateBounds" />
          </mxGeometry>
        </mxCell>
        <mxCell id="N2mJ7zz6eSVapSQhVs42-120" value="タスク詳細 char" style="shape=partialRectangle;connectable=0;fillColor=none;top=0;left=0;bottom=0;right=0;align=left;spacingLeft=6;overflow=hidden;whiteSpace=wrap;html=1;fontFamily=Helvetica;fontSize=15;fontColor=default;" vertex="1" parent="N2mJ7zz6eSVapSQhVs42-118">
          <mxGeometry x="30" width="210" height="30" as="geometry">
            <mxRectangle width="210" height="30" as="alternateBounds" />
          </mxGeometry>
        </mxCell>
        <mxCell id="N2mJ7zz6eSVapSQhVs42-121" value="" style="shape=tableRow;horizontal=0;startSize=0;swimlaneHead=0;swimlaneBody=0;fillColor=none;collapsible=0;dropTarget=0;points=[[0,0.5],[1,0.5]];portConstraint=eastwest;top=0;left=0;right=0;bottom=0;fontFamily=Helvetica;fontSize=15;fontColor=default;" vertex="1" parent="N2mJ7zz6eSVapSQhVs42-111">
          <mxGeometry y="180" width="240" height="30" as="geometry" />
        </mxCell>
        <mxCell id="N2mJ7zz6eSVapSQhVs42-122" value="" style="shape=partialRectangle;connectable=0;fillColor=none;top=0;left=0;bottom=0;right=0;editable=1;overflow=hidden;whiteSpace=wrap;html=1;fontFamily=Helvetica;fontSize=15;fontColor=default;" vertex="1" parent="N2mJ7zz6eSVapSQhVs42-121">
          <mxGeometry width="30" height="30" as="geometry">
            <mxRectangle width="30" height="30" as="alternateBounds" />
          </mxGeometry>
        </mxCell>
        <mxCell id="N2mJ7zz6eSVapSQhVs42-123" value="ステータス int(1:未着手,...)&lt;span style=&quot;white-space: pre;&quot;&gt;&#x9;&lt;/span&gt;" style="shape=partialRectangle;connectable=0;fillColor=none;top=0;left=0;bottom=0;right=0;align=left;spacingLeft=6;overflow=hidden;whiteSpace=wrap;html=1;fontFamily=Helvetica;fontSize=15;fontColor=default;" vertex="1" parent="N2mJ7zz6eSVapSQhVs42-121">
          <mxGeometry x="30" width="210" height="30" as="geometry">
            <mxRectangle width="210" height="30" as="alternateBounds" />
          </mxGeometry>
        </mxCell>
        <mxCell id="N2mJ7zz6eSVapSQhVs42-137" value="" style="shape=tableRow;horizontal=0;startSize=0;swimlaneHead=0;swimlaneBody=0;fillColor=none;collapsible=0;dropTarget=0;points=[[0,0.5],[1,0.5]];portConstraint=eastwest;top=0;left=0;right=0;bottom=0;fontFamily=Helvetica;fontSize=15;fontColor=default;" vertex="1" parent="N2mJ7zz6eSVapSQhVs42-111">
          <mxGeometry y="210" width="240" height="30" as="geometry" />
        </mxCell>
        <mxCell id="N2mJ7zz6eSVapSQhVs42-138" value="" style="shape=partialRectangle;connectable=0;fillColor=none;top=0;left=0;bottom=0;right=0;editable=1;overflow=hidden;whiteSpace=wrap;html=1;fontFamily=Helvetica;fontSize=15;fontColor=default;" vertex="1" parent="N2mJ7zz6eSVapSQhVs42-137">
          <mxGeometry width="30" height="30" as="geometry">
            <mxRectangle width="30" height="30" as="alternateBounds" />
          </mxGeometry>
        </mxCell>
        <mxCell id="N2mJ7zz6eSVapSQhVs42-139" value="ドキュメントURL url" style="shape=partialRectangle;connectable=0;fillColor=none;top=0;left=0;bottom=0;right=0;align=left;spacingLeft=6;overflow=hidden;whiteSpace=wrap;html=1;fontFamily=Helvetica;fontSize=15;fontColor=default;" vertex="1" parent="N2mJ7zz6eSVapSQhVs42-137">
          <mxGeometry x="30" width="210" height="30" as="geometry">
            <mxRectangle width="210" height="30" as="alternateBounds" />
          </mxGeometry>
        </mxCell>
        <mxCell id="N2mJ7zz6eSVapSQhVs42-174" style="edgeStyle=orthogonalEdgeStyle;shape=connector;rounded=0;orthogonalLoop=1;jettySize=auto;html=1;labelBackgroundColor=default;strokeColor=#FF3333;strokeWidth=2;align=center;verticalAlign=middle;fontFamily=Helvetica;fontSize=11;fontColor=default;endArrow=ERmany;endFill=0;" edge="1" parent="1" source="N2mJ7zz6eSVapSQhVs42-124">
          <mxGeometry relative="1" as="geometry">
            <mxPoint x="738.5" y="721.0000610351562" as="targetPoint" />
          </mxGeometry>
        </mxCell>
        <mxCell id="N2mJ7zz6eSVapSQhVs42-124" value="社員 Mst" style="shape=table;startSize=30;container=1;collapsible=1;childLayout=tableLayout;fixedRows=1;rowLines=0;fontStyle=1;align=center;resizeLast=1;html=1;fontFamily=Helvetica;fontSize=15;fontColor=#333333;fillColor=#f5f5f5;strokeColor=#666666;" vertex="1" parent="1">
          <mxGeometry x="620" y="443" width="237" height="180" as="geometry" />
        </mxCell>
        <mxCell id="N2mJ7zz6eSVapSQhVs42-125" value="" style="shape=tableRow;horizontal=0;startSize=0;swimlaneHead=0;swimlaneBody=0;fillColor=none;collapsible=0;dropTarget=0;points=[[0,0.5],[1,0.5]];portConstraint=eastwest;top=0;left=0;right=0;bottom=1;fontFamily=Helvetica;fontSize=15;fontColor=default;" vertex="1" parent="N2mJ7zz6eSVapSQhVs42-124">
          <mxGeometry y="30" width="237" height="30" as="geometry" />
        </mxCell>
        <mxCell id="N2mJ7zz6eSVapSQhVs42-126" value="PK" style="shape=partialRectangle;connectable=0;fillColor=none;top=0;left=0;bottom=0;right=0;fontStyle=1;overflow=hidden;whiteSpace=wrap;html=1;fontFamily=Helvetica;fontSize=15;fontColor=default;" vertex="1" parent="N2mJ7zz6eSVapSQhVs42-125">
          <mxGeometry width="30" height="30" as="geometry">
            <mxRectangle width="30" height="30" as="alternateBounds" />
          </mxGeometry>
        </mxCell>
        <mxCell id="N2mJ7zz6eSVapSQhVs42-127" value="社員ID" style="shape=partialRectangle;connectable=0;fillColor=none;top=0;left=0;bottom=0;right=0;align=left;spacingLeft=6;fontStyle=5;overflow=hidden;whiteSpace=wrap;html=1;fontFamily=Helvetica;fontSize=15;fontColor=default;" vertex="1" parent="N2mJ7zz6eSVapSQhVs42-125">
          <mxGeometry x="30" width="207" height="30" as="geometry">
            <mxRectangle width="207" height="30" as="alternateBounds" />
          </mxGeometry>
        </mxCell>
        <mxCell id="N2mJ7zz6eSVapSQhVs42-128" value="" style="shape=tableRow;horizontal=0;startSize=0;swimlaneHead=0;swimlaneBody=0;fillColor=none;collapsible=0;dropTarget=0;points=[[0,0.5],[1,0.5]];portConstraint=eastwest;top=0;left=0;right=0;bottom=0;fontFamily=Helvetica;fontSize=15;fontColor=default;" vertex="1" parent="N2mJ7zz6eSVapSQhVs42-124">
          <mxGeometry y="60" width="237" height="30" as="geometry" />
        </mxCell>
        <mxCell id="N2mJ7zz6eSVapSQhVs42-129" value="" style="shape=partialRectangle;connectable=0;fillColor=none;top=0;left=0;bottom=0;right=0;editable=1;overflow=hidden;whiteSpace=wrap;html=1;fontFamily=Helvetica;fontSize=15;fontColor=default;" vertex="1" parent="N2mJ7zz6eSVapSQhVs42-128">
          <mxGeometry width="30" height="30" as="geometry">
            <mxRectangle width="30" height="30" as="alternateBounds" />
          </mxGeometry>
        </mxCell>
        <mxCell id="N2mJ7zz6eSVapSQhVs42-130" value="氏名 char" style="shape=partialRectangle;connectable=0;fillColor=none;top=0;left=0;bottom=0;right=0;align=left;spacingLeft=6;overflow=hidden;whiteSpace=wrap;html=1;fontFamily=Helvetica;fontSize=15;fontColor=default;" vertex="1" parent="N2mJ7zz6eSVapSQhVs42-128">
          <mxGeometry x="30" width="207" height="30" as="geometry">
            <mxRectangle width="207" height="30" as="alternateBounds" />
          </mxGeometry>
        </mxCell>
        <mxCell id="N2mJ7zz6eSVapSQhVs42-131" value="" style="shape=tableRow;horizontal=0;startSize=0;swimlaneHead=0;swimlaneBody=0;fillColor=none;collapsible=0;dropTarget=0;points=[[0,0.5],[1,0.5]];portConstraint=eastwest;top=0;left=0;right=0;bottom=0;fontFamily=Helvetica;fontSize=15;fontColor=default;" vertex="1" parent="N2mJ7zz6eSVapSQhVs42-124">
          <mxGeometry y="90" width="237" height="30" as="geometry" />
        </mxCell>
        <mxCell id="N2mJ7zz6eSVapSQhVs42-132" value="" style="shape=partialRectangle;connectable=0;fillColor=none;top=0;left=0;bottom=0;right=0;editable=1;overflow=hidden;whiteSpace=wrap;html=1;fontFamily=Helvetica;fontSize=15;fontColor=default;" vertex="1" parent="N2mJ7zz6eSVapSQhVs42-131">
          <mxGeometry width="30" height="30" as="geometry">
            <mxRectangle width="30" height="30" as="alternateBounds" />
          </mxGeometry>
        </mxCell>
        <mxCell id="N2mJ7zz6eSVapSQhVs42-133" value="Email char" style="shape=partialRectangle;connectable=0;fillColor=none;top=0;left=0;bottom=0;right=0;align=left;spacingLeft=6;overflow=hidden;whiteSpace=wrap;html=1;fontFamily=Helvetica;fontSize=15;fontColor=default;" vertex="1" parent="N2mJ7zz6eSVapSQhVs42-131">
          <mxGeometry x="30" width="207" height="30" as="geometry">
            <mxRectangle width="207" height="30" as="alternateBounds" />
          </mxGeometry>
        </mxCell>
        <mxCell id="N2mJ7zz6eSVapSQhVs42-134" value="" style="shape=tableRow;horizontal=0;startSize=0;swimlaneHead=0;swimlaneBody=0;fillColor=none;collapsible=0;dropTarget=0;points=[[0,0.5],[1,0.5]];portConstraint=eastwest;top=0;left=0;right=0;bottom=0;fontFamily=Helvetica;fontSize=15;fontColor=default;" vertex="1" parent="N2mJ7zz6eSVapSQhVs42-124">
          <mxGeometry y="120" width="237" height="30" as="geometry" />
        </mxCell>
        <mxCell id="N2mJ7zz6eSVapSQhVs42-135" value="" style="shape=partialRectangle;connectable=0;fillColor=none;top=0;left=0;bottom=0;right=0;editable=1;overflow=hidden;whiteSpace=wrap;html=1;fontFamily=Helvetica;fontSize=15;fontColor=default;" vertex="1" parent="N2mJ7zz6eSVapSQhVs42-134">
          <mxGeometry width="30" height="30" as="geometry">
            <mxRectangle width="30" height="30" as="alternateBounds" />
          </mxGeometry>
        </mxCell>
        <mxCell id="N2mJ7zz6eSVapSQhVs42-136" value="Password char" style="shape=partialRectangle;connectable=0;fillColor=none;top=0;left=0;bottom=0;right=0;align=left;spacingLeft=6;overflow=hidden;whiteSpace=wrap;html=1;fontFamily=Helvetica;fontSize=15;fontColor=default;" vertex="1" parent="N2mJ7zz6eSVapSQhVs42-134">
          <mxGeometry x="30" width="207" height="30" as="geometry">
            <mxRectangle width="207" height="30" as="alternateBounds" />
          </mxGeometry>
        </mxCell>
        <mxCell id="N2mJ7zz6eSVapSQhVs42-140" value="" style="shape=tableRow;horizontal=0;startSize=0;swimlaneHead=0;swimlaneBody=0;fillColor=none;collapsible=0;dropTarget=0;points=[[0,0.5],[1,0.5]];portConstraint=eastwest;top=0;left=0;right=0;bottom=0;fontFamily=Helvetica;fontSize=15;fontColor=default;" vertex="1" parent="N2mJ7zz6eSVapSQhVs42-124">
          <mxGeometry y="150" width="237" height="30" as="geometry" />
        </mxCell>
        <mxCell id="N2mJ7zz6eSVapSQhVs42-141" value="" style="shape=partialRectangle;connectable=0;fillColor=none;top=0;left=0;bottom=0;right=0;editable=1;overflow=hidden;whiteSpace=wrap;html=1;fontFamily=Helvetica;fontSize=15;fontColor=default;" vertex="1" parent="N2mJ7zz6eSVapSQhVs42-140">
          <mxGeometry width="30" height="30" as="geometry">
            <mxRectangle width="30" height="30" as="alternateBounds" />
          </mxGeometry>
        </mxCell>
        <mxCell id="N2mJ7zz6eSVapSQhVs42-142" value="役割 int(1:SE,2:PG)" style="shape=partialRectangle;connectable=0;fillColor=none;top=0;left=0;bottom=0;right=0;align=left;spacingLeft=6;overflow=hidden;whiteSpace=wrap;html=1;fontFamily=Helvetica;fontSize=15;fontColor=default;" vertex="1" parent="N2mJ7zz6eSVapSQhVs42-140">
          <mxGeometry x="30" width="207" height="30" as="geometry">
            <mxRectangle width="207" height="30" as="alternateBounds" />
          </mxGeometry>
        </mxCell>
        <mxCell id="N2mJ7zz6eSVapSQhVs42-143" style="edgeStyle=orthogonalEdgeStyle;shape=connector;rounded=0;orthogonalLoop=1;jettySize=auto;html=1;labelBackgroundColor=default;strokeColor=#FF3333;strokeWidth=2;align=center;verticalAlign=middle;fontFamily=Helvetica;fontSize=11;fontColor=default;endArrow=ERmany;endFill=0;" edge="1" parent="1" source="N2mJ7zz6eSVapSQhVs42-79" target="N2mJ7zz6eSVapSQhVs42-118">
          <mxGeometry relative="1" as="geometry" />
        </mxCell>
        <mxCell id="N2mJ7zz6eSVapSQhVs42-144" style="edgeStyle=orthogonalEdgeStyle;shape=connector;rounded=0;orthogonalLoop=1;jettySize=auto;html=1;entryX=0;entryY=0.5;entryDx=0;entryDy=0;labelBackgroundColor=default;strokeColor=#FF3333;strokeWidth=2;align=center;verticalAlign=middle;fontFamily=Helvetica;fontSize=11;fontColor=default;endArrow=ERmany;endFill=0;exitX=1;exitY=0.5;exitDx=0;exitDy=0;" edge="1" parent="1" source="N2mJ7zz6eSVapSQhVs42-66" target="N2mJ7zz6eSVapSQhVs42-115">
          <mxGeometry relative="1" as="geometry" />
        </mxCell>
        <mxCell id="N2mJ7zz6eSVapSQhVs42-145" value="アサイン管理 Tbl" style="shape=table;startSize=30;container=1;collapsible=1;childLayout=tableLayout;fixedRows=1;rowLines=0;fontStyle=1;align=center;resizeLast=1;html=1;fontFamily=Helvetica;fontSize=15;fontColor=#333333;fillColor=#f5f5f5;strokeColor=#666666;" vertex="1" parent="1">
          <mxGeometry x="325" y="446" width="237" height="120" as="geometry" />
        </mxCell>
        <mxCell id="N2mJ7zz6eSVapSQhVs42-146" value="" style="shape=tableRow;horizontal=0;startSize=0;swimlaneHead=0;swimlaneBody=0;fillColor=none;collapsible=0;dropTarget=0;points=[[0,0.5],[1,0.5]];portConstraint=eastwest;top=0;left=0;right=0;bottom=1;fontFamily=Helvetica;fontSize=15;fontColor=default;" vertex="1" parent="N2mJ7zz6eSVapSQhVs42-145">
          <mxGeometry y="30" width="237" height="30" as="geometry" />
        </mxCell>
        <mxCell id="N2mJ7zz6eSVapSQhVs42-147" value="PK" style="shape=partialRectangle;connectable=0;fillColor=none;top=0;left=0;bottom=0;right=0;fontStyle=1;overflow=hidden;whiteSpace=wrap;html=1;fontFamily=Helvetica;fontSize=15;fontColor=default;" vertex="1" parent="N2mJ7zz6eSVapSQhVs42-146">
          <mxGeometry width="30" height="30" as="geometry">
            <mxRectangle width="30" height="30" as="alternateBounds" />
          </mxGeometry>
        </mxCell>
        <mxCell id="N2mJ7zz6eSVapSQhVs42-148" value="アサイン管理ID" style="shape=partialRectangle;connectable=0;fillColor=none;top=0;left=0;bottom=0;right=0;align=left;spacingLeft=6;fontStyle=5;overflow=hidden;whiteSpace=wrap;html=1;fontFamily=Helvetica;fontSize=15;fontColor=default;" vertex="1" parent="N2mJ7zz6eSVapSQhVs42-146">
          <mxGeometry x="30" width="207" height="30" as="geometry">
            <mxRectangle width="207" height="30" as="alternateBounds" />
          </mxGeometry>
        </mxCell>
        <mxCell id="N2mJ7zz6eSVapSQhVs42-149" value="" style="shape=tableRow;horizontal=0;startSize=0;swimlaneHead=0;swimlaneBody=0;fillColor=none;collapsible=0;dropTarget=0;points=[[0,0.5],[1,0.5]];portConstraint=eastwest;top=0;left=0;right=0;bottom=0;fontFamily=Helvetica;fontSize=15;fontColor=default;" vertex="1" parent="N2mJ7zz6eSVapSQhVs42-145">
          <mxGeometry y="60" width="237" height="30" as="geometry" />
        </mxCell>
        <mxCell id="N2mJ7zz6eSVapSQhVs42-150" value="" style="shape=partialRectangle;connectable=0;fillColor=none;top=0;left=0;bottom=0;right=0;editable=1;overflow=hidden;whiteSpace=wrap;html=1;fontFamily=Helvetica;fontSize=15;fontColor=default;" vertex="1" parent="N2mJ7zz6eSVapSQhVs42-149">
          <mxGeometry width="30" height="30" as="geometry">
            <mxRectangle width="30" height="30" as="alternateBounds" />
          </mxGeometry>
        </mxCell>
        <mxCell id="N2mJ7zz6eSVapSQhVs42-151" value="プロジェクトID (FK)" style="shape=partialRectangle;connectable=0;fillColor=none;top=0;left=0;bottom=0;right=0;align=left;spacingLeft=6;overflow=hidden;whiteSpace=wrap;html=1;fontFamily=Helvetica;fontSize=15;fontColor=default;" vertex="1" parent="N2mJ7zz6eSVapSQhVs42-149">
          <mxGeometry x="30" width="207" height="30" as="geometry">
            <mxRectangle width="207" height="30" as="alternateBounds" />
          </mxGeometry>
        </mxCell>
        <mxCell id="N2mJ7zz6eSVapSQhVs42-152" value="" style="shape=tableRow;horizontal=0;startSize=0;swimlaneHead=0;swimlaneBody=0;fillColor=none;collapsible=0;dropTarget=0;points=[[0,0.5],[1,0.5]];portConstraint=eastwest;top=0;left=0;right=0;bottom=0;fontFamily=Helvetica;fontSize=15;fontColor=default;" vertex="1" parent="N2mJ7zz6eSVapSQhVs42-145">
          <mxGeometry y="90" width="237" height="30" as="geometry" />
        </mxCell>
        <mxCell id="N2mJ7zz6eSVapSQhVs42-153" value="" style="shape=partialRectangle;connectable=0;fillColor=none;top=0;left=0;bottom=0;right=0;editable=1;overflow=hidden;whiteSpace=wrap;html=1;fontFamily=Helvetica;fontSize=15;fontColor=default;" vertex="1" parent="N2mJ7zz6eSVapSQhVs42-152">
          <mxGeometry width="30" height="30" as="geometry">
            <mxRectangle width="30" height="30" as="alternateBounds" />
          </mxGeometry>
        </mxCell>
        <mxCell id="N2mJ7zz6eSVapSQhVs42-154" value="社員ID (FK)" style="shape=partialRectangle;connectable=0;fillColor=none;top=0;left=0;bottom=0;right=0;align=left;spacingLeft=6;overflow=hidden;whiteSpace=wrap;html=1;fontFamily=Helvetica;fontSize=15;fontColor=default;" vertex="1" parent="N2mJ7zz6eSVapSQhVs42-152">
          <mxGeometry x="30" width="207" height="30" as="geometry">
            <mxRectangle width="207" height="30" as="alternateBounds" />
          </mxGeometry>
        </mxCell>
        <mxCell id="N2mJ7zz6eSVapSQhVs42-162" style="edgeStyle=orthogonalEdgeStyle;shape=connector;rounded=0;orthogonalLoop=1;jettySize=auto;html=1;entryX=1;entryY=-0.078;entryDx=0;entryDy=0;entryPerimeter=0;labelBackgroundColor=default;strokeColor=#FF3333;strokeWidth=2;align=center;verticalAlign=middle;fontFamily=Helvetica;fontSize=11;fontColor=default;endArrow=ERmany;endFill=0;" edge="1" parent="1" source="N2mJ7zz6eSVapSQhVs42-124" target="N2mJ7zz6eSVapSQhVs42-152">
          <mxGeometry relative="1" as="geometry" />
        </mxCell>
        <mxCell id="N2mJ7zz6eSVapSQhVs42-163" value="タスク割り当て管理 Tbl" style="shape=table;startSize=30;container=1;collapsible=1;childLayout=tableLayout;fixedRows=1;rowLines=0;fontStyle=1;align=center;resizeLast=1;html=1;fontFamily=Helvetica;fontSize=15;fontColor=#333333;fillColor=#f5f5f5;strokeColor=#666666;" vertex="1" parent="1">
          <mxGeometry x="624.5" y="722" width="237" height="120" as="geometry" />
        </mxCell>
        <mxCell id="N2mJ7zz6eSVapSQhVs42-164" value="" style="shape=tableRow;horizontal=0;startSize=0;swimlaneHead=0;swimlaneBody=0;fillColor=none;collapsible=0;dropTarget=0;points=[[0,0.5],[1,0.5]];portConstraint=eastwest;top=0;left=0;right=0;bottom=1;fontFamily=Helvetica;fontSize=15;fontColor=default;" vertex="1" parent="N2mJ7zz6eSVapSQhVs42-163">
          <mxGeometry y="30" width="237" height="30" as="geometry" />
        </mxCell>
        <mxCell id="N2mJ7zz6eSVapSQhVs42-165" value="PK" style="shape=partialRectangle;connectable=0;fillColor=none;top=0;left=0;bottom=0;right=0;fontStyle=1;overflow=hidden;whiteSpace=wrap;html=1;fontFamily=Helvetica;fontSize=15;fontColor=default;" vertex="1" parent="N2mJ7zz6eSVapSQhVs42-164">
          <mxGeometry width="30" height="30" as="geometry">
            <mxRectangle width="30" height="30" as="alternateBounds" />
          </mxGeometry>
        </mxCell>
        <mxCell id="N2mJ7zz6eSVapSQhVs42-166" value="タスク割り当てID" style="shape=partialRectangle;connectable=0;fillColor=none;top=0;left=0;bottom=0;right=0;align=left;spacingLeft=6;fontStyle=5;overflow=hidden;whiteSpace=wrap;html=1;fontFamily=Helvetica;fontSize=15;fontColor=default;" vertex="1" parent="N2mJ7zz6eSVapSQhVs42-164">
          <mxGeometry x="30" width="207" height="30" as="geometry">
            <mxRectangle width="207" height="30" as="alternateBounds" />
          </mxGeometry>
        </mxCell>
        <mxCell id="N2mJ7zz6eSVapSQhVs42-167" value="" style="shape=tableRow;horizontal=0;startSize=0;swimlaneHead=0;swimlaneBody=0;fillColor=none;collapsible=0;dropTarget=0;points=[[0,0.5],[1,0.5]];portConstraint=eastwest;top=0;left=0;right=0;bottom=0;fontFamily=Helvetica;fontSize=15;fontColor=default;" vertex="1" parent="N2mJ7zz6eSVapSQhVs42-163">
          <mxGeometry y="60" width="237" height="30" as="geometry" />
        </mxCell>
        <mxCell id="N2mJ7zz6eSVapSQhVs42-168" value="" style="shape=partialRectangle;connectable=0;fillColor=none;top=0;left=0;bottom=0;right=0;editable=1;overflow=hidden;whiteSpace=wrap;html=1;fontFamily=Helvetica;fontSize=15;fontColor=default;" vertex="1" parent="N2mJ7zz6eSVapSQhVs42-167">
          <mxGeometry width="30" height="30" as="geometry">
            <mxRectangle width="30" height="30" as="alternateBounds" />
          </mxGeometry>
        </mxCell>
        <mxCell id="N2mJ7zz6eSVapSQhVs42-169" value="タスクID (FK)" style="shape=partialRectangle;connectable=0;fillColor=none;top=0;left=0;bottom=0;right=0;align=left;spacingLeft=6;overflow=hidden;whiteSpace=wrap;html=1;fontFamily=Helvetica;fontSize=15;fontColor=default;" vertex="1" parent="N2mJ7zz6eSVapSQhVs42-167">
          <mxGeometry x="30" width="207" height="30" as="geometry">
            <mxRectangle width="207" height="30" as="alternateBounds" />
          </mxGeometry>
        </mxCell>
        <mxCell id="N2mJ7zz6eSVapSQhVs42-170" value="" style="shape=tableRow;horizontal=0;startSize=0;swimlaneHead=0;swimlaneBody=0;fillColor=none;collapsible=0;dropTarget=0;points=[[0,0.5],[1,0.5]];portConstraint=eastwest;top=0;left=0;right=0;bottom=0;fontFamily=Helvetica;fontSize=15;fontColor=default;" vertex="1" parent="N2mJ7zz6eSVapSQhVs42-163">
          <mxGeometry y="90" width="237" height="30" as="geometry" />
        </mxCell>
        <mxCell id="N2mJ7zz6eSVapSQhVs42-171" value="" style="shape=partialRectangle;connectable=0;fillColor=none;top=0;left=0;bottom=0;right=0;editable=1;overflow=hidden;whiteSpace=wrap;html=1;fontFamily=Helvetica;fontSize=15;fontColor=default;" vertex="1" parent="N2mJ7zz6eSVapSQhVs42-170">
          <mxGeometry width="30" height="30" as="geometry">
            <mxRectangle width="30" height="30" as="alternateBounds" />
          </mxGeometry>
        </mxCell>
        <mxCell id="N2mJ7zz6eSVapSQhVs42-172" value="社員ID (FK)" style="shape=partialRectangle;connectable=0;fillColor=none;top=0;left=0;bottom=0;right=0;align=left;spacingLeft=6;overflow=hidden;whiteSpace=wrap;html=1;fontFamily=Helvetica;fontSize=15;fontColor=default;" vertex="1" parent="N2mJ7zz6eSVapSQhVs42-170">
          <mxGeometry x="30" width="207" height="30" as="geometry">
            <mxRectangle width="207" height="30" as="alternateBounds" />
          </mxGeometry>
        </mxCell>
        <mxCell id="N2mJ7zz6eSVapSQhVs42-173" style="edgeStyle=orthogonalEdgeStyle;shape=connector;rounded=0;orthogonalLoop=1;jettySize=auto;html=1;entryX=0;entryY=0.5;entryDx=0;entryDy=0;labelBackgroundColor=default;strokeColor=#FF3333;strokeWidth=2;align=center;verticalAlign=middle;fontFamily=Helvetica;fontSize=11;fontColor=default;endArrow=none;endFill=0;" edge="1" parent="1" source="N2mJ7zz6eSVapSQhVs42-115" target="N2mJ7zz6eSVapSQhVs42-167">
          <mxGeometry relative="1" as="geometry" />
        </mxCell>
        <mxCell id="N2mJ7zz6eSVapSQhVs42-175" value="スレッド Tbl" style="shape=table;startSize=30;container=1;collapsible=1;childLayout=tableLayout;fixedRows=1;rowLines=0;fontStyle=1;align=center;resizeLast=1;html=1;fontFamily=Helvetica;fontSize=15;fontColor=#333333;fillColor=#f5f5f5;strokeColor=#666666;" vertex="1" parent="1">
          <mxGeometry x="625" y="882" width="258" height="281" as="geometry" />
        </mxCell>
        <mxCell id="N2mJ7zz6eSVapSQhVs42-176" value="" style="shape=tableRow;horizontal=0;startSize=0;swimlaneHead=0;swimlaneBody=0;fillColor=none;collapsible=0;dropTarget=0;points=[[0,0.5],[1,0.5]];portConstraint=eastwest;top=0;left=0;right=0;bottom=1;fontFamily=Helvetica;fontSize=15;fontColor=default;" vertex="1" parent="N2mJ7zz6eSVapSQhVs42-175">
          <mxGeometry y="30" width="258" height="30" as="geometry" />
        </mxCell>
        <mxCell id="N2mJ7zz6eSVapSQhVs42-177" value="PK" style="shape=partialRectangle;connectable=0;fillColor=none;top=0;left=0;bottom=0;right=0;fontStyle=1;overflow=hidden;whiteSpace=wrap;html=1;fontFamily=Helvetica;fontSize=15;fontColor=default;" vertex="1" parent="N2mJ7zz6eSVapSQhVs42-176">
          <mxGeometry width="30" height="30" as="geometry">
            <mxRectangle width="30" height="30" as="alternateBounds" />
          </mxGeometry>
        </mxCell>
        <mxCell id="N2mJ7zz6eSVapSQhVs42-178" value="スレッドID" style="shape=partialRectangle;connectable=0;fillColor=none;top=0;left=0;bottom=0;right=0;align=left;spacingLeft=6;fontStyle=5;overflow=hidden;whiteSpace=wrap;html=1;fontFamily=Helvetica;fontSize=15;fontColor=default;" vertex="1" parent="N2mJ7zz6eSVapSQhVs42-176">
          <mxGeometry x="30" width="228" height="30" as="geometry">
            <mxRectangle width="228" height="30" as="alternateBounds" />
          </mxGeometry>
        </mxCell>
        <mxCell id="FKHhwr4E1fYLFLQCwScw-96" value="" style="shape=tableRow;horizontal=0;startSize=0;swimlaneHead=0;swimlaneBody=0;fillColor=none;collapsible=0;dropTarget=0;points=[[0,0.5],[1,0.5]];portConstraint=eastwest;top=0;left=0;right=0;bottom=0;fontFamily=Helvetica;fontSize=15;fontColor=default;" vertex="1" parent="N2mJ7zz6eSVapSQhVs42-175">
          <mxGeometry y="60" width="258" height="29" as="geometry" />
        </mxCell>
        <mxCell id="FKHhwr4E1fYLFLQCwScw-97" value="" style="shape=partialRectangle;connectable=0;fillColor=none;top=0;left=0;bottom=0;right=0;editable=1;overflow=hidden;whiteSpace=wrap;html=1;fontFamily=Helvetica;fontSize=15;fontColor=default;" vertex="1" parent="FKHhwr4E1fYLFLQCwScw-96">
          <mxGeometry width="30" height="29" as="geometry">
            <mxRectangle width="30" height="29" as="alternateBounds" />
          </mxGeometry>
        </mxCell>
        <mxCell id="FKHhwr4E1fYLFLQCwScw-98" value="タスクID（FK）" style="shape=partialRectangle;connectable=0;fillColor=none;top=0;left=0;bottom=0;right=0;align=left;spacingLeft=6;overflow=hidden;whiteSpace=wrap;html=1;fontFamily=Helvetica;fontSize=15;fontColor=default;" vertex="1" parent="FKHhwr4E1fYLFLQCwScw-96">
          <mxGeometry x="30" width="228" height="29" as="geometry">
            <mxRectangle width="228" height="29" as="alternateBounds" />
          </mxGeometry>
        </mxCell>
        <mxCell id="N2mJ7zz6eSVapSQhVs42-182" value="" style="shape=tableRow;horizontal=0;startSize=0;swimlaneHead=0;swimlaneBody=0;fillColor=none;collapsible=0;dropTarget=0;points=[[0,0.5],[1,0.5]];portConstraint=eastwest;top=0;left=0;right=0;bottom=0;fontFamily=Helvetica;fontSize=15;fontColor=default;" vertex="1" parent="N2mJ7zz6eSVapSQhVs42-175">
          <mxGeometry y="89" width="258" height="30" as="geometry" />
        </mxCell>
        <mxCell id="N2mJ7zz6eSVapSQhVs42-183" value="" style="shape=partialRectangle;connectable=0;fillColor=none;top=0;left=0;bottom=0;right=0;editable=1;overflow=hidden;whiteSpace=wrap;html=1;fontFamily=Helvetica;fontSize=15;fontColor=default;" vertex="1" parent="N2mJ7zz6eSVapSQhVs42-182">
          <mxGeometry width="30" height="30" as="geometry">
            <mxRectangle width="30" height="30" as="alternateBounds" />
          </mxGeometry>
        </mxCell>
        <mxCell id="N2mJ7zz6eSVapSQhVs42-184" value="作成者_社員ID(FK)&amp;nbsp;" style="shape=partialRectangle;connectable=0;fillColor=none;top=0;left=0;bottom=0;right=0;align=left;spacingLeft=6;overflow=hidden;whiteSpace=wrap;html=1;fontFamily=Helvetica;fontSize=15;fontColor=default;" vertex="1" parent="N2mJ7zz6eSVapSQhVs42-182">
          <mxGeometry x="30" width="228" height="30" as="geometry">
            <mxRectangle width="228" height="30" as="alternateBounds" />
          </mxGeometry>
        </mxCell>
        <mxCell id="N2mJ7zz6eSVapSQhVs42-195" value="" style="shape=tableRow;horizontal=0;startSize=0;swimlaneHead=0;swimlaneBody=0;fillColor=none;collapsible=0;dropTarget=0;points=[[0,0.5],[1,0.5]];portConstraint=eastwest;top=0;left=0;right=0;bottom=0;fontFamily=Helvetica;fontSize=15;fontColor=default;" vertex="1" parent="N2mJ7zz6eSVapSQhVs42-175">
          <mxGeometry y="119" width="258" height="30" as="geometry" />
        </mxCell>
        <mxCell id="N2mJ7zz6eSVapSQhVs42-196" value="" style="shape=partialRectangle;connectable=0;fillColor=none;top=0;left=0;bottom=0;right=0;editable=1;overflow=hidden;whiteSpace=wrap;html=1;fontFamily=Helvetica;fontSize=15;fontColor=default;" vertex="1" parent="N2mJ7zz6eSVapSQhVs42-195">
          <mxGeometry width="30" height="30" as="geometry">
            <mxRectangle width="30" height="30" as="alternateBounds" />
          </mxGeometry>
        </mxCell>
        <mxCell id="N2mJ7zz6eSVapSQhVs42-197" value="宛先_社員ID(FK)" style="shape=partialRectangle;connectable=0;fillColor=none;top=0;left=0;bottom=0;right=0;align=left;spacingLeft=6;overflow=hidden;whiteSpace=wrap;html=1;fontFamily=Helvetica;fontSize=15;fontColor=default;" vertex="1" parent="N2mJ7zz6eSVapSQhVs42-195">
          <mxGeometry x="30" width="228" height="30" as="geometry">
            <mxRectangle width="228" height="30" as="alternateBounds" />
          </mxGeometry>
        </mxCell>
        <mxCell id="N2mJ7zz6eSVapSQhVs42-179" value="" style="shape=tableRow;horizontal=0;startSize=0;swimlaneHead=0;swimlaneBody=0;fillColor=none;collapsible=0;dropTarget=0;points=[[0,0.5],[1,0.5]];portConstraint=eastwest;top=0;left=0;right=0;bottom=0;fontFamily=Helvetica;fontSize=15;fontColor=default;" vertex="1" parent="N2mJ7zz6eSVapSQhVs42-175">
          <mxGeometry y="149" width="258" height="30" as="geometry" />
        </mxCell>
        <mxCell id="N2mJ7zz6eSVapSQhVs42-180" value="" style="shape=partialRectangle;connectable=0;fillColor=none;top=0;left=0;bottom=0;right=0;editable=1;overflow=hidden;whiteSpace=wrap;html=1;fontFamily=Helvetica;fontSize=15;fontColor=default;" vertex="1" parent="N2mJ7zz6eSVapSQhVs42-179">
          <mxGeometry width="30" height="30" as="geometry">
            <mxRectangle width="30" height="30" as="alternateBounds" />
          </mxGeometry>
        </mxCell>
        <mxCell id="N2mJ7zz6eSVapSQhVs42-181" value="作成日時(yyyy/mm/dd/hh:mm)" style="shape=partialRectangle;connectable=0;fillColor=none;top=0;left=0;bottom=0;right=0;align=left;spacingLeft=6;overflow=hidden;whiteSpace=wrap;html=1;fontFamily=Helvetica;fontSize=15;fontColor=default;" vertex="1" parent="N2mJ7zz6eSVapSQhVs42-179">
          <mxGeometry x="30" width="228" height="30" as="geometry">
            <mxRectangle width="228" height="30" as="alternateBounds" />
          </mxGeometry>
        </mxCell>
        <mxCell id="N2mJ7zz6eSVapSQhVs42-198" value="" style="shape=tableRow;horizontal=0;startSize=0;swimlaneHead=0;swimlaneBody=0;fillColor=none;collapsible=0;dropTarget=0;points=[[0,0.5],[1,0.5]];portConstraint=eastwest;top=0;left=0;right=0;bottom=0;fontFamily=Helvetica;fontSize=15;fontColor=default;" vertex="1" parent="N2mJ7zz6eSVapSQhVs42-175">
          <mxGeometry y="179" width="258" height="30" as="geometry" />
        </mxCell>
        <mxCell id="N2mJ7zz6eSVapSQhVs42-199" value="" style="shape=partialRectangle;connectable=0;fillColor=none;top=0;left=0;bottom=0;right=0;editable=1;overflow=hidden;whiteSpace=wrap;html=1;fontFamily=Helvetica;fontSize=15;fontColor=default;" vertex="1" parent="N2mJ7zz6eSVapSQhVs42-198">
          <mxGeometry width="30" height="30" as="geometry">
            <mxRectangle width="30" height="30" as="alternateBounds" />
          </mxGeometry>
        </mxCell>
        <mxCell id="N2mJ7zz6eSVapSQhVs42-200" value="タイトル char" style="shape=partialRectangle;connectable=0;fillColor=none;top=0;left=0;bottom=0;right=0;align=left;spacingLeft=6;overflow=hidden;whiteSpace=wrap;html=1;fontFamily=Helvetica;fontSize=15;fontColor=default;" vertex="1" parent="N2mJ7zz6eSVapSQhVs42-198">
          <mxGeometry x="30" width="228" height="30" as="geometry">
            <mxRectangle width="228" height="30" as="alternateBounds" />
          </mxGeometry>
        </mxCell>
        <mxCell id="N2mJ7zz6eSVapSQhVs42-201" value="" style="shape=tableRow;horizontal=0;startSize=0;swimlaneHead=0;swimlaneBody=0;fillColor=none;collapsible=0;dropTarget=0;points=[[0,0.5],[1,0.5]];portConstraint=eastwest;top=0;left=0;right=0;bottom=0;fontFamily=Helvetica;fontSize=15;fontColor=default;" vertex="1" parent="N2mJ7zz6eSVapSQhVs42-175">
          <mxGeometry y="209" width="258" height="41" as="geometry" />
        </mxCell>
        <mxCell id="N2mJ7zz6eSVapSQhVs42-202" value="" style="shape=partialRectangle;connectable=0;fillColor=none;top=0;left=0;bottom=0;right=0;editable=1;overflow=hidden;whiteSpace=wrap;html=1;fontFamily=Helvetica;fontSize=15;fontColor=default;" vertex="1" parent="N2mJ7zz6eSVapSQhVs42-201">
          <mxGeometry width="30" height="41" as="geometry">
            <mxRectangle width="30" height="41" as="alternateBounds" />
          </mxGeometry>
        </mxCell>
        <mxCell id="N2mJ7zz6eSVapSQhVs42-203" value="本文 char" style="shape=partialRectangle;connectable=0;fillColor=none;top=0;left=0;bottom=0;right=0;align=left;spacingLeft=6;overflow=hidden;whiteSpace=wrap;html=1;fontFamily=Helvetica;fontSize=15;fontColor=default;" vertex="1" parent="N2mJ7zz6eSVapSQhVs42-201">
          <mxGeometry x="30" width="228" height="41" as="geometry">
            <mxRectangle width="228" height="41" as="alternateBounds" />
          </mxGeometry>
        </mxCell>
        <mxCell id="N2mJ7zz6eSVapSQhVs42-204" value="" style="shape=tableRow;horizontal=0;startSize=0;swimlaneHead=0;swimlaneBody=0;fillColor=none;collapsible=0;dropTarget=0;points=[[0,0.5],[1,0.5]];portConstraint=eastwest;top=0;left=0;right=0;bottom=0;fontFamily=Helvetica;fontSize=15;fontColor=default;" vertex="1" parent="N2mJ7zz6eSVapSQhVs42-175">
          <mxGeometry y="250" width="258" height="31" as="geometry" />
        </mxCell>
        <mxCell id="N2mJ7zz6eSVapSQhVs42-205" value="" style="shape=partialRectangle;connectable=0;fillColor=none;top=0;left=0;bottom=0;right=0;editable=1;overflow=hidden;whiteSpace=wrap;html=1;fontFamily=Helvetica;fontSize=15;fontColor=default;" vertex="1" parent="N2mJ7zz6eSVapSQhVs42-204">
          <mxGeometry width="30" height="31" as="geometry">
            <mxRectangle width="30" height="31" as="alternateBounds" />
          </mxGeometry>
        </mxCell>
        <mxCell id="N2mJ7zz6eSVapSQhVs42-206" value="解決フラグ bool" style="shape=partialRectangle;connectable=0;fillColor=none;top=0;left=0;bottom=0;right=0;align=left;spacingLeft=6;overflow=hidden;whiteSpace=wrap;html=1;fontFamily=Helvetica;fontSize=15;fontColor=default;" vertex="1" parent="N2mJ7zz6eSVapSQhVs42-204">
          <mxGeometry x="30" width="228" height="31" as="geometry">
            <mxRectangle width="228" height="31" as="alternateBounds" />
          </mxGeometry>
        </mxCell>
        <mxCell id="FKHhwr4E1fYLFLQCwScw-174" style="edgeStyle=orthogonalEdgeStyle;shape=connector;rounded=0;orthogonalLoop=1;jettySize=auto;html=1;labelBackgroundColor=default;strokeColor=#FF3333;strokeWidth=2;align=center;verticalAlign=middle;fontFamily=Helvetica;fontSize=11;fontColor=default;endArrow=ERmany;endFill=0;" edge="1" parent="1" source="N2mJ7zz6eSVapSQhVs42-185" target="FKHhwr4E1fYLFLQCwScw-160">
          <mxGeometry relative="1" as="geometry">
            <Array as="points">
              <mxPoint x="1262" y="1017" />
              <mxPoint x="1262" y="1017" />
            </Array>
          </mxGeometry>
        </mxCell>
        <mxCell id="N2mJ7zz6eSVapSQhVs42-185" value="返信 Tbl" style="shape=table;startSize=30;container=1;collapsible=1;childLayout=tableLayout;fixedRows=1;rowLines=0;fontStyle=1;align=center;resizeLast=1;html=1;fontFamily=Helvetica;fontSize=15;fontColor=#333333;fillColor=#f5f5f5;strokeColor=#666666;" vertex="1" parent="1">
          <mxGeometry x="967" y="882" width="284" height="210" as="geometry" />
        </mxCell>
        <mxCell id="N2mJ7zz6eSVapSQhVs42-186" value="" style="shape=tableRow;horizontal=0;startSize=0;swimlaneHead=0;swimlaneBody=0;fillColor=none;collapsible=0;dropTarget=0;points=[[0,0.5],[1,0.5]];portConstraint=eastwest;top=0;left=0;right=0;bottom=1;fontFamily=Helvetica;fontSize=15;fontColor=default;" vertex="1" parent="N2mJ7zz6eSVapSQhVs42-185">
          <mxGeometry y="30" width="284" height="30" as="geometry" />
        </mxCell>
        <mxCell id="N2mJ7zz6eSVapSQhVs42-187" value="PK" style="shape=partialRectangle;connectable=0;fillColor=none;top=0;left=0;bottom=0;right=0;fontStyle=1;overflow=hidden;whiteSpace=wrap;html=1;fontFamily=Helvetica;fontSize=15;fontColor=default;" vertex="1" parent="N2mJ7zz6eSVapSQhVs42-186">
          <mxGeometry width="30" height="30" as="geometry">
            <mxRectangle width="30" height="30" as="alternateBounds" />
          </mxGeometry>
        </mxCell>
        <mxCell id="N2mJ7zz6eSVapSQhVs42-188" value="返信ID" style="shape=partialRectangle;connectable=0;fillColor=none;top=0;left=0;bottom=0;right=0;align=left;spacingLeft=6;fontStyle=5;overflow=hidden;whiteSpace=wrap;html=1;fontFamily=Helvetica;fontSize=15;fontColor=default;" vertex="1" parent="N2mJ7zz6eSVapSQhVs42-186">
          <mxGeometry x="30" width="254" height="30" as="geometry">
            <mxRectangle width="254" height="30" as="alternateBounds" />
          </mxGeometry>
        </mxCell>
        <mxCell id="N2mJ7zz6eSVapSQhVs42-189" value="" style="shape=tableRow;horizontal=0;startSize=0;swimlaneHead=0;swimlaneBody=0;fillColor=none;collapsible=0;dropTarget=0;points=[[0,0.5],[1,0.5]];portConstraint=eastwest;top=0;left=0;right=0;bottom=0;fontFamily=Helvetica;fontSize=15;fontColor=default;" vertex="1" parent="N2mJ7zz6eSVapSQhVs42-185">
          <mxGeometry y="60" width="284" height="30" as="geometry" />
        </mxCell>
        <mxCell id="N2mJ7zz6eSVapSQhVs42-190" value="" style="shape=partialRectangle;connectable=0;fillColor=none;top=0;left=0;bottom=0;right=0;editable=1;overflow=hidden;whiteSpace=wrap;html=1;fontFamily=Helvetica;fontSize=15;fontColor=default;" vertex="1" parent="N2mJ7zz6eSVapSQhVs42-189">
          <mxGeometry width="30" height="30" as="geometry">
            <mxRectangle width="30" height="30" as="alternateBounds" />
          </mxGeometry>
        </mxCell>
        <mxCell id="N2mJ7zz6eSVapSQhVs42-191" value="スレッドID(FK)" style="shape=partialRectangle;connectable=0;fillColor=none;top=0;left=0;bottom=0;right=0;align=left;spacingLeft=6;overflow=hidden;whiteSpace=wrap;html=1;fontFamily=Helvetica;fontSize=15;fontColor=default;" vertex="1" parent="N2mJ7zz6eSVapSQhVs42-189">
          <mxGeometry x="30" width="254" height="30" as="geometry">
            <mxRectangle width="254" height="30" as="alternateBounds" />
          </mxGeometry>
        </mxCell>
        <mxCell id="FKHhwr4E1fYLFLQCwScw-1" value="" style="shape=tableRow;horizontal=0;startSize=0;swimlaneHead=0;swimlaneBody=0;fillColor=none;collapsible=0;dropTarget=0;points=[[0,0.5],[1,0.5]];portConstraint=eastwest;top=0;left=0;right=0;bottom=0;fontFamily=Helvetica;fontSize=15;fontColor=default;" vertex="1" parent="N2mJ7zz6eSVapSQhVs42-185">
          <mxGeometry y="90" width="284" height="30" as="geometry" />
        </mxCell>
        <mxCell id="FKHhwr4E1fYLFLQCwScw-2" value="" style="shape=partialRectangle;connectable=0;fillColor=none;top=0;left=0;bottom=0;right=0;editable=1;overflow=hidden;whiteSpace=wrap;html=1;fontFamily=Helvetica;fontSize=15;fontColor=default;" vertex="1" parent="FKHhwr4E1fYLFLQCwScw-1">
          <mxGeometry width="30" height="30" as="geometry">
            <mxRectangle width="30" height="30" as="alternateBounds" />
          </mxGeometry>
        </mxCell>
        <mxCell id="FKHhwr4E1fYLFLQCwScw-3" value="宛先_社員ID(FK)&amp;nbsp;" style="shape=partialRectangle;connectable=0;fillColor=none;top=0;left=0;bottom=0;right=0;align=left;spacingLeft=6;overflow=hidden;whiteSpace=wrap;html=1;fontFamily=Helvetica;fontSize=15;fontColor=default;" vertex="1" parent="FKHhwr4E1fYLFLQCwScw-1">
          <mxGeometry x="30" width="254" height="30" as="geometry">
            <mxRectangle width="254" height="30" as="alternateBounds" />
          </mxGeometry>
        </mxCell>
        <mxCell id="N2mJ7zz6eSVapSQhVs42-192" value="" style="shape=tableRow;horizontal=0;startSize=0;swimlaneHead=0;swimlaneBody=0;fillColor=none;collapsible=0;dropTarget=0;points=[[0,0.5],[1,0.5]];portConstraint=eastwest;top=0;left=0;right=0;bottom=0;fontFamily=Helvetica;fontSize=15;fontColor=default;" vertex="1" parent="N2mJ7zz6eSVapSQhVs42-185">
          <mxGeometry y="120" width="284" height="30" as="geometry" />
        </mxCell>
        <mxCell id="N2mJ7zz6eSVapSQhVs42-193" value="" style="shape=partialRectangle;connectable=0;fillColor=none;top=0;left=0;bottom=0;right=0;editable=1;overflow=hidden;whiteSpace=wrap;html=1;fontFamily=Helvetica;fontSize=15;fontColor=default;" vertex="1" parent="N2mJ7zz6eSVapSQhVs42-192">
          <mxGeometry width="30" height="30" as="geometry">
            <mxRectangle width="30" height="30" as="alternateBounds" />
          </mxGeometry>
        </mxCell>
        <mxCell id="N2mJ7zz6eSVapSQhVs42-194" value="投稿者_社員ID(FK)&amp;nbsp;" style="shape=partialRectangle;connectable=0;fillColor=none;top=0;left=0;bottom=0;right=0;align=left;spacingLeft=6;overflow=hidden;whiteSpace=wrap;html=1;fontFamily=Helvetica;fontSize=15;fontColor=default;" vertex="1" parent="N2mJ7zz6eSVapSQhVs42-192">
          <mxGeometry x="30" width="254" height="30" as="geometry">
            <mxRectangle width="254" height="30" as="alternateBounds" />
          </mxGeometry>
        </mxCell>
        <mxCell id="FKHhwr4E1fYLFLQCwScw-150" value="" style="shape=tableRow;horizontal=0;startSize=0;swimlaneHead=0;swimlaneBody=0;fillColor=none;collapsible=0;dropTarget=0;points=[[0,0.5],[1,0.5]];portConstraint=eastwest;top=0;left=0;right=0;bottom=0;fontFamily=Helvetica;fontSize=15;fontColor=default;" vertex="1" parent="N2mJ7zz6eSVapSQhVs42-185">
          <mxGeometry y="150" width="284" height="30" as="geometry" />
        </mxCell>
        <mxCell id="FKHhwr4E1fYLFLQCwScw-151" value="" style="shape=partialRectangle;connectable=0;fillColor=none;top=0;left=0;bottom=0;right=0;editable=1;overflow=hidden;whiteSpace=wrap;html=1;fontFamily=Helvetica;fontSize=15;fontColor=default;" vertex="1" parent="FKHhwr4E1fYLFLQCwScw-150">
          <mxGeometry width="30" height="30" as="geometry">
            <mxRectangle width="30" height="30" as="alternateBounds" />
          </mxGeometry>
        </mxCell>
        <mxCell id="FKHhwr4E1fYLFLQCwScw-152" value="返信日時 (yyyy/mm/dd/hh:mm)" style="shape=partialRectangle;connectable=0;fillColor=none;top=0;left=0;bottom=0;right=0;align=left;spacingLeft=6;overflow=hidden;whiteSpace=wrap;html=1;fontFamily=Helvetica;fontSize=15;fontColor=default;" vertex="1" parent="FKHhwr4E1fYLFLQCwScw-150">
          <mxGeometry x="30" width="254" height="30" as="geometry">
            <mxRectangle width="254" height="30" as="alternateBounds" />
          </mxGeometry>
        </mxCell>
        <mxCell id="FKHhwr4E1fYLFLQCwScw-4" value="" style="shape=tableRow;horizontal=0;startSize=0;swimlaneHead=0;swimlaneBody=0;fillColor=none;collapsible=0;dropTarget=0;points=[[0,0.5],[1,0.5]];portConstraint=eastwest;top=0;left=0;right=0;bottom=0;fontFamily=Helvetica;fontSize=15;fontColor=default;" vertex="1" parent="N2mJ7zz6eSVapSQhVs42-185">
          <mxGeometry y="180" width="284" height="30" as="geometry" />
        </mxCell>
        <mxCell id="FKHhwr4E1fYLFLQCwScw-5" value="" style="shape=partialRectangle;connectable=0;fillColor=none;top=0;left=0;bottom=0;right=0;editable=1;overflow=hidden;whiteSpace=wrap;html=1;fontFamily=Helvetica;fontSize=15;fontColor=default;" vertex="1" parent="FKHhwr4E1fYLFLQCwScw-4">
          <mxGeometry width="30" height="30" as="geometry">
            <mxRectangle width="30" height="30" as="alternateBounds" />
          </mxGeometry>
        </mxCell>
        <mxCell id="FKHhwr4E1fYLFLQCwScw-6" value="本文 char" style="shape=partialRectangle;connectable=0;fillColor=none;top=0;left=0;bottom=0;right=0;align=left;spacingLeft=6;overflow=hidden;whiteSpace=wrap;html=1;fontFamily=Helvetica;fontSize=15;fontColor=default;" vertex="1" parent="FKHhwr4E1fYLFLQCwScw-4">
          <mxGeometry x="30" width="254" height="30" as="geometry">
            <mxRectangle width="254" height="30" as="alternateBounds" />
          </mxGeometry>
        </mxCell>
        <mxCell id="FKHhwr4E1fYLFLQCwScw-7" style="edgeStyle=orthogonalEdgeStyle;shape=connector;rounded=0;orthogonalLoop=1;jettySize=auto;html=1;labelBackgroundColor=default;strokeColor=#FF3333;strokeWidth=2;align=center;verticalAlign=middle;fontFamily=Helvetica;fontSize=11;fontColor=default;endArrow=ERmany;endFill=0;entryX=0;entryY=0.5;entryDx=0;entryDy=0;" edge="1" parent="1" source="N2mJ7zz6eSVapSQhVs42-118" target="N2mJ7zz6eSVapSQhVs42-198">
          <mxGeometry relative="1" as="geometry">
            <mxPoint x="601" y="827" as="targetPoint" />
          </mxGeometry>
        </mxCell>
        <mxCell id="FKHhwr4E1fYLFLQCwScw-9" style="edgeStyle=orthogonalEdgeStyle;shape=connector;rounded=0;orthogonalLoop=1;jettySize=auto;html=1;entryX=0;entryY=0.5;entryDx=0;entryDy=0;labelBackgroundColor=default;strokeColor=#FF3333;strokeWidth=2;align=center;verticalAlign=middle;fontFamily=Helvetica;fontSize=11;fontColor=default;endArrow=ERmany;endFill=0;exitX=1;exitY=0.5;exitDx=0;exitDy=0;" edge="1" parent="1" source="N2mJ7zz6eSVapSQhVs42-182" target="FKHhwr4E1fYLFLQCwScw-1">
          <mxGeometry relative="1" as="geometry" />
        </mxCell>
        <mxCell id="FKHhwr4E1fYLFLQCwScw-13" style="edgeStyle=orthogonalEdgeStyle;shape=connector;rounded=0;orthogonalLoop=1;jettySize=auto;html=1;entryX=0.196;entryY=0.016;entryDx=0;entryDy=0;labelBackgroundColor=default;strokeColor=#FF3333;strokeWidth=2;align=center;verticalAlign=middle;fontFamily=Helvetica;fontSize=11;fontColor=default;endArrow=ERmany;endFill=0;entryPerimeter=0;" edge="1" parent="1" source="N2mJ7zz6eSVapSQhVs42-131" target="N2mJ7zz6eSVapSQhVs42-185">
          <mxGeometry relative="1" as="geometry">
            <Array as="points">
              <mxPoint x="1023" y="548" />
            </Array>
          </mxGeometry>
        </mxCell>
        <mxCell id="FKHhwr4E1fYLFLQCwScw-14" style="edgeStyle=orthogonalEdgeStyle;shape=connector;rounded=0;orthogonalLoop=1;jettySize=auto;html=1;entryX=1;entryY=0.5;entryDx=0;entryDy=0;labelBackgroundColor=default;strokeColor=#FF3333;strokeWidth=2;align=center;verticalAlign=middle;fontFamily=Helvetica;fontSize=11;fontColor=default;endArrow=ERmany;endFill=0;" edge="1" parent="1" source="N2mJ7zz6eSVapSQhVs42-134" target="FKHhwr4E1fYLFLQCwScw-96">
          <mxGeometry relative="1" as="geometry" />
        </mxCell>
        <mxCell id="FKHhwr4E1fYLFLQCwScw-153" value="既読&lt;span style=&quot;white-space: pre;&quot;&gt;&#x9;&lt;/span&gt; Tbl" style="shape=table;startSize=30;container=1;collapsible=1;childLayout=tableLayout;fixedRows=1;rowLines=0;fontStyle=1;align=center;resizeLast=1;html=1;fontFamily=Helvetica;fontSize=15;fontColor=#333333;fillColor=#f5f5f5;strokeColor=#666666;" vertex="1" parent="1">
          <mxGeometry x="1295" y="882" width="284" height="180" as="geometry" />
        </mxCell>
        <mxCell id="FKHhwr4E1fYLFLQCwScw-154" value="" style="shape=tableRow;horizontal=0;startSize=0;swimlaneHead=0;swimlaneBody=0;fillColor=none;collapsible=0;dropTarget=0;points=[[0,0.5],[1,0.5]];portConstraint=eastwest;top=0;left=0;right=0;bottom=1;fontFamily=Helvetica;fontSize=15;fontColor=default;" vertex="1" parent="FKHhwr4E1fYLFLQCwScw-153">
          <mxGeometry y="30" width="284" height="30" as="geometry" />
        </mxCell>
        <mxCell id="FKHhwr4E1fYLFLQCwScw-155" value="PK" style="shape=partialRectangle;connectable=0;fillColor=none;top=0;left=0;bottom=0;right=0;fontStyle=1;overflow=hidden;whiteSpace=wrap;html=1;fontFamily=Helvetica;fontSize=15;fontColor=default;" vertex="1" parent="FKHhwr4E1fYLFLQCwScw-154">
          <mxGeometry width="30" height="30" as="geometry">
            <mxRectangle width="30" height="30" as="alternateBounds" />
          </mxGeometry>
        </mxCell>
        <mxCell id="FKHhwr4E1fYLFLQCwScw-156" value="既読管理ID" style="shape=partialRectangle;connectable=0;fillColor=none;top=0;left=0;bottom=0;right=0;align=left;spacingLeft=6;fontStyle=5;overflow=hidden;whiteSpace=wrap;html=1;fontFamily=Helvetica;fontSize=15;fontColor=default;" vertex="1" parent="FKHhwr4E1fYLFLQCwScw-154">
          <mxGeometry x="30" width="254" height="30" as="geometry">
            <mxRectangle width="254" height="30" as="alternateBounds" />
          </mxGeometry>
        </mxCell>
        <mxCell id="FKHhwr4E1fYLFLQCwScw-163" value="" style="shape=tableRow;horizontal=0;startSize=0;swimlaneHead=0;swimlaneBody=0;fillColor=none;collapsible=0;dropTarget=0;points=[[0,0.5],[1,0.5]];portConstraint=eastwest;top=0;left=0;right=0;bottom=0;fontFamily=Helvetica;fontSize=15;fontColor=default;" vertex="1" parent="FKHhwr4E1fYLFLQCwScw-153">
          <mxGeometry y="60" width="284" height="30" as="geometry" />
        </mxCell>
        <mxCell id="FKHhwr4E1fYLFLQCwScw-164" value="" style="shape=partialRectangle;connectable=0;fillColor=none;top=0;left=0;bottom=0;right=0;editable=1;overflow=hidden;whiteSpace=wrap;html=1;fontFamily=Helvetica;fontSize=15;fontColor=default;" vertex="1" parent="FKHhwr4E1fYLFLQCwScw-163">
          <mxGeometry width="30" height="30" as="geometry">
            <mxRectangle width="30" height="30" as="alternateBounds" />
          </mxGeometry>
        </mxCell>
        <mxCell id="FKHhwr4E1fYLFLQCwScw-165" value="社員ID (FK)" style="shape=partialRectangle;connectable=0;fillColor=none;top=0;left=0;bottom=0;right=0;align=left;spacingLeft=6;overflow=hidden;whiteSpace=wrap;html=1;fontFamily=Helvetica;fontSize=15;fontColor=default;" vertex="1" parent="FKHhwr4E1fYLFLQCwScw-163">
          <mxGeometry x="30" width="254" height="30" as="geometry">
            <mxRectangle width="254" height="30" as="alternateBounds" />
          </mxGeometry>
        </mxCell>
        <mxCell id="FKHhwr4E1fYLFLQCwScw-169" value="" style="shape=tableRow;horizontal=0;startSize=0;swimlaneHead=0;swimlaneBody=0;fillColor=none;collapsible=0;dropTarget=0;points=[[0,0.5],[1,0.5]];portConstraint=eastwest;top=0;left=0;right=0;bottom=0;fontFamily=Helvetica;fontSize=15;fontColor=default;" vertex="1" parent="FKHhwr4E1fYLFLQCwScw-153">
          <mxGeometry y="90" width="284" height="30" as="geometry" />
        </mxCell>
        <mxCell id="FKHhwr4E1fYLFLQCwScw-170" value="" style="shape=partialRectangle;connectable=0;fillColor=none;top=0;left=0;bottom=0;right=0;editable=1;overflow=hidden;whiteSpace=wrap;html=1;fontFamily=Helvetica;fontSize=15;fontColor=default;" vertex="1" parent="FKHhwr4E1fYLFLQCwScw-169">
          <mxGeometry width="30" height="30" as="geometry">
            <mxRectangle width="30" height="30" as="alternateBounds" />
          </mxGeometry>
        </mxCell>
        <mxCell id="FKHhwr4E1fYLFLQCwScw-171" value="返信ID (FK)" style="shape=partialRectangle;connectable=0;fillColor=none;top=0;left=0;bottom=0;right=0;align=left;spacingLeft=6;overflow=hidden;whiteSpace=wrap;html=1;fontFamily=Helvetica;fontSize=15;fontColor=default;" vertex="1" parent="FKHhwr4E1fYLFLQCwScw-169">
          <mxGeometry x="30" width="254" height="30" as="geometry">
            <mxRectangle width="254" height="30" as="alternateBounds" />
          </mxGeometry>
        </mxCell>
        <mxCell id="FKHhwr4E1fYLFLQCwScw-160" value="" style="shape=tableRow;horizontal=0;startSize=0;swimlaneHead=0;swimlaneBody=0;fillColor=none;collapsible=0;dropTarget=0;points=[[0,0.5],[1,0.5]];portConstraint=eastwest;top=0;left=0;right=0;bottom=0;fontFamily=Helvetica;fontSize=15;fontColor=default;" vertex="1" parent="FKHhwr4E1fYLFLQCwScw-153">
          <mxGeometry y="120" width="284" height="30" as="geometry" />
        </mxCell>
        <mxCell id="FKHhwr4E1fYLFLQCwScw-161" value="" style="shape=partialRectangle;connectable=0;fillColor=none;top=0;left=0;bottom=0;right=0;editable=1;overflow=hidden;whiteSpace=wrap;html=1;fontFamily=Helvetica;fontSize=15;fontColor=default;" vertex="1" parent="FKHhwr4E1fYLFLQCwScw-160">
          <mxGeometry width="30" height="30" as="geometry">
            <mxRectangle width="30" height="30" as="alternateBounds" />
          </mxGeometry>
        </mxCell>
        <mxCell id="FKHhwr4E1fYLFLQCwScw-162" value="既読フラグ bool" style="shape=partialRectangle;connectable=0;fillColor=none;top=0;left=0;bottom=0;right=0;align=left;spacingLeft=6;overflow=hidden;whiteSpace=wrap;html=1;fontFamily=Helvetica;fontSize=15;fontColor=default;" vertex="1" parent="FKHhwr4E1fYLFLQCwScw-160">
          <mxGeometry x="30" width="254" height="30" as="geometry">
            <mxRectangle width="254" height="30" as="alternateBounds" />
          </mxGeometry>
        </mxCell>
        <mxCell id="FKHhwr4E1fYLFLQCwScw-157" value="" style="shape=tableRow;horizontal=0;startSize=0;swimlaneHead=0;swimlaneBody=0;fillColor=none;collapsible=0;dropTarget=0;points=[[0,0.5],[1,0.5]];portConstraint=eastwest;top=0;left=0;right=0;bottom=0;fontFamily=Helvetica;fontSize=15;fontColor=default;" vertex="1" parent="FKHhwr4E1fYLFLQCwScw-153">
          <mxGeometry y="150" width="284" height="30" as="geometry" />
        </mxCell>
        <mxCell id="FKHhwr4E1fYLFLQCwScw-158" value="" style="shape=partialRectangle;connectable=0;fillColor=none;top=0;left=0;bottom=0;right=0;editable=1;overflow=hidden;whiteSpace=wrap;html=1;fontFamily=Helvetica;fontSize=15;fontColor=default;" vertex="1" parent="FKHhwr4E1fYLFLQCwScw-157">
          <mxGeometry width="30" height="30" as="geometry">
            <mxRectangle width="30" height="30" as="alternateBounds" />
          </mxGeometry>
        </mxCell>
        <mxCell id="FKHhwr4E1fYLFLQCwScw-159" value="日時&amp;nbsp;(yyyy/mm/dd/hh:mm)" style="shape=partialRectangle;connectable=0;fillColor=none;top=0;left=0;bottom=0;right=0;align=left;spacingLeft=6;overflow=hidden;whiteSpace=wrap;html=1;fontFamily=Helvetica;fontSize=15;fontColor=default;" vertex="1" parent="FKHhwr4E1fYLFLQCwScw-157">
          <mxGeometry x="30" width="254" height="30" as="geometry">
            <mxRectangle width="254" height="30" as="alternateBounds" />
          </mxGeometry>
        </mxCell>
        <mxCell id="FKHhwr4E1fYLFLQCwScw-172" style="edgeStyle=orthogonalEdgeStyle;shape=connector;rounded=0;orthogonalLoop=1;jettySize=auto;html=1;labelBackgroundColor=default;strokeColor=#FF3333;strokeWidth=2;align=center;verticalAlign=middle;fontFamily=Helvetica;fontSize=11;fontColor=default;endArrow=ERmany;endFill=0;" edge="1" parent="1">
          <mxGeometry relative="1" as="geometry">
            <mxPoint x="1023" y="775" as="sourcePoint" />
            <mxPoint x="1442" y="882" as="targetPoint" />
            <Array as="points">
              <mxPoint x="1442" y="762" />
            </Array>
          </mxGeometry>
        </mxCell>
        <mxCell id="FKHhwr4E1fYLFLQCwScw-177" value="通知先管理&amp;nbsp;Tbl" style="shape=table;startSize=30;container=1;collapsible=1;childLayout=tableLayout;fixedRows=1;rowLines=0;fontStyle=1;align=center;resizeLast=1;html=1;fontFamily=Helvetica;fontSize=15;fontColor=#333333;fillColor=#f5f5f5;strokeColor=#666666;" vertex="1" parent="1">
          <mxGeometry x="1092" y="443" width="209" height="150" as="geometry" />
        </mxCell>
        <mxCell id="FKHhwr4E1fYLFLQCwScw-178" value="" style="shape=tableRow;horizontal=0;startSize=0;swimlaneHead=0;swimlaneBody=0;fillColor=none;collapsible=0;dropTarget=0;points=[[0,0.5],[1,0.5]];portConstraint=eastwest;top=0;left=0;right=0;bottom=1;fontFamily=Helvetica;fontSize=15;fontColor=default;" vertex="1" parent="FKHhwr4E1fYLFLQCwScw-177">
          <mxGeometry y="30" width="209" height="30" as="geometry" />
        </mxCell>
        <mxCell id="FKHhwr4E1fYLFLQCwScw-179" value="PK" style="shape=partialRectangle;connectable=0;fillColor=none;top=0;left=0;bottom=0;right=0;fontStyle=1;overflow=hidden;whiteSpace=wrap;html=1;fontFamily=Helvetica;fontSize=15;fontColor=default;" vertex="1" parent="FKHhwr4E1fYLFLQCwScw-178">
          <mxGeometry width="30" height="30" as="geometry">
            <mxRectangle width="30" height="30" as="alternateBounds" />
          </mxGeometry>
        </mxCell>
        <mxCell id="FKHhwr4E1fYLFLQCwScw-180" value="既読管理ID" style="shape=partialRectangle;connectable=0;fillColor=none;top=0;left=0;bottom=0;right=0;align=left;spacingLeft=6;fontStyle=5;overflow=hidden;whiteSpace=wrap;html=1;fontFamily=Helvetica;fontSize=15;fontColor=default;" vertex="1" parent="FKHhwr4E1fYLFLQCwScw-178">
          <mxGeometry x="30" width="179" height="30" as="geometry">
            <mxRectangle width="179" height="30" as="alternateBounds" />
          </mxGeometry>
        </mxCell>
        <mxCell id="Xo3ME_fFmS7z7HPaHjls-1" value="" style="shape=tableRow;horizontal=0;startSize=0;swimlaneHead=0;swimlaneBody=0;fillColor=none;collapsible=0;dropTarget=0;points=[[0,0.5],[1,0.5]];portConstraint=eastwest;top=0;left=0;right=0;bottom=0;fontFamily=Helvetica;fontSize=15;fontColor=default;" vertex="1" parent="FKHhwr4E1fYLFLQCwScw-177">
          <mxGeometry y="60" width="209" height="30" as="geometry" />
        </mxCell>
        <mxCell id="Xo3ME_fFmS7z7HPaHjls-2" value="" style="shape=partialRectangle;connectable=0;fillColor=none;top=0;left=0;bottom=0;right=0;editable=1;overflow=hidden;whiteSpace=wrap;html=1;fontFamily=Helvetica;fontSize=15;fontColor=default;" vertex="1" parent="Xo3ME_fFmS7z7HPaHjls-1">
          <mxGeometry width="30" height="30" as="geometry">
            <mxRectangle width="30" height="30" as="alternateBounds" />
          </mxGeometry>
        </mxCell>
        <mxCell id="Xo3ME_fFmS7z7HPaHjls-3" value="社員ID (FK)" style="shape=partialRectangle;connectable=0;fillColor=none;top=0;left=0;bottom=0;right=0;align=left;spacingLeft=6;overflow=hidden;whiteSpace=wrap;html=1;fontFamily=Helvetica;fontSize=15;fontColor=default;" vertex="1" parent="Xo3ME_fFmS7z7HPaHjls-1">
          <mxGeometry x="30" width="179" height="30" as="geometry">
            <mxRectangle width="179" height="30" as="alternateBounds" />
          </mxGeometry>
        </mxCell>
        <mxCell id="FKHhwr4E1fYLFLQCwScw-184" value="" style="shape=tableRow;horizontal=0;startSize=0;swimlaneHead=0;swimlaneBody=0;fillColor=none;collapsible=0;dropTarget=0;points=[[0,0.5],[1,0.5]];portConstraint=eastwest;top=0;left=0;right=0;bottom=0;fontFamily=Helvetica;fontSize=15;fontColor=default;" vertex="1" parent="FKHhwr4E1fYLFLQCwScw-177">
          <mxGeometry y="90" width="209" height="30" as="geometry" />
        </mxCell>
        <mxCell id="FKHhwr4E1fYLFLQCwScw-185" value="" style="shape=partialRectangle;connectable=0;fillColor=none;top=0;left=0;bottom=0;right=0;editable=1;overflow=hidden;whiteSpace=wrap;html=1;fontFamily=Helvetica;fontSize=15;fontColor=default;" vertex="1" parent="FKHhwr4E1fYLFLQCwScw-184">
          <mxGeometry width="30" height="30" as="geometry">
            <mxRectangle width="30" height="30" as="alternateBounds" />
          </mxGeometry>
        </mxCell>
        <mxCell id="FKHhwr4E1fYLFLQCwScw-186" value="ツールID(FK)" style="shape=partialRectangle;connectable=0;fillColor=none;top=0;left=0;bottom=0;right=0;align=left;spacingLeft=6;overflow=hidden;whiteSpace=wrap;html=1;fontFamily=Helvetica;fontSize=15;fontColor=default;" vertex="1" parent="FKHhwr4E1fYLFLQCwScw-184">
          <mxGeometry x="30" width="179" height="30" as="geometry">
            <mxRectangle width="179" height="30" as="alternateBounds" />
          </mxGeometry>
        </mxCell>
        <mxCell id="FKHhwr4E1fYLFLQCwScw-187" value="" style="shape=tableRow;horizontal=0;startSize=0;swimlaneHead=0;swimlaneBody=0;fillColor=none;collapsible=0;dropTarget=0;points=[[0,0.5],[1,0.5]];portConstraint=eastwest;top=0;left=0;right=0;bottom=0;fontFamily=Helvetica;fontSize=15;fontColor=default;" vertex="1" parent="FKHhwr4E1fYLFLQCwScw-177">
          <mxGeometry y="120" width="209" height="30" as="geometry" />
        </mxCell>
        <mxCell id="FKHhwr4E1fYLFLQCwScw-188" value="" style="shape=partialRectangle;connectable=0;fillColor=none;top=0;left=0;bottom=0;right=0;editable=1;overflow=hidden;whiteSpace=wrap;html=1;fontFamily=Helvetica;fontSize=15;fontColor=default;" vertex="1" parent="FKHhwr4E1fYLFLQCwScw-187">
          <mxGeometry width="30" height="30" as="geometry">
            <mxRectangle width="30" height="30" as="alternateBounds" />
          </mxGeometry>
        </mxCell>
        <mxCell id="FKHhwr4E1fYLFLQCwScw-189" value="アカウント情報 char" style="shape=partialRectangle;connectable=0;fillColor=none;top=0;left=0;bottom=0;right=0;align=left;spacingLeft=6;overflow=hidden;whiteSpace=wrap;html=1;fontFamily=Helvetica;fontSize=15;fontColor=default;" vertex="1" parent="FKHhwr4E1fYLFLQCwScw-187">
          <mxGeometry x="30" width="179" height="30" as="geometry">
            <mxRectangle width="179" height="30" as="alternateBounds" />
          </mxGeometry>
        </mxCell>
        <mxCell id="FKHhwr4E1fYLFLQCwScw-211" style="edgeStyle=orthogonalEdgeStyle;shape=connector;rounded=0;orthogonalLoop=1;jettySize=auto;html=1;labelBackgroundColor=default;strokeColor=#FF3333;strokeWidth=2;align=center;verticalAlign=middle;fontFamily=Helvetica;fontSize=11;fontColor=default;endArrow=ERmany;endFill=0;" edge="1" parent="1">
          <mxGeometry relative="1" as="geometry">
            <mxPoint x="857" y="512" as="sourcePoint" />
            <mxPoint x="1092" y="512" as="targetPoint" />
          </mxGeometry>
        </mxCell>
        <mxCell id="FKHhwr4E1fYLFLQCwScw-213" value="連絡ツール Mst" style="shape=table;startSize=30;container=1;collapsible=1;childLayout=tableLayout;fixedRows=1;rowLines=0;fontStyle=1;align=center;resizeLast=1;html=1;fontFamily=Helvetica;fontSize=15;fontColor=#333333;fillColor=#f5f5f5;strokeColor=#666666;" vertex="1" parent="1">
          <mxGeometry x="1383" y="446" width="156" height="90" as="geometry" />
        </mxCell>
        <mxCell id="FKHhwr4E1fYLFLQCwScw-214" value="" style="shape=tableRow;horizontal=0;startSize=0;swimlaneHead=0;swimlaneBody=0;fillColor=none;collapsible=0;dropTarget=0;points=[[0,0.5],[1,0.5]];portConstraint=eastwest;top=0;left=0;right=0;bottom=1;fontFamily=Helvetica;fontSize=15;fontColor=default;" vertex="1" parent="FKHhwr4E1fYLFLQCwScw-213">
          <mxGeometry y="30" width="156" height="30" as="geometry" />
        </mxCell>
        <mxCell id="FKHhwr4E1fYLFLQCwScw-215" value="PK" style="shape=partialRectangle;connectable=0;fillColor=none;top=0;left=0;bottom=0;right=0;fontStyle=1;overflow=hidden;whiteSpace=wrap;html=1;fontFamily=Helvetica;fontSize=15;fontColor=default;" vertex="1" parent="FKHhwr4E1fYLFLQCwScw-214">
          <mxGeometry width="30" height="30" as="geometry">
            <mxRectangle width="30" height="30" as="alternateBounds" />
          </mxGeometry>
        </mxCell>
        <mxCell id="FKHhwr4E1fYLFLQCwScw-216" value="ツールID" style="shape=partialRectangle;connectable=0;fillColor=none;top=0;left=0;bottom=0;right=0;align=left;spacingLeft=6;fontStyle=5;overflow=hidden;whiteSpace=wrap;html=1;fontFamily=Helvetica;fontSize=15;fontColor=default;" vertex="1" parent="FKHhwr4E1fYLFLQCwScw-214">
          <mxGeometry x="30" width="126" height="30" as="geometry">
            <mxRectangle width="126" height="30" as="alternateBounds" />
          </mxGeometry>
        </mxCell>
        <mxCell id="FKHhwr4E1fYLFLQCwScw-223" value="" style="shape=tableRow;horizontal=0;startSize=0;swimlaneHead=0;swimlaneBody=0;fillColor=none;collapsible=0;dropTarget=0;points=[[0,0.5],[1,0.5]];portConstraint=eastwest;top=0;left=0;right=0;bottom=0;fontFamily=Helvetica;fontSize=15;fontColor=default;" vertex="1" parent="FKHhwr4E1fYLFLQCwScw-213">
          <mxGeometry y="60" width="156" height="30" as="geometry" />
        </mxCell>
        <mxCell id="FKHhwr4E1fYLFLQCwScw-224" value="" style="shape=partialRectangle;connectable=0;fillColor=none;top=0;left=0;bottom=0;right=0;editable=1;overflow=hidden;whiteSpace=wrap;html=1;fontFamily=Helvetica;fontSize=15;fontColor=default;" vertex="1" parent="FKHhwr4E1fYLFLQCwScw-223">
          <mxGeometry width="30" height="30" as="geometry">
            <mxRectangle width="30" height="30" as="alternateBounds" />
          </mxGeometry>
        </mxCell>
        <mxCell id="FKHhwr4E1fYLFLQCwScw-225" value="ツール名" style="shape=partialRectangle;connectable=0;fillColor=none;top=0;left=0;bottom=0;right=0;align=left;spacingLeft=6;overflow=hidden;whiteSpace=wrap;html=1;fontFamily=Helvetica;fontSize=15;fontColor=default;" vertex="1" parent="FKHhwr4E1fYLFLQCwScw-223">
          <mxGeometry x="30" width="126" height="30" as="geometry">
            <mxRectangle width="126" height="30" as="alternateBounds" />
          </mxGeometry>
        </mxCell>
        <mxCell id="FKHhwr4E1fYLFLQCwScw-229" style="edgeStyle=orthogonalEdgeStyle;shape=connector;rounded=0;orthogonalLoop=1;jettySize=auto;html=1;entryX=1;entryY=0.5;entryDx=0;entryDy=0;labelBackgroundColor=default;strokeColor=#FF3333;strokeWidth=2;align=center;verticalAlign=middle;fontFamily=Helvetica;fontSize=11;fontColor=default;endArrow=ERmany;endFill=0;exitX=0;exitY=0.5;exitDx=0;exitDy=0;" edge="1" parent="1" source="FKHhwr4E1fYLFLQCwScw-214">
          <mxGeometry relative="1" as="geometry">
            <mxPoint x="1378" y="491" as="sourcePoint" />
            <mxPoint x="1301" y="491" as="targetPoint" />
          </mxGeometry>
        </mxCell>
      </root>
    </mxGraphModel>
  </diagram>
  <diagram id="B0p2rzm6wC3tSwifO4Ye" name="DFD">
    <mxGraphModel dx="838" dy="343" grid="1" gridSize="10" guides="1" tooltips="1" connect="1" arrows="1" fold="1" page="1" pageScale="1" pageWidth="827" pageHeight="1169" math="0" shadow="0">
      <root>
        <mxCell id="0" />
        <mxCell id="1" parent="0" />
        <mxCell id="6NLHmdSoOBYKhe_6MPjc-1" value="■タスク確認" style="text;html=1;align=center;verticalAlign=middle;resizable=0;points=[];autosize=1;strokeColor=none;fillColor=none;fontSize=14;fontFamily=Helvetica;fontColor=default;" vertex="1" parent="1">
          <mxGeometry x="10" y="8" width="100" height="30" as="geometry" />
        </mxCell>
        <mxCell id="6NLHmdSoOBYKhe_6MPjc-24" style="edgeStyle=none;shape=connector;rounded=0;orthogonalLoop=1;jettySize=auto;html=1;labelBackgroundColor=default;strokeColor=#FF3333;strokeWidth=2;align=center;verticalAlign=middle;fontFamily=Helvetica;fontSize=14;fontColor=none;endArrow=classic;endFill=1;" edge="1" parent="1" source="6NLHmdSoOBYKhe_6MPjc-2" target="6NLHmdSoOBYKhe_6MPjc-23">
          <mxGeometry relative="1" as="geometry" />
        </mxCell>
        <mxCell id="6NLHmdSoOBYKhe_6MPjc-25" value="&lt;b&gt;&lt;font color=&quot;#ea6b66&quot;&gt;詳細リクエスト&lt;/font&gt;&lt;/b&gt;" style="edgeLabel;html=1;align=center;verticalAlign=middle;resizable=0;points=[];fontSize=14;fontFamily=Helvetica;fontColor=none;" vertex="1" connectable="0" parent="6NLHmdSoOBYKhe_6MPjc-24">
          <mxGeometry x="0.1878" y="-2" relative="1" as="geometry">
            <mxPoint x="25" as="offset" />
          </mxGeometry>
        </mxCell>
        <mxCell id="6NLHmdSoOBYKhe_6MPjc-2" value="PG&lt;br&gt;（タスク一覧/詳細）" style="rounded=1;whiteSpace=wrap;html=1;align=center;verticalAlign=middle;fontFamily=Helvetica;fontSize=14;fontColor=#333333;fillColor=#f5f5f5;strokeColor=#666666;" vertex="1" parent="1">
          <mxGeometry x="30" y="140" width="140" height="60" as="geometry" />
        </mxCell>
        <mxCell id="6NLHmdSoOBYKhe_6MPjc-3" value="" style="endArrow=classic;html=1;rounded=0;labelBackgroundColor=default;strokeColor=#FF3333;strokeWidth=2;align=center;verticalAlign=middle;fontFamily=Helvetica;fontSize=14;fontColor=none;shape=connector;exitX=1;exitY=0.25;exitDx=0;exitDy=0;" edge="1" parent="1" source="6NLHmdSoOBYKhe_6MPjc-2" target="6NLHmdSoOBYKhe_6MPjc-4">
          <mxGeometry width="50" height="50" relative="1" as="geometry">
            <mxPoint x="180" y="160" as="sourcePoint" />
            <mxPoint x="430" y="190" as="targetPoint" />
          </mxGeometry>
        </mxCell>
        <mxCell id="6NLHmdSoOBYKhe_6MPjc-19" style="edgeStyle=none;shape=connector;rounded=0;orthogonalLoop=1;jettySize=auto;html=1;entryX=0.5;entryY=0;entryDx=0;entryDy=0;labelBackgroundColor=default;strokeColor=#FF3333;strokeWidth=2;align=center;verticalAlign=middle;fontFamily=Helvetica;fontSize=14;fontColor=none;endArrow=classic;endFill=1;" edge="1" parent="1" source="6NLHmdSoOBYKhe_6MPjc-4" target="6NLHmdSoOBYKhe_6MPjc-18">
          <mxGeometry relative="1" as="geometry" />
        </mxCell>
        <mxCell id="6NLHmdSoOBYKhe_6MPjc-20" value="&lt;b&gt;&lt;font color=&quot;#ea6b66&quot;&gt;タスク情報&lt;/font&gt;&lt;/b&gt;" style="edgeLabel;html=1;align=center;verticalAlign=middle;resizable=0;points=[];fontSize=14;fontFamily=Helvetica;fontColor=none;" vertex="1" connectable="0" parent="6NLHmdSoOBYKhe_6MPjc-19">
          <mxGeometry x="-0.0889" y="-1" relative="1" as="geometry">
            <mxPoint as="offset" />
          </mxGeometry>
        </mxCell>
        <mxCell id="6NLHmdSoOBYKhe_6MPjc-4" value="タスク&lt;br&gt;一覧検索" style="ellipse;whiteSpace=wrap;html=1;align=center;verticalAlign=middle;fontFamily=Helvetica;fontSize=14;fillColor=#f8cecc;strokeColor=#b85450;" vertex="1" parent="1">
          <mxGeometry x="300" y="60" width="120" height="80" as="geometry" />
        </mxCell>
        <mxCell id="6NLHmdSoOBYKhe_6MPjc-5" value="一覧リクエスト&lt;br&gt;（全タスクor特定PJ）" style="text;html=1;align=center;verticalAlign=middle;resizable=0;points=[];autosize=1;strokeColor=none;fillColor=none;fontSize=14;fontFamily=Helvetica;fontColor=#EA6B66;fontStyle=1" vertex="1" parent="1">
          <mxGeometry x="125" y="78" width="170" height="50" as="geometry" />
        </mxCell>
        <mxCell id="6NLHmdSoOBYKhe_6MPjc-9" style="rounded=0;orthogonalLoop=1;jettySize=auto;html=1;exitX=0;exitY=0.5;exitDx=0;exitDy=0;entryX=1;entryY=0;entryDx=0;entryDy=0;labelBackgroundColor=default;strokeColor=#FF3333;strokeWidth=2;align=center;verticalAlign=middle;fontFamily=Helvetica;fontSize=14;fontColor=none;endArrow=classic;endFill=1;" edge="1" parent="1" source="6NLHmdSoOBYKhe_6MPjc-6" target="6NLHmdSoOBYKhe_6MPjc-4">
          <mxGeometry relative="1" as="geometry" />
        </mxCell>
        <mxCell id="6NLHmdSoOBYKhe_6MPjc-6" value="社員情報" style="html=1;dashed=0;whiteSpace=wrap;shape=partialRectangle;right=0;left=0;align=center;verticalAlign=middle;fontFamily=Helvetica;fontSize=14;fillColor=#fff2cc;strokeColor=#d6b656;" vertex="1" parent="1">
          <mxGeometry x="470" y="48" width="100" height="30" as="geometry" />
        </mxCell>
        <mxCell id="6NLHmdSoOBYKhe_6MPjc-7" value="プロジェクト情報" style="html=1;dashed=0;whiteSpace=wrap;shape=partialRectangle;right=0;left=0;align=center;verticalAlign=middle;fontFamily=Helvetica;fontSize=14;fillColor=#fff2cc;strokeColor=#d6b656;" vertex="1" parent="1">
          <mxGeometry x="470" y="98" width="120" height="30" as="geometry" />
        </mxCell>
        <mxCell id="6NLHmdSoOBYKhe_6MPjc-8" value="タスク情報" style="html=1;dashed=0;whiteSpace=wrap;shape=partialRectangle;right=0;left=0;align=center;verticalAlign=middle;fontFamily=Helvetica;fontSize=14;fillColor=#fff2cc;strokeColor=#d6b656;" vertex="1" parent="1">
          <mxGeometry x="470" y="200" width="100" height="30" as="geometry" />
        </mxCell>
        <mxCell id="6NLHmdSoOBYKhe_6MPjc-11" style="rounded=0;orthogonalLoop=1;jettySize=auto;html=1;entryX=1;entryY=0.5;entryDx=0;entryDy=0;labelBackgroundColor=default;strokeColor=#FF3333;strokeWidth=2;align=center;verticalAlign=middle;fontFamily=Helvetica;fontSize=14;fontColor=none;endArrow=classic;endFill=1;exitX=0;exitY=0.5;exitDx=0;exitDy=0;" edge="1" parent="1" source="6NLHmdSoOBYKhe_6MPjc-7" target="6NLHmdSoOBYKhe_6MPjc-4">
          <mxGeometry relative="1" as="geometry" />
        </mxCell>
        <mxCell id="6NLHmdSoOBYKhe_6MPjc-13" style="edgeStyle=none;shape=connector;rounded=0;orthogonalLoop=1;jettySize=auto;html=1;labelBackgroundColor=default;strokeColor=#FF3333;strokeWidth=2;align=center;verticalAlign=middle;fontFamily=Helvetica;fontSize=14;fontColor=none;endArrow=classic;endFill=1;exitX=0;exitY=0.5;exitDx=0;exitDy=0;" edge="1" parent="1" source="6NLHmdSoOBYKhe_6MPjc-8" target="6NLHmdSoOBYKhe_6MPjc-4">
          <mxGeometry relative="1" as="geometry" />
        </mxCell>
        <mxCell id="6NLHmdSoOBYKhe_6MPjc-15" value="マイルストーン情報" style="html=1;dashed=0;whiteSpace=wrap;shape=partialRectangle;right=0;left=0;align=center;verticalAlign=middle;fontFamily=Helvetica;fontSize=14;fillColor=#fff2cc;strokeColor=#d6b656;" vertex="1" parent="1">
          <mxGeometry x="470" y="150" width="130" height="30" as="geometry" />
        </mxCell>
        <mxCell id="6NLHmdSoOBYKhe_6MPjc-16" style="edgeStyle=none;shape=connector;rounded=0;orthogonalLoop=1;jettySize=auto;html=1;entryX=0.917;entryY=0.75;entryDx=0;entryDy=0;entryPerimeter=0;labelBackgroundColor=default;strokeColor=#FF3333;strokeWidth=2;align=center;verticalAlign=middle;fontFamily=Helvetica;fontSize=14;fontColor=none;endArrow=classic;endFill=1;exitX=0;exitY=0.5;exitDx=0;exitDy=0;" edge="1" parent="1" source="6NLHmdSoOBYKhe_6MPjc-15" target="6NLHmdSoOBYKhe_6MPjc-4">
          <mxGeometry relative="1" as="geometry" />
        </mxCell>
        <mxCell id="6NLHmdSoOBYKhe_6MPjc-18" value="ステータスで&lt;br&gt;グループ分け" style="ellipse;whiteSpace=wrap;html=1;align=center;verticalAlign=middle;fontFamily=Helvetica;fontSize=14;fillColor=#f8cecc;strokeColor=#b85450;" vertex="1" parent="1">
          <mxGeometry x="300" y="210" width="120" height="80" as="geometry" />
        </mxCell>
        <mxCell id="6NLHmdSoOBYKhe_6MPjc-21" style="edgeStyle=none;shape=connector;rounded=0;orthogonalLoop=1;jettySize=auto;html=1;entryX=1;entryY=0.75;entryDx=0;entryDy=0;labelBackgroundColor=default;strokeColor=#FF3333;strokeWidth=2;align=center;verticalAlign=middle;fontFamily=Helvetica;fontSize=14;fontColor=none;endArrow=classic;endFill=1;" edge="1" parent="1" source="6NLHmdSoOBYKhe_6MPjc-18" target="6NLHmdSoOBYKhe_6MPjc-2">
          <mxGeometry relative="1" as="geometry" />
        </mxCell>
        <mxCell id="6NLHmdSoOBYKhe_6MPjc-22" value="&lt;b&gt;&lt;font color=&quot;#ea6b66&quot;&gt;一覧情報&lt;/font&gt;&lt;/b&gt;" style="edgeLabel;html=1;align=center;verticalAlign=middle;resizable=0;points=[];fontSize=14;fontFamily=Helvetica;fontColor=none;" vertex="1" connectable="0" parent="6NLHmdSoOBYKhe_6MPjc-21">
          <mxGeometry x="-0.0802" y="-2" relative="1" as="geometry">
            <mxPoint x="-26" y="19" as="offset" />
          </mxGeometry>
        </mxCell>
        <mxCell id="6NLHmdSoOBYKhe_6MPjc-23" value="ステータスで&lt;br&gt;グループ分け" style="ellipse;whiteSpace=wrap;html=1;align=center;verticalAlign=middle;fontFamily=Helvetica;fontSize=14;fillColor=#f8cecc;strokeColor=#b85450;" vertex="1" parent="1">
          <mxGeometry x="300" y="370" width="120" height="80" as="geometry" />
        </mxCell>
        <mxCell id="6NLHmdSoOBYKhe_6MPjc-26" style="edgeStyle=none;shape=connector;rounded=0;orthogonalLoop=1;jettySize=auto;html=1;exitX=0;exitY=0.5;exitDx=0;exitDy=0;entryX=0.338;entryY=0.989;entryDx=0;entryDy=0;entryPerimeter=0;labelBackgroundColor=default;strokeColor=#FF3333;strokeWidth=2;align=center;verticalAlign=middle;fontFamily=Helvetica;fontSize=14;fontColor=none;endArrow=classic;endFill=1;" edge="1" parent="1" source="6NLHmdSoOBYKhe_6MPjc-23" target="6NLHmdSoOBYKhe_6MPjc-2">
          <mxGeometry relative="1" as="geometry" />
        </mxCell>
        <mxCell id="6NLHmdSoOBYKhe_6MPjc-27" value="&lt;b&gt;タスク詳細情報&lt;/b&gt;" style="edgeLabel;align=center;verticalAlign=middle;resizable=0;points=[];fontSize=14;fontFamily=Helvetica;fontColor=#EA6B66;html=1;" vertex="1" connectable="0" parent="6NLHmdSoOBYKhe_6MPjc-26">
          <mxGeometry x="0.2994" y="-3" relative="1" as="geometry">
            <mxPoint x="-32" y="9" as="offset" />
          </mxGeometry>
        </mxCell>
        <mxCell id="6NLHmdSoOBYKhe_6MPjc-28" value="タスク情報" style="html=1;dashed=0;whiteSpace=wrap;shape=partialRectangle;right=0;left=0;align=center;verticalAlign=middle;fontFamily=Helvetica;fontSize=14;fillColor=#fff2cc;strokeColor=#d6b656;" vertex="1" parent="1">
          <mxGeometry x="470" y="370" width="100" height="30" as="geometry" />
        </mxCell>
        <mxCell id="6NLHmdSoOBYKhe_6MPjc-29" style="edgeStyle=none;shape=connector;rounded=0;orthogonalLoop=1;jettySize=auto;html=1;entryX=0.983;entryY=0.308;entryDx=0;entryDy=0;entryPerimeter=0;labelBackgroundColor=default;strokeColor=#FF3333;strokeWidth=2;align=center;verticalAlign=middle;fontFamily=Helvetica;fontSize=14;fontColor=none;endArrow=classic;endFill=1;" edge="1" parent="1" source="6NLHmdSoOBYKhe_6MPjc-28" target="6NLHmdSoOBYKhe_6MPjc-23">
          <mxGeometry relative="1" as="geometry" />
        </mxCell>
        <mxCell id="6NLHmdSoOBYKhe_6MPjc-30" value="スレッド情報" style="html=1;dashed=0;whiteSpace=wrap;shape=partialRectangle;right=0;left=0;align=center;verticalAlign=middle;fontFamily=Helvetica;fontSize=14;fillColor=#fff2cc;strokeColor=#d6b656;" vertex="1" parent="1">
          <mxGeometry x="470" y="430" width="100" height="30" as="geometry" />
        </mxCell>
        <mxCell id="6NLHmdSoOBYKhe_6MPjc-31" style="edgeStyle=none;shape=connector;rounded=0;orthogonalLoop=1;jettySize=auto;html=1;entryX=0.975;entryY=0.768;entryDx=0;entryDy=0;entryPerimeter=0;labelBackgroundColor=default;strokeColor=#FF3333;strokeWidth=2;align=center;verticalAlign=middle;fontFamily=Helvetica;fontSize=14;fontColor=none;endArrow=classic;endFill=1;" edge="1" parent="1" source="6NLHmdSoOBYKhe_6MPjc-30" target="6NLHmdSoOBYKhe_6MPjc-23">
          <mxGeometry relative="1" as="geometry" />
        </mxCell>
        <mxCell id="6NLHmdSoOBYKhe_6MPjc-32" value="■タスクのステータス変更" style="text;html=1;align=center;verticalAlign=middle;resizable=0;points=[];autosize=1;strokeColor=none;fillColor=none;fontSize=14;fontFamily=Helvetica;fontColor=default;" vertex="1" parent="1">
          <mxGeometry x="10" y="520" width="190" height="30" as="geometry" />
        </mxCell>
        <mxCell id="6NLHmdSoOBYKhe_6MPjc-36" style="edgeStyle=none;shape=connector;rounded=0;orthogonalLoop=1;jettySize=auto;html=1;exitX=1;exitY=0.25;exitDx=0;exitDy=0;entryX=0;entryY=0.5;entryDx=0;entryDy=0;labelBackgroundColor=default;strokeColor=#FF3333;strokeWidth=2;align=center;verticalAlign=middle;fontFamily=Helvetica;fontSize=14;fontColor=none;endArrow=classic;endFill=1;" edge="1" parent="1" source="6NLHmdSoOBYKhe_6MPjc-33" target="6NLHmdSoOBYKhe_6MPjc-34">
          <mxGeometry relative="1" as="geometry" />
        </mxCell>
        <mxCell id="6NLHmdSoOBYKhe_6MPjc-37" value="&lt;b&gt;&lt;font color=&quot;#ea6b66&quot;&gt;ステータス変更の&lt;br&gt;リクエスト&lt;/font&gt;&lt;/b&gt;" style="edgeLabel;html=1;align=center;verticalAlign=middle;resizable=0;points=[];fontSize=14;fontFamily=Helvetica;fontColor=none;" vertex="1" connectable="0" parent="6NLHmdSoOBYKhe_6MPjc-36">
          <mxGeometry x="0.0443" y="-3" relative="1" as="geometry">
            <mxPoint x="-45" y="-30" as="offset" />
          </mxGeometry>
        </mxCell>
        <mxCell id="6NLHmdSoOBYKhe_6MPjc-33" value="PG&lt;br&gt;（タスク一覧/詳細）" style="rounded=1;whiteSpace=wrap;html=1;align=center;verticalAlign=middle;fontFamily=Helvetica;fontSize=14;fontColor=#333333;fillColor=#f5f5f5;strokeColor=#666666;" vertex="1" parent="1">
          <mxGeometry x="35" y="625" width="140" height="60" as="geometry" />
        </mxCell>
        <mxCell id="6NLHmdSoOBYKhe_6MPjc-40" style="edgeStyle=none;shape=connector;rounded=0;orthogonalLoop=1;jettySize=auto;html=1;labelBackgroundColor=default;strokeColor=#FF3333;strokeWidth=2;align=center;verticalAlign=middle;fontFamily=Helvetica;fontSize=14;fontColor=none;endArrow=classic;endFill=1;" edge="1" parent="1" source="6NLHmdSoOBYKhe_6MPjc-34" target="6NLHmdSoOBYKhe_6MPjc-38">
          <mxGeometry relative="1" as="geometry" />
        </mxCell>
        <mxCell id="6NLHmdSoOBYKhe_6MPjc-34" value="変更の可否を&lt;br&gt;チェック" style="ellipse;whiteSpace=wrap;html=1;align=center;verticalAlign=middle;fontFamily=Helvetica;fontSize=14;fillColor=#f8cecc;strokeColor=#b85450;" vertex="1" parent="1">
          <mxGeometry x="300" y="550" width="120" height="80" as="geometry" />
        </mxCell>
        <mxCell id="6NLHmdSoOBYKhe_6MPjc-35" value="タスク情報" style="html=1;dashed=0;whiteSpace=wrap;shape=partialRectangle;right=0;left=0;align=center;verticalAlign=middle;fontFamily=Helvetica;fontSize=14;fillColor=#fff2cc;strokeColor=#d6b656;" vertex="1" parent="1">
          <mxGeometry x="520" y="685" width="100" height="30" as="geometry" />
        </mxCell>
        <mxCell id="6NLHmdSoOBYKhe_6MPjc-41" style="edgeStyle=none;shape=connector;rounded=0;orthogonalLoop=1;jettySize=auto;html=1;entryX=1;entryY=0.75;entryDx=0;entryDy=0;labelBackgroundColor=default;strokeColor=#FF3333;strokeWidth=2;align=center;verticalAlign=middle;fontFamily=Helvetica;fontSize=14;fontColor=none;endArrow=classic;endFill=1;" edge="1" parent="1" source="6NLHmdSoOBYKhe_6MPjc-38" target="6NLHmdSoOBYKhe_6MPjc-33">
          <mxGeometry relative="1" as="geometry" />
        </mxCell>
        <mxCell id="6NLHmdSoOBYKhe_6MPjc-42" value="&lt;b&gt;&lt;font color=&quot;#ea6b66&quot;&gt;完了通知&lt;/font&gt;&lt;/b&gt;" style="edgeLabel;html=1;align=center;verticalAlign=middle;resizable=0;points=[];fontSize=14;fontFamily=Helvetica;fontColor=none;" vertex="1" connectable="0" parent="6NLHmdSoOBYKhe_6MPjc-41">
          <mxGeometry x="0.048" y="-6" relative="1" as="geometry">
            <mxPoint y="19" as="offset" />
          </mxGeometry>
        </mxCell>
        <mxCell id="6NLHmdSoOBYKhe_6MPjc-43" style="edgeStyle=none;shape=connector;rounded=0;orthogonalLoop=1;jettySize=auto;html=1;entryX=0;entryY=0.5;entryDx=0;entryDy=0;labelBackgroundColor=default;strokeColor=#FF3333;strokeWidth=2;align=center;verticalAlign=middle;fontFamily=Helvetica;fontSize=14;fontColor=none;endArrow=classic;endFill=1;" edge="1" parent="1" source="6NLHmdSoOBYKhe_6MPjc-38" target="6NLHmdSoOBYKhe_6MPjc-35">
          <mxGeometry relative="1" as="geometry" />
        </mxCell>
        <mxCell id="6NLHmdSoOBYKhe_6MPjc-38" value="ステータス変更" style="ellipse;whiteSpace=wrap;html=1;align=center;verticalAlign=middle;fontFamily=Helvetica;fontSize=14;fillColor=#f8cecc;strokeColor=#b85450;" vertex="1" parent="1">
          <mxGeometry x="300" y="660" width="120" height="80" as="geometry" />
        </mxCell>
        <mxCell id="6NLHmdSoOBYKhe_6MPjc-44" value="■スレッド作成" style="text;html=1;align=center;verticalAlign=middle;resizable=0;points=[];autosize=1;strokeColor=none;fillColor=none;fontSize=14;fontFamily=Helvetica;fontColor=default;" vertex="1" parent="1">
          <mxGeometry x="30" y="770" width="120" height="30" as="geometry" />
        </mxCell>
        <mxCell id="6NLHmdSoOBYKhe_6MPjc-47" style="edgeStyle=none;shape=connector;rounded=0;orthogonalLoop=1;jettySize=auto;html=1;entryX=0;entryY=0.5;entryDx=0;entryDy=0;labelBackgroundColor=default;strokeColor=#FF3333;strokeWidth=2;align=center;verticalAlign=middle;fontFamily=Helvetica;fontSize=14;fontColor=none;endArrow=classic;endFill=1;" edge="1" parent="1" source="6NLHmdSoOBYKhe_6MPjc-45" target="6NLHmdSoOBYKhe_6MPjc-46">
          <mxGeometry relative="1" as="geometry" />
        </mxCell>
        <mxCell id="6NLHmdSoOBYKhe_6MPjc-48" value="&lt;b&gt;&lt;font color=&quot;#ea6b66&quot;&gt;スレッド情報&lt;/font&gt;&lt;/b&gt;" style="edgeLabel;html=1;align=center;verticalAlign=middle;resizable=0;points=[];fontSize=14;fontFamily=Helvetica;fontColor=none;" vertex="1" connectable="0" parent="6NLHmdSoOBYKhe_6MPjc-47">
          <mxGeometry x="-0.0963" y="2" relative="1" as="geometry">
            <mxPoint y="-9" as="offset" />
          </mxGeometry>
        </mxCell>
        <mxCell id="6NLHmdSoOBYKhe_6MPjc-45" value="PG&lt;br&gt;（スレッド作成）" style="rounded=1;whiteSpace=wrap;html=1;align=center;verticalAlign=middle;fontFamily=Helvetica;fontSize=14;fontColor=#333333;fillColor=#f5f5f5;strokeColor=#666666;" vertex="1" parent="1">
          <mxGeometry x="40" y="890" width="130" height="60" as="geometry" />
        </mxCell>
        <mxCell id="6NLHmdSoOBYKhe_6MPjc-50" style="edgeStyle=none;shape=connector;rounded=0;orthogonalLoop=1;jettySize=auto;html=1;labelBackgroundColor=default;strokeColor=#FF3333;strokeWidth=2;align=center;verticalAlign=middle;fontFamily=Helvetica;fontSize=14;fontColor=none;endArrow=classic;endFill=1;" edge="1" parent="1" source="6NLHmdSoOBYKhe_6MPjc-46" target="6NLHmdSoOBYKhe_6MPjc-49">
          <mxGeometry relative="1" as="geometry" />
        </mxCell>
        <mxCell id="6NLHmdSoOBYKhe_6MPjc-51" value="&lt;b&gt;&lt;font color=&quot;#ea6b66&quot;&gt;スレッド作成&lt;br&gt;リクエスト&lt;/font&gt;&lt;/b&gt;" style="edgeLabel;html=1;align=center;verticalAlign=middle;resizable=0;points=[];fontSize=14;fontFamily=Helvetica;fontColor=none;" vertex="1" connectable="0" parent="6NLHmdSoOBYKhe_6MPjc-50">
          <mxGeometry x="0.0639" y="6" relative="1" as="geometry">
            <mxPoint x="-4" y="-14" as="offset" />
          </mxGeometry>
        </mxCell>
        <mxCell id="6NLHmdSoOBYKhe_6MPjc-46" value="バリデーション" style="ellipse;whiteSpace=wrap;html=1;align=center;verticalAlign=middle;fontFamily=Helvetica;fontSize=14;fillColor=#f8cecc;strokeColor=#b85450;" vertex="1" parent="1">
          <mxGeometry x="320" y="880" width="120" height="80" as="geometry" />
        </mxCell>
        <mxCell id="6NLHmdSoOBYKhe_6MPjc-59" style="edgeStyle=none;shape=connector;rounded=0;orthogonalLoop=1;jettySize=auto;html=1;entryX=0.5;entryY=0;entryDx=0;entryDy=0;labelBackgroundColor=default;strokeColor=#FF3333;strokeWidth=2;align=center;verticalAlign=middle;fontFamily=Helvetica;fontSize=14;fontColor=none;endArrow=classic;endFill=1;" edge="1" parent="1" source="6NLHmdSoOBYKhe_6MPjc-49" target="6NLHmdSoOBYKhe_6MPjc-52">
          <mxGeometry relative="1" as="geometry" />
        </mxCell>
        <mxCell id="6NLHmdSoOBYKhe_6MPjc-60" value="&lt;b&gt;&lt;font color=&quot;#ea6b66&quot;&gt;受付情報&lt;/font&gt;&lt;/b&gt;" style="edgeLabel;html=1;align=center;verticalAlign=middle;resizable=0;points=[];fontSize=14;fontFamily=Helvetica;fontColor=none;" vertex="1" connectable="0" parent="6NLHmdSoOBYKhe_6MPjc-59">
          <mxGeometry x="-0.2127" y="2" relative="1" as="geometry">
            <mxPoint x="30" as="offset" />
          </mxGeometry>
        </mxCell>
        <mxCell id="6NLHmdSoOBYKhe_6MPjc-49" value="存在チェック" style="ellipse;whiteSpace=wrap;html=1;align=center;verticalAlign=middle;fontFamily=Helvetica;fontSize=14;fillColor=#f8cecc;strokeColor=#b85450;" vertex="1" parent="1">
          <mxGeometry x="580" y="880" width="120" height="80" as="geometry" />
        </mxCell>
        <mxCell id="6NLHmdSoOBYKhe_6MPjc-61" style="edgeStyle=none;shape=connector;rounded=0;orthogonalLoop=1;jettySize=auto;html=1;entryX=1;entryY=0.5;entryDx=0;entryDy=0;labelBackgroundColor=default;strokeColor=#FF3333;strokeWidth=2;align=center;verticalAlign=middle;fontFamily=Helvetica;fontSize=14;fontColor=none;endArrow=classic;endFill=1;" edge="1" parent="1" source="6NLHmdSoOBYKhe_6MPjc-52" target="6NLHmdSoOBYKhe_6MPjc-53">
          <mxGeometry relative="1" as="geometry" />
        </mxCell>
        <mxCell id="6NLHmdSoOBYKhe_6MPjc-63" value="&lt;b&gt;&lt;font color=&quot;#ea6b66&quot;&gt;サマリー&lt;br&gt;情報&lt;/font&gt;&lt;/b&gt;" style="edgeLabel;html=1;align=center;verticalAlign=middle;resizable=0;points=[];fontSize=14;fontFamily=Helvetica;fontColor=none;" vertex="1" connectable="0" parent="6NLHmdSoOBYKhe_6MPjc-61">
          <mxGeometry x="-0.3587" y="-3" relative="1" as="geometry">
            <mxPoint x="-9" y="23" as="offset" />
          </mxGeometry>
        </mxCell>
        <mxCell id="6NLHmdSoOBYKhe_6MPjc-62" style="edgeStyle=none;shape=connector;rounded=0;orthogonalLoop=1;jettySize=auto;html=1;entryX=0;entryY=0.5;entryDx=0;entryDy=0;labelBackgroundColor=default;strokeColor=#FF3333;strokeWidth=2;align=center;verticalAlign=middle;fontFamily=Helvetica;fontSize=14;fontColor=none;endArrow=classic;endFill=1;" edge="1" parent="1" source="6NLHmdSoOBYKhe_6MPjc-52" target="6NLHmdSoOBYKhe_6MPjc-54">
          <mxGeometry relative="1" as="geometry" />
        </mxCell>
        <mxCell id="6NLHmdSoOBYKhe_6MPjc-52" value="スレッド作成&lt;br&gt;（保存）" style="ellipse;whiteSpace=wrap;html=1;align=center;verticalAlign=middle;fontFamily=Helvetica;fontSize=14;fillColor=#f8cecc;strokeColor=#b85450;" vertex="1" parent="1">
          <mxGeometry x="680" y="1010" width="120" height="80" as="geometry" />
        </mxCell>
        <mxCell id="6NLHmdSoOBYKhe_6MPjc-74" style="edgeStyle=none;shape=connector;rounded=0;orthogonalLoop=1;jettySize=auto;html=1;labelBackgroundColor=default;strokeColor=#FF3333;strokeWidth=2;align=center;verticalAlign=middle;fontFamily=Helvetica;fontSize=14;fontColor=none;endArrow=classic;endFill=1;" edge="1" parent="1" source="6NLHmdSoOBYKhe_6MPjc-53" target="6NLHmdSoOBYKhe_6MPjc-73">
          <mxGeometry relative="1" as="geometry" />
        </mxCell>
        <mxCell id="6NLHmdSoOBYKhe_6MPjc-75" value="&lt;b&gt;&lt;font color=&quot;#ea6b66&quot;&gt;サマリー情報&lt;/font&gt;&lt;/b&gt;" style="edgeLabel;html=1;align=center;verticalAlign=middle;resizable=0;points=[];fontSize=14;fontFamily=Helvetica;fontColor=none;" vertex="1" connectable="0" parent="6NLHmdSoOBYKhe_6MPjc-74">
          <mxGeometry x="0.1828" y="-4" relative="1" as="geometry">
            <mxPoint y="-2" as="offset" />
          </mxGeometry>
        </mxCell>
        <mxCell id="6NLHmdSoOBYKhe_6MPjc-53" value="Slack通知" style="ellipse;whiteSpace=wrap;html=1;align=center;verticalAlign=middle;fontFamily=Helvetica;fontSize=14;fillColor=#f8cecc;strokeColor=#b85450;" vertex="1" parent="1">
          <mxGeometry x="490" y="1010" width="120" height="80" as="geometry" />
        </mxCell>
        <mxCell id="6NLHmdSoOBYKhe_6MPjc-54" value="スレッド情報" style="html=1;dashed=0;whiteSpace=wrap;shape=partialRectangle;right=0;left=0;align=center;verticalAlign=middle;fontFamily=Helvetica;fontSize=14;fillColor=#fff2cc;strokeColor=#d6b656;" vertex="1" parent="1">
          <mxGeometry x="820" y="1035" width="100" height="30" as="geometry" />
        </mxCell>
        <mxCell id="6NLHmdSoOBYKhe_6MPjc-58" style="edgeStyle=none;shape=connector;rounded=0;orthogonalLoop=1;jettySize=auto;html=1;labelBackgroundColor=default;strokeColor=#FF3333;strokeWidth=2;align=center;verticalAlign=middle;fontFamily=Helvetica;fontSize=14;fontColor=none;endArrow=classic;endFill=1;" edge="1" parent="1" source="6NLHmdSoOBYKhe_6MPjc-55" target="6NLHmdSoOBYKhe_6MPjc-49">
          <mxGeometry relative="1" as="geometry" />
        </mxCell>
        <mxCell id="6NLHmdSoOBYKhe_6MPjc-55" value="タスク情報" style="html=1;dashed=0;whiteSpace=wrap;shape=partialRectangle;right=0;left=0;align=center;verticalAlign=middle;fontFamily=Helvetica;fontSize=14;fillColor=#fff2cc;strokeColor=#d6b656;" vertex="1" parent="1">
          <mxGeometry x="660" y="810" width="80" height="30" as="geometry" />
        </mxCell>
        <mxCell id="6NLHmdSoOBYKhe_6MPjc-57" style="edgeStyle=none;shape=connector;rounded=0;orthogonalLoop=1;jettySize=auto;html=1;entryX=0.23;entryY=0.039;entryDx=0;entryDy=0;labelBackgroundColor=default;strokeColor=#FF3333;strokeWidth=2;align=center;verticalAlign=middle;fontFamily=Helvetica;fontSize=14;fontColor=none;endArrow=classic;endFill=1;entryPerimeter=0;" edge="1" parent="1" source="6NLHmdSoOBYKhe_6MPjc-56" target="6NLHmdSoOBYKhe_6MPjc-49">
          <mxGeometry relative="1" as="geometry" />
        </mxCell>
        <mxCell id="6NLHmdSoOBYKhe_6MPjc-56" value="社員情報" style="html=1;dashed=0;whiteSpace=wrap;shape=partialRectangle;right=0;left=0;align=center;verticalAlign=middle;fontFamily=Helvetica;fontSize=14;fillColor=#fff2cc;strokeColor=#d6b656;" vertex="1" parent="1">
          <mxGeometry x="540" y="810" width="90" height="30" as="geometry" />
        </mxCell>
        <mxCell id="6NLHmdSoOBYKhe_6MPjc-65" style="edgeStyle=none;shape=connector;rounded=0;orthogonalLoop=1;jettySize=auto;html=1;entryX=0.5;entryY=1;entryDx=0;entryDy=0;labelBackgroundColor=default;strokeColor=#FF3333;strokeWidth=2;align=center;verticalAlign=middle;fontFamily=Helvetica;fontSize=14;fontColor=none;endArrow=classic;endFill=1;" edge="1" parent="1" source="6NLHmdSoOBYKhe_6MPjc-64" target="6NLHmdSoOBYKhe_6MPjc-53">
          <mxGeometry relative="1" as="geometry" />
        </mxCell>
        <mxCell id="6NLHmdSoOBYKhe_6MPjc-66" value="&lt;b&gt;&lt;font color=&quot;#ea6b66&quot;&gt;社員のSlackアカウント情報&lt;/font&gt;&lt;/b&gt;" style="edgeLabel;html=1;align=center;verticalAlign=middle;resizable=0;points=[];fontSize=14;fontFamily=Helvetica;fontColor=none;" vertex="1" connectable="0" parent="6NLHmdSoOBYKhe_6MPjc-65">
          <mxGeometry x="-0.2268" y="2" relative="1" as="geometry">
            <mxPoint x="82" y="5" as="offset" />
          </mxGeometry>
        </mxCell>
        <mxCell id="6NLHmdSoOBYKhe_6MPjc-64" value="通知先情報" style="html=1;dashed=0;whiteSpace=wrap;shape=partialRectangle;right=0;left=0;align=center;verticalAlign=middle;fontFamily=Helvetica;fontSize=14;fillColor=#fff2cc;strokeColor=#d6b656;" vertex="1" parent="1">
          <mxGeometry x="490" y="1150" width="100" height="30" as="geometry" />
        </mxCell>
        <mxCell id="6NLHmdSoOBYKhe_6MPjc-70" style="edgeStyle=none;shape=connector;rounded=0;orthogonalLoop=1;jettySize=auto;html=1;entryX=1;entryY=0.5;entryDx=0;entryDy=0;labelBackgroundColor=default;strokeColor=#FF3333;strokeWidth=2;align=center;verticalAlign=middle;fontFamily=Helvetica;fontSize=14;fontColor=none;endArrow=classic;endFill=1;" edge="1" parent="1" source="6NLHmdSoOBYKhe_6MPjc-67" target="6NLHmdSoOBYKhe_6MPjc-72">
          <mxGeometry relative="1" as="geometry" />
        </mxCell>
        <mxCell id="6NLHmdSoOBYKhe_6MPjc-71" value="&lt;b&gt;&lt;font color=&quot;#ea6b66&quot;&gt;完了情報&lt;/font&gt;&lt;/b&gt;" style="edgeLabel;html=1;align=center;verticalAlign=middle;resizable=0;points=[];fontSize=14;fontFamily=Helvetica;fontColor=none;" vertex="1" connectable="0" parent="6NLHmdSoOBYKhe_6MPjc-70">
          <mxGeometry x="0.0008" y="-1" relative="1" as="geometry">
            <mxPoint x="5" as="offset" />
          </mxGeometry>
        </mxCell>
        <mxCell id="6NLHmdSoOBYKhe_6MPjc-72" value="PG&lt;br&gt;（スレッド）" style="rounded=1;whiteSpace=wrap;html=1;align=center;verticalAlign=middle;fontFamily=Helvetica;fontSize=14;fontColor=#333333;fillColor=#f5f5f5;strokeColor=#666666;" vertex="1" parent="1">
          <mxGeometry x="40" y="1020" width="130" height="60" as="geometry" />
        </mxCell>
        <mxCell id="6NLHmdSoOBYKhe_6MPjc-73" value="SE&lt;br&gt;（Slack）" style="rounded=1;whiteSpace=wrap;html=1;align=center;verticalAlign=middle;fontFamily=Helvetica;fontSize=14;fontColor=#333333;fillColor=#f5f5f5;strokeColor=#666666;" vertex="1" parent="1">
          <mxGeometry x="310" y="1140" width="100" height="60" as="geometry" />
        </mxCell>
        <mxCell id="6NLHmdSoOBYKhe_6MPjc-78" value="" style="edgeStyle=none;shape=connector;rounded=0;orthogonalLoop=1;jettySize=auto;html=1;labelBackgroundColor=default;strokeColor=#FF3333;strokeWidth=2;align=center;verticalAlign=middle;fontFamily=Helvetica;fontSize=14;fontColor=none;endArrow=classic;endFill=1;exitX=0;exitY=0.5;exitDx=0;exitDy=0;" edge="1" parent="1" source="6NLHmdSoOBYKhe_6MPjc-53" target="6NLHmdSoOBYKhe_6MPjc-67">
          <mxGeometry relative="1" as="geometry">
            <mxPoint x="450" y="1050" as="sourcePoint" />
            <mxPoint x="240.00000000000114" y="1050" as="targetPoint" />
          </mxGeometry>
        </mxCell>
        <mxCell id="6NLHmdSoOBYKhe_6MPjc-80" value="&lt;b&gt;&lt;font color=&quot;#ea6b66&quot;&gt;API&lt;br&gt;レスポンス&lt;/font&gt;&lt;/b&gt;" style="edgeLabel;html=1;align=center;verticalAlign=middle;resizable=0;points=[];fontSize=14;fontFamily=Helvetica;fontColor=none;" vertex="1" connectable="0" parent="6NLHmdSoOBYKhe_6MPjc-78">
          <mxGeometry x="0.2" relative="1" as="geometry">
            <mxPoint x="18" y="-20" as="offset" />
          </mxGeometry>
        </mxCell>
        <mxCell id="6NLHmdSoOBYKhe_6MPjc-67" value="エラーチェック" style="ellipse;whiteSpace=wrap;html=1;align=center;verticalAlign=middle;fontFamily=Helvetica;fontSize=14;fillColor=#f8cecc;strokeColor=#b85450;" vertex="1" parent="1">
          <mxGeometry x="270" y="1010" width="120" height="80" as="geometry" />
        </mxCell>
      </root>
    </mxGraphModel>
  </diagram>
</mxfile>
